<?xml version="1.0" encoding="utf-8"?>
<!-- Generator: Adobe Illustrator 25.3.1, SVG Export Plug-In . SVG Version: 6.00 Build 0)  -->
<svg version="1.1" id="裏面" xmlns="http://www.w3.org/2000/svg" xmlns:xlink="http://www.w3.org/1999/xlink" x="0px" y="0px"
	 viewBox="0 0 595.3 822" style="enable-background:new 0 0 595.3 822;" xml:space="preserve">
<style type="text/css">
	.st0{fill:#FACD93;}
	.st1{fill:#FFF9B1;}
	.st2{fill:#EB6120;}
	.st3{fill:#FFFFFF;}
	.st4{fill:#F5A200;}
	.st5{fill:#FFF100;}
	.st6{fill:none;stroke:#221714;stroke-width:3.6693;stroke-linecap:round;stroke-linejoin:round;stroke-miterlimit:10;}
	.st7{fill:#006FBC;}
	.st8{fill:#6BC8F2;}
	.st9{fill:#873A2B;}
	.st10{display:none;}
	.st11{display:inline;fill:#FFF9B1;}
	.st12{font-family:'APJapanesefont';}
	.st13{font-size:40px;}
	.st14{letter-spacing:-4;}
</style>
<g>
	<path class="st0" d="M525,605.1c0-7.2,0-33.6,0-40.8c0-30.2-101.7-54.7-227.1-54.7S70.8,534.1,70.8,564.3c0,7.2,0,33.6,0,40.8
		c0,7.2,0,33.6,0,40.8c0,30.2,101.7,54.7,227.1,54.7S525,676.1,525,645.9C525,638.7,525,612.3,525,605.1z"/>
	<path class="st1" d="M525,547.2c0-30.2-101.7-54.7-227.1-54.7S70.8,516.9,70.8,547.2c0,7.2,0,33.6,0,40.8
		c0,30.2,101.7,54.7,227.1,54.7S525,618.2,525,587.9C525,580.7,525,554.4,525,547.2z"/>
	<path class="st0" d="M525,506.4c0-7.2,0-33.6,0-40.8c0-30.2-101.7-54.7-227.1-54.7S70.8,435.3,70.8,465.6c0,7.2,0,33.6,0,40.8
		s0,33.6,0,40.8c0,30.2,101.7,54.7,227.1,54.7S525,577.4,525,547.2C525,539.9,525,513.6,525,506.4z"/>
	<ellipse class="st1" cx="297.9" cy="465.6" rx="227.1" ry="54.7"/>
	<path class="st1" d="M126.9,532.6c22.8,8.8,38.9,38.8,54.5,39.9c15.6,1.1,32-18.1,49.3-20.3s30.3,33,63.2,32
		c32.9-1.1,35.4-24.4,51.9-23.4c18.3,1,33.7,18.1,54.5,14.9c20.8-3.2,42.3-40.8,63.2-41.6c20.9-0.7,34.7-0.1,53.7-14.9
		c13.3-10.4,21.2-47.1,19.7-70.4c-1.5-23.4-20.5-50-50-73.4s-81.3-26.6-111.6-28.8c-30.3-2.1-51.9,5.3-79.6,6.4s-56.2-7.5-84.8-6.4
		s-60.6,4.3-79.6,25.6c-19,21.3-56.9,28.8-67.5,46.9C53.1,437.2,41.2,501.8,75,521.3C90.9,530.6,110.3,526.2,126.9,532.6z"/>
</g>
<g>
	<path class="st2" d="M442.2,393.2c-4.6,27.5,17.6,41.2,44.4,41.2s37.9-20.6,37-41.2c-0.9-20.6-22.2-55-44.4-56
		C457,336.3,446.8,365.7,442.2,393.2z"/>
	<path class="st3" d="M479.6,367.5c-1-0.1-2.2,3.5-2.2,5.3c0,1.8,0.4,2.7,1.9,2.9c1.5,0.1,2.4-1.5,2.3-2.9S480.6,367.7,479.6,367.5z
		"/>
	<path class="st3" d="M463.1,359.6c-1-0.3-2.5,3.3-2.7,5c-0.2,1.8,0.1,2.8,1.5,3.1c1.4,0.3,2.5-1.2,2.6-2.6S464.1,359.9,463.1,359.6
		z"/>
	<path class="st3" d="M477.2,350.1c-1-0.3-2.5,3.3-2.7,5c-0.2,1.8,0.1,2.8,1.5,3.1c1.4,0.3,2.5-1.2,2.6-2.6S478.2,350.3,477.2,350.1
		z"/>
	<path class="st3" d="M453.8,379.8c-1-0.3-2.6,3.3-2.7,5s0.1,2.8,1.5,3.1s2.5-1.2,2.6-2.6C455.3,384,454.9,380.1,453.8,379.8z"/>
	<path class="st3" d="M469.7,387c-1-0.3-2.6,3.2-2.8,5s0.1,2.8,1.5,3.1c1.4,0.3,2.5-1.2,2.6-2.5C471.1,391.2,470.7,387.3,469.7,387z
		"/>
	<path class="st3" d="M491,387.2c-1-0.1-1.9,3.7-1.8,5.5s0.6,2.7,2,2.7c1.5,0,2.3-1.7,2.1-3C493.2,391,492.1,387.2,491,387.2z"/>
	<path class="st3" d="M508.3,378.4c-1,0-1.7,3.8-1.5,5.6s0.8,2.6,2.2,2.6c1.5-0.1,2.2-1.8,1.9-3.2
		C510.6,382,509.3,378.4,508.3,378.4z"/>
	<path class="st3" d="M513.8,401.8c-1-0.1-1.9,3.7-1.8,5.5c0.1,1.8,0.6,2.7,2,2.7c1.5,0,2.3-1.7,2.1-3
		C515.9,405.6,514.8,401.9,513.8,401.8z"/>
	<path class="st3" d="M499,412c-1-0.1-1.9,3.7-1.8,5.5c0.1,1.8,0.6,2.7,2.1,2.7c1.5,0,2.3-1.7,2.1-3C501.1,415.8,500,412.1,499,412z
		"/>
	<path class="st3" d="M480.1,414c-1-0.1-2.2,3.5-2.2,5.3c0,1.8,0.4,2.7,1.9,2.9c1.5,0.1,2.4-1.5,2.3-2.9S481.2,414.1,480.1,414z"/>
	<path class="st3" d="M462.3,410.1c-1-0.2-2.4,3.4-2.5,5.1c-0.1,1.8,0.2,2.8,1.7,3c1.4,0.3,2.5-1.3,2.5-2.7
		C463.8,414.1,463.3,410.3,462.3,410.1z"/>
	<path class="st3" d="M448.7,401.5c-1-0.2-2.4,3.4-2.6,5.1c-0.1,1.8,0.2,2.8,1.7,3c1.4,0.3,2.5-1.3,2.5-2.7
		C450.3,405.6,449.7,401.7,448.7,401.5z"/>
	<path class="st3" d="M497.2,357.8c-1,0-1.8,3.8-1.6,5.5s0.7,2.7,2.1,2.6c1.5,0,2.2-1.8,2-3.1C499.4,361.5,498.2,357.8,497.2,357.8z
		"/>
</g>
<g>
	<path class="st2" d="M316.3,343.6c-4.6,27.5,17.6,41.2,44.4,41.2s37.9-20.6,37-41.2s-22.2-55-44.4-56
		C331.1,286.7,320.9,316.1,316.3,343.6z"/>
	<path class="st3" d="M353.7,318c-1-0.1-2.2,3.5-2.2,5.3c0,1.8,0.4,2.7,1.9,2.9c1.5,0.1,2.4-1.5,2.3-2.9S354.8,318.1,353.7,318z"/>
	<path class="st3" d="M337.2,310c-1-0.3-2.5,3.3-2.7,5c-0.2,1.8,0.1,2.8,1.5,3.1c1.4,0.3,2.5-1.2,2.6-2.6
		C338.7,314.2,338.3,310.3,337.2,310z"/>
	<path class="st3" d="M351.3,300.5c-1-0.3-2.5,3.3-2.7,5c-0.2,1.8,0.1,2.8,1.5,3.1c1.4,0.3,2.5-1.2,2.6-2.6S352.3,300.7,351.3,300.5
		z"/>
	<path class="st3" d="M328,330.2c-1-0.3-2.6,3.3-2.7,5c-0.2,1.8,0.1,2.8,1.5,3.1c1.4,0.3,2.5-1.2,2.6-2.6
		C329.4,334.4,329,330.5,328,330.2z"/>
	<path class="st3" d="M343.9,337.4c-1-0.3-2.6,3.2-2.8,5s0.1,2.8,1.5,3.1c1.4,0.3,2.5-1.2,2.6-2.5
		C345.3,341.6,344.9,337.7,343.9,337.4z"/>
	<path class="st3" d="M365.2,337.6c-1-0.1-1.9,3.7-1.8,5.5s0.6,2.7,2,2.7c1.5,0,2.3-1.7,2.1-3C367.3,341.4,366.2,337.7,365.2,337.6z
		"/>
	<path class="st3" d="M382.4,328.8c-1,0-1.7,3.8-1.5,5.6s0.8,2.6,2.2,2.6c1.5-0.1,2.2-1.8,1.9-3.2S383.4,328.8,382.4,328.8z"/>
	<path class="st3" d="M387.9,352.2c-1-0.1-1.9,3.7-1.8,5.5c0.1,1.8,0.6,2.7,2,2.7c1.5,0,2.3-1.7,2.1-3
		C390,356,388.9,352.3,387.9,352.2z"/>
	<path class="st3" d="M373.1,362.4c-1-0.1-1.9,3.7-1.8,5.5c0.1,1.8,0.6,2.7,2.1,2.7s2.3-1.7,2.1-3
		C375.3,366.2,374.2,362.5,373.1,362.4z"/>
	<path class="st3" d="M354.2,364.4c-1-0.1-2.2,3.5-2.2,5.3c0,1.8,0.4,2.7,1.9,2.9c1.5,0.1,2.4-1.5,2.3-2.9S355.3,364.6,354.2,364.4z
		"/>
	<path class="st3" d="M336.4,360.5c-1-0.2-2.4,3.4-2.5,5.1s0.2,2.8,1.7,3s2.5-1.3,2.5-2.7S337.4,360.7,336.4,360.5z"/>
	<path class="st3" d="M322.8,351.9c-1-0.2-2.4,3.4-2.6,5.1c-0.1,1.8,0.2,2.8,1.7,3s2.5-1.3,2.5-2.7
		C324.4,356,323.8,352.1,322.8,351.9z"/>
	<path class="st3" d="M371.3,308.2c-1,0-1.8,3.8-1.6,5.5s0.7,2.7,2.1,2.6c1.5,0,2.2-1.8,2-3.1C373.6,311.9,372.4,308.2,371.3,308.2z
		"/>
</g>
<g>
	<path class="st2" d="M197.9,341.9c-4.6,27.5,17.6,41.2,44.4,41.2s37.9-20.6,37-41.2s-22.2-55-44.4-56
		C212.6,285,202.5,314.4,197.9,341.9z"/>
	<path class="st3" d="M235.3,316.2c-1-0.1-2.2,3.5-2.2,5.3c0,1.8,0.4,2.7,1.9,2.9s2.4-1.5,2.3-2.9S236.3,316.4,235.3,316.2z"/>
	<path class="st3" d="M218.8,308.3c-1-0.3-2.5,3.3-2.7,5c-0.2,1.8,0.1,2.8,1.5,3.1c1.4,0.3,2.5-1.2,2.6-2.6
		C220.2,312.5,219.8,308.6,218.8,308.3z"/>
	<path class="st3" d="M232.9,298.8c-1-0.3-2.5,3.3-2.7,5c-0.2,1.8,0.1,2.8,1.5,3.1c1.4,0.3,2.5-1.2,2.6-2.6S233.9,299,232.9,298.8z"
		/>
	<path class="st3" d="M209.5,328.5c-1-0.3-2.6,3.3-2.7,5c-0.2,1.8,0.1,2.8,1.5,3.1c1.4,0.3,2.5-1.2,2.6-2.6
		C211,332.7,210.6,328.8,209.5,328.5z"/>
	<path class="st3" d="M225.4,335.7c-1-0.3-2.6,3.2-2.8,5s0.1,2.8,1.5,3.1c1.4,0.3,2.5-1.2,2.6-2.5
		C226.8,339.9,226.4,336,225.4,335.7z"/>
	<path class="st3" d="M246.7,335.9c-1-0.1-1.9,3.7-1.8,5.5s0.6,2.7,2,2.7c1.5,0,2.3-1.7,2.1-3C248.9,339.7,247.8,335.9,246.7,335.9z
		"/>
	<path class="st3" d="M264,327.1c-1,0-1.7,3.8-1.5,5.6c0.2,1.8,0.8,2.6,2.2,2.6c1.5-0.1,2.2-1.8,1.9-3.2
		C266.3,330.7,265,327.1,264,327.1z"/>
	<path class="st3" d="M269.4,350.5c-1-0.1-1.9,3.7-1.8,5.5c0.1,1.8,0.6,2.7,2,2.7c1.5,0,2.3-1.7,2.1-3
		C271.6,354.3,270.5,350.6,269.4,350.5z"/>
	<path class="st3" d="M254.7,360.7c-1-0.1-1.9,3.7-1.8,5.5s0.6,2.7,2.1,2.7s2.3-1.7,2.1-3C256.8,364.5,255.7,360.8,254.7,360.7z"/>
	<path class="st3" d="M235.8,362.7c-1-0.1-2.2,3.5-2.2,5.3c0,1.8,0.4,2.7,1.9,2.9c1.5,0.1,2.4-1.5,2.3-2.9S236.8,362.8,235.8,362.7z
		"/>
	<path class="st3" d="M217.9,358.8c-1-0.2-2.4,3.4-2.5,5.1c-0.1,1.8,0.2,2.8,1.7,3c1.4,0.3,2.5-1.3,2.5-2.7
		C219.5,362.8,219,359,217.9,358.8z"/>
	<path class="st3" d="M204.4,350.2c-1-0.2-2.4,3.4-2.6,5.1c-0.1,1.8,0.2,2.8,1.7,3s2.5-1.3,2.5-2.7S205.4,350.4,204.4,350.2z"/>
	<path class="st3" d="M252.9,306.5c-1,0-1.8,3.8-1.6,5.5s0.7,2.7,2.1,2.6c1.5,0,2.2-1.8,2-3.1C255.1,310.2,253.9,306.5,252.9,306.5z
		"/>
</g>
<g>
	<path class="st2" d="M65.1,390c-4.6,27.5,17.6,41.2,44.4,41.2s37.9-20.6,37-41.2c-0.9-20.6-22.2-55-44.4-56
		C79.9,333,69.7,362.5,65.1,390z"/>
	<path class="st3" d="M102.5,364.3c-1-0.1-2.2,3.5-2.2,5.3c0,1.8,0.4,2.7,1.9,2.9c1.5,0.1,2.4-1.5,2.3-2.9
		C104.4,368.2,103.6,364.4,102.5,364.3z"/>
	<path class="st3" d="M86,356.4c-1-0.3-2.5,3.3-2.7,5c-0.2,1.8,0.1,2.8,1.5,3.1s2.5-1.2,2.6-2.6C87.5,360.5,87.1,356.6,86,356.4z"/>
	<path class="st3" d="M100.1,346.8c-1-0.3-2.5,3.3-2.7,5c-0.2,1.8,0.1,2.8,1.5,3.1c1.4,0.3,2.5-1.2,2.6-2.6S101.1,347.1,100.1,346.8
		z"/>
	<path class="st3" d="M76.8,376.6c-1-0.3-2.6,3.3-2.7,5c-0.2,1.8,0.1,2.8,1.5,3.1c1.4,0.3,2.5-1.2,2.6-2.6
		C78.2,380.7,77.8,376.8,76.8,376.6z"/>
	<path class="st3" d="M92.7,383.8c-1-0.3-2.6,3.2-2.8,5s0.1,2.8,1.5,3.1c1.4,0.3,2.5-1.2,2.6-2.5C94.1,387.9,93.7,384.1,92.7,383.8z
		"/>
	<path class="st3" d="M114,383.9c-1-0.1-1.9,3.7-1.8,5.5s0.6,2.7,2,2.7c1.5,0,2.3-1.7,2.1-3C116.1,387.7,115,384,114,383.9z"/>
	<path class="st3" d="M131.2,375.1c-1,0-1.7,3.8-1.5,5.6c0.2,1.8,0.8,2.6,2.2,2.6c1.5-0.1,2.2-1.8,1.9-3.2
		C133.5,378.8,132.2,375.1,131.2,375.1z"/>
	<path class="st3" d="M136.7,398.6c-1-0.1-1.9,3.7-1.8,5.5c0.1,1.8,0.6,2.7,2,2.7c1.5,0,2.3-1.7,2.1-3
		C138.8,402.4,137.7,398.6,136.7,398.6z"/>
	<path class="st3" d="M121.9,408.8c-1-0.1-1.9,3.7-1.8,5.5c0.1,1.8,0.6,2.7,2.1,2.7s2.3-1.7,2.1-3
		C124.1,412.6,123,408.8,121.9,408.8z"/>
	<path class="st3" d="M103,410.7c-1-0.1-2.2,3.5-2.2,5.3c0,1.8,0.4,2.7,1.9,2.9c1.5,0.1,2.4-1.5,2.3-2.9
		C104.9,414.7,104.1,410.9,103,410.7z"/>
	<path class="st3" d="M85.2,406.8c-1-0.2-2.4,3.4-2.5,5.1c-0.1,1.8,0.2,2.8,1.7,3c1.4,0.3,2.5-1.3,2.5-2.7S86.2,407,85.2,406.8z"/>
	<path class="st3" d="M71.6,398.2c-1-0.2-2.4,3.4-2.6,5.1c-0.1,1.8,0.2,2.8,1.7,3c1.4,0.3,2.5-1.3,2.5-2.7S72.6,398.4,71.6,398.2z"
		/>
	<path class="st3" d="M120.1,354.5c-1,0-1.8,3.8-1.6,5.5s0.7,2.7,2.1,2.6c1.5,0,2.2-1.8,2-3.1C122.4,358.3,121.2,354.6,120.1,354.5z
		"/>
</g>
<g>
	<path class="st2" d="M194.7,198.2c0-4.6-10-8.2-22.3-8.2c-12.3,0-22.3,3.7-22.3,8.2c0,3.4,0,184.7,0,188.1c0,4.6,10,8.2,22.3,8.2
		c12.3,0,22.3-3.7,22.3-8.2C194.7,382.9,194.7,201.7,194.7,198.2z"/>
	<path class="st4" d="M155.1,205.8c1.9,1.7,3.5,5.1,6.1,5.6c2.6,0.4,5.7-4.3,7.9-2.4c2.2,1.9,2.8,7,6.3,6.9c3.5-0.1,3.7-5,5.7-5
		s3.8,7.4,5.5,7.3c2.2-0.2,2.3-9.2,4.5-9.3s3.7,4.4,4.3,1.1c1.2-7.8,1.6-12.3-1.4-15.9c-3-3.7-10.4-4.3-22.1-4.3S154,192,151.1,195
		c-2.8,3-2.6,14-1,15.3C151.7,211.6,153.3,204.1,155.1,205.8z"/>
	<g>
		<path class="st2" d="M151.5,154.2c4.9-18.3,33.5-49.8,35.1-49.7c-4.5,29.4,11.6,46.2,9.2,61.2c-2.4,14.9-15.8,21.9-29,16.1
			C151.6,175.1,148.6,165.1,151.5,154.2z"/>
		<path class="st5" d="M172.9,145c0.5,5.1,2.4,10.1,5.3,14.2c1.3,1.9,2.9,3.6,3.9,5.8c4.9,11.2-3.8,24.7-14.5,15
			C156.8,170.4,172,155.6,172.9,145z"/>
		<path class="st6" d="M172.9,195.5c-1.4-3.4,2-6.7,3.8-10c2.3-4.3,1.4-10.2-2-13.6"/>
	</g>
</g>
<g>
	<path class="st7" d="M442.6,198.2c0-4.6-10-8.2-22.3-8.2c-12.3,0-22.3,3.7-22.3,8.2c0,3.4,0,184.7,0,188.1c0,4.6,10,8.2,22.3,8.2
		c12.3,0,22.3-3.7,22.3-8.2C442.6,382.9,442.6,201.7,442.6,198.2z"/>
	<path class="st8" d="M403.1,205.8c1.9,1.7,3.5,5.1,6.1,5.6c2.6,0.4,5.7-4.3,7.9-2.4s2.8,7,6.3,6.9c3.5-0.1,3.7-5,5.7-5
		s3.8,7.4,5.5,7.3c2.2-0.2,2.3-9.2,4.5-9.3s3.7,4.4,4.3,1.1c1.2-7.8,1.6-12.3-1.4-15.9c-3-3.7-10.4-4.3-22.1-4.3s-17.9,2.2-20.7,5.2
		c-2.8,3-2.6,14-1,15.3S401.2,204.1,403.1,205.8z"/>
	<g>
		<path class="st2" d="M399.5,154.2c4.9-18.3,33.5-49.8,35.1-49.7c-4.5,29.4,11.6,46.2,9.2,61.2c-2.4,14.9-15.8,21.9-29,16.1
			C399.6,175.1,396.6,165.1,399.5,154.2z"/>
		<path class="st5" d="M420.8,145c0.5,5.1,2.4,10.1,5.3,14.2c1.3,1.9,2.9,3.6,3.9,5.8c4.9,11.2-3.8,24.7-14.5,15
			C404.7,170.4,419.9,155.6,420.8,145z"/>
		<path class="st6" d="M420.9,195.5c-1.4-3.4,2-6.7,3.8-10c2.3-4.3,1.4-10.2-2-13.6"/>
	</g>
</g>
<g>
	<path class="st5" d="M317.7,198.2c0-4.6-10-8.2-22.3-8.2c-12.3,0-22.3,3.7-22.3,8.2c0,3.4,0,184.7,0,188.1c0,4.6,10,8.2,22.3,8.2
		c12.3,0,22.3-3.7,22.3-8.2C317.7,382.9,317.7,201.7,317.7,198.2z"/>
	<path class="st1" d="M278.2,205.8c1.9,1.7,3.5,5.1,6.1,5.6c2.6,0.4,5.7-4.3,7.9-2.4s2.8,7,6.3,6.9c3.5-0.1,3.7-5,5.7-5
		c2,0,3.8,7.4,5.5,7.3c2.2-0.2,2.3-9.2,4.5-9.3c2.2-0.1,3.7,4.4,4.3,1.1c1.2-7.8,1.6-12.3-1.4-15.9c-3-3.7-10.4-4.3-22.1-4.3
		c-11.7,0-17.9,2.2-20.7,5.2s-2.6,14-1,15.3S276.4,204.1,278.2,205.8z"/>
	<g>
		<path class="st2" d="M274.6,154.2c4.9-18.3,33.5-49.8,35.1-49.7c-4.5,29.4,11.6,46.2,9.2,61.2c-2.4,14.9-15.8,21.9-29,16.1
			C274.7,175.1,271.7,165.1,274.6,154.2z"/>
		<path class="st5" d="M296,145c0.5,5.1,2.4,10.1,5.3,14.2c1.3,1.9,2.9,3.6,3.9,5.8c4.9,11.2-3.8,24.7-14.5,15
			C279.9,170.4,295.1,155.6,296,145z"/>
		<path class="st6" d="M296,195.5c-1.4-3.4,2-6.7,3.8-10c2.3-4.3,1.4-10.2-2-13.6"/>
	</g>
</g>
<rect x="153.1" y="301.7" class="st9" width="284.6" height="116.3"/>
<text transform="matrix(1 0 0 1 158.7434 344.9807)" class="st10"><tspan x="0" y="0" class="st11 st12 st13 st14">るいちゃん</tspan><tspan x="0" y="40" class="st11 st12 st13 st14">おたんじょうびおめでとう</tspan></text>
<g>
	<path class="st2" d="M178.8,439.1c-4.6,27.5,17.6,41.2,44.4,41.2s37.9-20.6,37-41.2s-22.2-55-44.4-56
		C193.6,382.1,183.4,411.6,178.8,439.1z"/>
	<path class="st3" d="M216.3,413.4c-1-0.1-2.2,3.5-2.2,5.3c0,1.8,0.4,2.7,1.9,2.9c1.5,0.1,2.4-1.5,2.3-2.9
		C218.1,417.4,217.3,413.5,216.3,413.4z"/>
	<path class="st3" d="M199.8,405.5c-1-0.3-2.5,3.3-2.7,5c-0.2,1.8,0.1,2.8,1.5,3.1s2.5-1.2,2.6-2.6
		C201.2,409.6,200.8,405.7,199.8,405.5z"/>
	<path class="st3" d="M213.8,395.9c-1-0.3-2.5,3.3-2.7,5c-0.2,1.8,0.1,2.8,1.5,3.1c1.4,0.3,2.5-1.2,2.6-2.6S214.9,396.2,213.8,395.9
		z"/>
	<path class="st3" d="M190.5,425.7c-1-0.3-2.6,3.3-2.7,5c-0.2,1.8,0.1,2.8,1.5,3.1c1.4,0.3,2.5-1.2,2.6-2.6
		C191.9,429.8,191.5,425.9,190.5,425.7z"/>
	<path class="st3" d="M206.4,432.9c-1-0.3-2.6,3.2-2.8,5s0.1,2.8,1.5,3.1c1.4,0.3,2.5-1.2,2.6-2.5
		C207.8,437.1,207.4,433.2,206.4,432.9z"/>
	<path class="st3" d="M227.7,433c-1-0.1-1.9,3.7-1.8,5.5s0.6,2.7,2,2.7c1.5,0,2.3-1.7,2.1-3S228.8,433.1,227.7,433z"/>
	<path class="st3" d="M244.9,424.2c-1,0-1.7,3.8-1.5,5.6c0.2,1.8,0.8,2.6,2.2,2.6c1.5-0.1,2.2-1.8,1.9-3.2
		C247.3,427.9,246,424.2,244.9,424.2z"/>
	<path class="st3" d="M250.4,447.7c-1-0.1-1.9,3.7-1.8,5.5c0.1,1.8,0.6,2.7,2,2.7c1.5,0,2.3-1.7,2.1-3
		C252.5,451.5,251.5,447.7,250.4,447.7z"/>
	<path class="st3" d="M235.6,457.9c-1-0.1-1.9,3.7-1.8,5.5s0.6,2.7,2.1,2.7s2.3-1.7,2.1-3C237.8,461.7,236.7,457.9,235.6,457.9z"/>
	<path class="st3" d="M216.8,459.9c-1-0.1-2.2,3.5-2.2,5.3c0,1.8,0.4,2.7,1.9,2.9c1.5,0.1,2.4-1.5,2.3-2.9
		C218.6,463.8,217.8,460,216.8,459.9z"/>
	<path class="st3" d="M198.9,455.9c-1-0.2-2.4,3.4-2.5,5.1c-0.1,1.8,0.2,2.8,1.7,3c1.4,0.3,2.5-1.3,2.5-2.7
		C200.5,460,199.9,456.1,198.9,455.9z"/>
	<path class="st3" d="M185.3,447.3c-1-0.2-2.4,3.4-2.6,5.1c-0.1,1.8,0.2,2.8,1.7,3c1.4,0.3,2.5-1.3,2.5-2.7
		C186.9,451.4,186.4,447.6,185.3,447.3z"/>
	<path class="st3" d="M233.9,403.6c-1,0-1.8,3.8-1.6,5.5s0.7,2.7,2.1,2.6s2.2-1.8,2-3.1C236.1,407.4,234.9,403.7,233.9,403.6z"/>
</g>
<g>
	<path class="st2" d="M328.9,444.1c-4.6,27.5,17.6,41.2,44.4,41.2s37.9-20.6,37-41.2s-22.2-55-44.4-56
		C343.7,387.2,333.5,416.7,328.9,444.1z"/>
	<path class="st3" d="M366.4,418.5c-1-0.1-2.2,3.5-2.2,5.3c0,1.8,0.4,2.7,1.9,2.9c1.5,0.1,2.4-1.5,2.3-2.9
		C368.2,422.4,367.4,418.6,366.4,418.5z"/>
	<path class="st3" d="M349.9,410.5c-1-0.3-2.5,3.3-2.7,5s0.1,2.8,1.5,3.1s2.5-1.2,2.6-2.6C351.3,414.7,350.9,410.8,349.9,410.5z"/>
	<path class="st3" d="M363.9,401c-1-0.3-2.5,3.3-2.7,5c-0.2,1.8,0.1,2.8,1.5,3.1c1.4,0.3,2.5-1.2,2.6-2.6
		C365.4,405.1,365,401.3,363.9,401z"/>
	<path class="st3" d="M340.6,430.7c-1-0.3-2.6,3.3-2.7,5c-0.2,1.8,0.1,2.8,1.5,3.1s2.5-1.2,2.6-2.6C342,434.9,341.6,431,340.6,430.7
		z"/>
	<path class="st3" d="M356.5,438c-1-0.3-2.6,3.2-2.8,5s0.1,2.8,1.5,3.1c1.4,0.3,2.5-1.2,2.6-2.5C357.9,442.1,357.5,438.2,356.5,438z
		"/>
	<path class="st3" d="M377.8,438.1c-1-0.1-1.9,3.7-1.8,5.5s0.6,2.7,2,2.7c1.5,0,2.3-1.7,2.1-3C379.9,441.9,378.8,438.2,377.8,438.1z
		"/>
	<path class="st3" d="M395,429.3c-1,0-1.7,3.8-1.5,5.6c0.2,1.8,0.8,2.6,2.2,2.6c1.5-0.1,2.2-1.8,1.9-3.2
		C397.4,433,396.1,429.3,395,429.3z"/>
	<path class="st3" d="M400.5,452.7c-1-0.1-1.9,3.7-1.8,5.5c0.1,1.8,0.6,2.7,2,2.7c1.5,0,2.3-1.7,2.1-3
		C402.6,456.5,401.6,452.8,400.5,452.7z"/>
	<path class="st3" d="M385.7,463c-1-0.1-1.9,3.7-1.8,5.5c0.1,1.8,0.6,2.7,2.1,2.7c1.5,0,2.3-1.7,2.1-3
		C387.9,466.7,386.8,463,385.7,463z"/>
	<path class="st3" d="M366.9,464.9c-1-0.1-2.2,3.5-2.2,5.3c0,1.8,0.4,2.7,1.9,2.9c1.5,0.1,2.4-1.5,2.3-2.9
		C368.7,468.9,367.9,465.1,366.9,464.9z"/>
	<path class="st3" d="M349,461c-1-0.2-2.4,3.4-2.5,5.1c-0.1,1.8,0.2,2.8,1.7,3c1.4,0.3,2.5-1.3,2.5-2.7
		C350.6,465.1,350,461.2,349,461z"/>
	<path class="st3" d="M335.4,452.4c-1-0.2-2.4,3.4-2.6,5.1c-0.1,1.8,0.2,2.8,1.7,3s2.5-1.3,2.5-2.7S336.5,452.6,335.4,452.4z"/>
	<path class="st3" d="M384,408.7c-1,0-1.8,3.8-1.6,5.5c0.2,1.8,0.7,2.7,2.1,2.6c1.5,0,2.2-1.8,2-3.1
		C386.2,412.4,385,408.7,384,408.7z"/>
</g>
</svg>
