<?xml version="1.0" encoding="utf-8"?>
<!-- Generator: Adobe Illustrator 25.3.1, SVG Export Plug-In . SVG Version: 6.00 Build 0)  -->
<svg version="1.1" id="裏面" xmlns="http://www.w3.org/2000/svg" xmlns:xlink="http://www.w3.org/1999/xlink" x="0px" y="0px"
	 viewBox="0 0 595.28 822.05" style="enable-background:new 0 0 595.28 822.05;" xml:space="preserve">
<style type="text/css">
	.st0{fill:#FACD93;}
	.st1{fill:#FFF9B1;}
	.st2{fill:#EB6120;}
	.st3{fill:#FFFFFF;}
	.st4{fill:#F5A200;}
	.st5{fill:#FFF100;}
	.st6{fill:none;stroke:#221714;stroke-width:3.6693;stroke-linecap:round;stroke-linejoin:round;stroke-miterlimit:10;}
	.st7{fill:#006FBC;}
	.st8{fill:#6BC8F2;}
	.st9{fill:#873A2B;}
</style>
<g>
	<path class="st0" d="M525,605.12c0-7.21,0-33.58,0-40.79c0-30.24-101.67-54.75-227.09-54.75S70.82,534.09,70.82,564.33
		c0,7.21,0,33.58,0,40.79c0,7.21,0,33.58,0,40.79c0,30.24,101.67,54.75,227.09,54.75S525,676.15,525,645.91
		C525,638.7,525,612.33,525,605.12z"/>
	<path class="st1" d="M525,547.15c0-30.24-101.67-54.75-227.09-54.75S70.82,516.92,70.82,547.15c0,7.21,0,33.58,0,40.79
		c0,30.24,101.67,54.75,227.09,54.75S525,618.18,525,587.94C525,580.73,525,554.36,525,547.15z"/>
	<path class="st0" d="M525,506.36c0-7.21,0-33.58,0-40.79c0-30.24-101.67-54.75-227.09-54.75S70.82,435.33,70.82,465.57
		c0,7.21,0,33.58,0,40.79s0,33.58,0,40.79c0,30.24,101.67,54.75,227.09,54.75S525,577.39,525,547.15
		C525,539.94,525,513.57,525,506.36z"/>
	<ellipse class="st1" cx="297.91" cy="465.57" rx="227.09" ry="54.75"/>
	<path class="st1" d="M126.91,532.6c22.8,8.78,38.93,38.83,54.5,39.89c15.58,1.07,32.02-18.12,49.33-20.25s30.29,33.04,63.17,31.97
		s35.37-24.38,51.92-23.45c18.33,1.03,33.75,18.12,54.52,14.92s42.29-40.82,63.17-41.57c20.89-0.74,34.69-0.09,53.65-14.92
		c13.29-10.4,21.18-47.09,19.68-70.44s-20.54-50-49.96-73.45s-81.35-26.65-111.63-28.78c-30.29-2.13-51.92,5.33-79.62,6.39
		s-56.25-7.46-84.81-6.39s-60.58,4.26-79.62,25.58c-19.04,21.32-56.9,28.76-67.5,46.9s-22.57,82.79,11.25,102.32
		C90.94,530.55,110.27,526.19,126.91,532.6z"/>
</g>
<g>
	<path class="st2" d="M442.16,393.21c-4.62,27.49,17.57,41.23,44.38,41.23c26.81,0,37.91-20.61,36.98-41.23
		c-0.92-20.61-22.19-54.97-44.38-55.95C456.95,336.28,446.78,365.73,442.16,393.21z"/>
	<path class="st3" d="M479.6,367.55c-1.04-0.14-2.18,3.54-2.18,5.31s0.42,2.73,1.87,2.86c1.45,0.14,2.39-1.5,2.28-2.86
		S480.64,367.68,479.6,367.55z"/>
	<path class="st3" d="M463.11,359.61c-1.02-0.26-2.55,3.25-2.74,5.01s0.12,2.76,1.55,3.07s2.53-1.2,2.58-2.56
		S464.12,359.87,463.11,359.61z"/>
	<path class="st3" d="M477.18,350.06c-1.02-0.26-2.55,3.25-2.74,5.01s0.12,2.76,1.55,3.07s2.53-1.2,2.58-2.56
		S478.2,350.33,477.18,350.06z"/>
	<path class="st3" d="M453.85,379.81c-1.02-0.26-2.55,3.25-2.75,5.01s0.11,2.76,1.54,3.07s2.53-1.19,2.58-2.56
		C455.27,383.97,454.86,380.08,453.85,379.81z"/>
	<path class="st3" d="M469.72,387.04c-1.02-0.27-2.57,3.24-2.77,5s0.1,2.76,1.53,3.08c1.43,0.32,2.54-1.18,2.59-2.55
		C471.13,391.2,470.74,387.3,469.72,387.04z"/>
	<path class="st3" d="M491.05,387.18c-1.04-0.06-1.95,3.69-1.84,5.46s0.59,2.69,2.05,2.72s2.29-1.67,2.1-3.02
		C493.16,390.98,492.09,387.24,491.05,387.18z"/>
	<path class="st3" d="M508.27,378.39c-1.05,0.01-1.71,3.82-1.49,5.58s0.76,2.64,2.21,2.57c1.46-0.07,2.18-1.83,1.9-3.16
		C510.62,382.04,509.31,378.38,508.27,378.39z"/>
	<path class="st3" d="M513.75,401.81c-1.04-0.06-1.95,3.69-1.84,5.46s0.59,2.69,2.05,2.72s2.29-1.67,2.1-3.02
		C515.87,405.62,514.8,401.87,513.75,401.81z"/>
	<path class="st3" d="M498.98,412.02c-1.04-0.05-1.91,3.71-1.79,5.48c0.13,1.77,0.61,2.68,2.07,2.7c1.46,0.02,2.27-1.69,2.07-3.04
		C501.13,415.81,500.02,412.07,498.98,412.02z"/>
	<path class="st3" d="M480.11,414c-1.04-0.14-2.18,3.54-2.18,5.31s0.42,2.73,1.87,2.86c1.45,0.14,2.39-1.5,2.28-2.86
		S481.15,414.14,480.11,414z"/>
	<path class="st3" d="M462.25,410.06c-1.03-0.22-2.42,3.36-2.55,5.13c-0.12,1.77,0.22,2.75,1.66,3s2.49-1.31,2.48-2.67
		C463.84,414.15,463.28,410.28,462.25,410.06z"/>
	<path class="st3" d="M448.67,401.48c-1.03-0.22-2.43,3.36-2.56,5.12c-0.13,1.77,0.22,2.75,1.66,3s2.49-1.3,2.48-2.67
		C450.25,405.57,449.7,401.7,448.67,401.48z"/>
	<path class="st3" d="M497.2,357.79c-1.05-0.02-1.82,3.77-1.64,5.53s0.68,2.66,2.14,2.64c1.46-0.03,2.23-1.76,1.99-3.1
		C499.44,361.51,498.24,357.81,497.2,357.79z"/>
</g>
<g>
	<path class="st2" d="M316.29,343.63c-4.62,27.49,17.57,41.23,44.38,41.23s37.91-20.61,36.98-41.23s-22.19-54.97-44.38-55.95
		C331.08,286.69,320.91,316.14,316.29,343.63z"/>
	<path class="st3" d="M353.73,317.96c-1.04-0.14-2.18,3.54-2.18,5.31s0.42,2.73,1.87,2.86c1.45,0.14,2.39-1.5,2.28-2.86
		S354.77,318.1,353.73,317.96z"/>
	<path class="st3" d="M337.24,310.02c-1.02-0.26-2.55,3.25-2.74,5.01s0.12,2.76,1.55,3.07s2.53-1.2,2.58-2.56
		C338.66,314.17,338.25,310.28,337.24,310.02z"/>
	<path class="st3" d="M351.31,300.48c-1.02-0.26-2.55,3.25-2.74,5.01s0.12,2.76,1.55,3.07s2.53-1.2,2.58-2.56
		S352.33,300.74,351.31,300.48z"/>
	<path class="st3" d="M327.98,330.23c-1.02-0.26-2.55,3.25-2.75,5.01c-0.19,1.76,0.11,2.76,1.54,3.07c1.43,0.31,2.53-1.19,2.58-2.56
		C329.4,334.38,328.99,330.49,327.98,330.23z"/>
	<path class="st3" d="M343.85,337.45c-1.02-0.27-2.57,3.24-2.77,5s0.1,2.76,1.53,3.08c1.43,0.32,2.54-1.18,2.59-2.55
		C345.26,341.61,344.87,337.72,343.85,337.45z"/>
	<path class="st3" d="M365.17,337.59c-1.04-0.06-1.95,3.69-1.84,5.46s0.59,2.69,2.05,2.72s2.29-1.67,2.1-3.02
		C367.29,341.4,366.22,337.65,365.17,337.59z"/>
	<path class="st3" d="M382.39,328.8c-1.05,0.01-1.71,3.82-1.49,5.58s0.76,2.64,2.21,2.57c1.46-0.07,2.18-1.83,1.9-3.16
		S383.44,328.79,382.39,328.8z"/>
	<path class="st3" d="M387.88,352.22c-1.04-0.06-1.95,3.69-1.84,5.46c0.11,1.77,0.59,2.69,2.05,2.72s2.29-1.67,2.1-3.02
		C390,356.03,388.93,352.29,387.88,352.22z"/>
	<path class="st3" d="M373.11,362.44c-1.04-0.05-1.91,3.71-1.79,5.48c0.13,1.77,0.61,2.68,2.07,2.7s2.27-1.69,2.07-3.04
		C375.26,366.22,374.15,362.49,373.11,362.44z"/>
	<path class="st3" d="M354.24,364.41c-1.04-0.14-2.18,3.54-2.18,5.31s0.42,2.73,1.87,2.86c1.45,0.14,2.39-1.5,2.28-2.86
		S355.28,364.55,354.24,364.41z"/>
	<path class="st3" d="M336.38,360.47c-1.03-0.22-2.42,3.36-2.55,5.13s0.22,2.75,1.66,3s2.49-1.31,2.48-2.67
		S337.41,360.69,336.38,360.47z"/>
	<path class="st3" d="M322.8,351.89c-1.03-0.22-2.43,3.36-2.56,5.12c-0.13,1.77,0.22,2.75,1.66,3s2.49-1.3,2.48-2.67
		C324.38,355.98,323.83,352.11,322.8,351.89z"/>
	<path class="st3" d="M371.32,308.2c-1.05-0.02-1.82,3.77-1.64,5.53s0.68,2.66,2.14,2.64c1.46-0.03,2.23-1.76,1.99-3.1
		C373.57,311.92,372.37,308.22,371.32,308.2z"/>
</g>
<g>
	<path class="st2" d="M197.86,341.91c-4.62,27.49,17.57,41.23,44.38,41.23s37.91-20.61,36.98-41.23s-22.19-54.97-44.38-55.95
		C212.65,284.98,202.48,314.43,197.86,341.91z"/>
	<path class="st3" d="M235.3,316.25c-1.04-0.14-2.18,3.54-2.18,5.31s0.42,2.73,1.87,2.86s2.39-1.5,2.28-2.86
		S236.34,316.38,235.3,316.25z"/>
	<path class="st3" d="M218.8,308.31c-1.02-0.26-2.55,3.25-2.74,5.01s0.12,2.76,1.55,3.07c1.43,0.31,2.53-1.2,2.58-2.56
		C220.23,312.46,219.82,308.57,218.8,308.31z"/>
	<path class="st3" d="M232.88,298.76c-1.02-0.26-2.55,3.25-2.74,5.01s0.12,2.76,1.55,3.07c1.43,0.31,2.53-1.2,2.58-2.56
		S233.89,299.02,232.88,298.76z"/>
	<path class="st3" d="M209.54,328.51c-1.02-0.26-2.55,3.25-2.75,5.01c-0.19,1.76,0.11,2.76,1.54,3.07s2.53-1.19,2.58-2.56
		C210.97,332.67,210.56,328.78,209.54,328.51z"/>
	<path class="st3" d="M225.42,335.73c-1.02-0.27-2.57,3.24-2.77,5s0.1,2.76,1.53,3.08c1.43,0.32,2.54-1.18,2.59-2.55
		C226.82,339.9,226.43,336,225.42,335.73z"/>
	<path class="st3" d="M246.74,335.87c-1.04-0.06-1.95,3.69-1.84,5.46s0.59,2.69,2.05,2.72s2.29-1.67,2.1-3.02
		C248.86,339.68,247.78,335.94,246.74,335.87z"/>
	<path class="st3" d="M263.96,327.09c-1.05,0.01-1.71,3.82-1.49,5.58c0.22,1.76,0.76,2.64,2.21,2.57c1.46-0.07,2.18-1.83,1.9-3.16
		C266.31,330.74,265.01,327.07,263.96,327.09z"/>
	<path class="st3" d="M269.45,350.51c-1.04-0.06-1.95,3.69-1.84,5.46c0.11,1.77,0.59,2.69,2.05,2.72s2.29-1.67,2.1-3.02
		C271.56,354.32,270.49,350.57,269.45,350.51z"/>
	<path class="st3" d="M254.67,360.72c-1.04-0.05-1.91,3.71-1.79,5.48s0.61,2.68,2.07,2.7c1.46,0.02,2.27-1.69,2.07-3.04
		C256.82,364.51,255.72,360.77,254.67,360.72z"/>
	<path class="st3" d="M235.81,362.7c-1.04-0.14-2.18,3.54-2.18,5.31s0.42,2.73,1.87,2.86c1.45,0.14,2.39-1.5,2.28-2.86
		S236.85,362.84,235.81,362.7z"/>
	<path class="st3" d="M217.95,358.76c-1.03-0.22-2.42,3.36-2.55,5.13c-0.12,1.77,0.22,2.75,1.66,3s2.49-1.31,2.48-2.67
		C219.53,362.85,218.97,358.98,217.95,358.76z"/>
	<path class="st3" d="M204.37,350.17c-1.03-0.22-2.43,3.36-2.56,5.12c-0.13,1.77,0.22,2.75,1.66,3s2.49-1.3,2.48-2.67
		S205.39,350.39,204.37,350.17z"/>
	<path class="st3" d="M252.89,306.48c-1.05-0.02-1.82,3.77-1.64,5.53s0.68,2.66,2.14,2.64c1.46-0.03,2.23-1.76,1.99-3.1
		C255.14,310.21,253.94,306.5,252.89,306.48z"/>
</g>
<g>
	<path class="st2" d="M65.09,389.96c-4.62,27.49,17.57,41.23,44.38,41.23s37.91-20.61,36.98-41.23
		c-0.92-20.61-22.19-54.97-44.38-55.95C79.89,333.03,69.72,362.48,65.09,389.96z"/>
	<path class="st3" d="M102.54,364.3c-1.04-0.14-2.18,3.54-2.18,5.31s0.42,2.73,1.87,2.86c1.45,0.14,2.39-1.5,2.28-2.86
		S103.57,364.43,102.54,364.3z"/>
	<path class="st3" d="M86.04,356.36c-1.02-0.26-2.55,3.25-2.74,5.01c-0.19,1.76,0.12,2.76,1.55,3.07s2.53-1.2,2.58-2.56
		C87.47,360.51,87.05,356.62,86.04,356.36z"/>
	<path class="st3" d="M100.11,346.81c-1.02-0.26-2.55,3.25-2.74,5.01c-0.19,1.76,0.12,2.76,1.55,3.07s2.53-1.2,2.58-2.56
		S101.13,347.08,100.11,346.81z"/>
	<path class="st3" d="M76.78,376.56c-1.02-0.26-2.55,3.25-2.75,5.01c-0.19,1.76,0.11,2.76,1.54,3.07s2.53-1.19,2.58-2.56
		C78.2,380.72,77.8,376.83,76.78,376.56z"/>
	<path class="st3" d="M92.65,383.78c-1.02-0.27-2.57,3.24-2.77,5s0.1,2.76,1.53,3.08c1.43,0.32,2.54-1.18,2.59-2.55
		C94.06,387.95,93.67,384.05,92.65,383.78z"/>
	<path class="st3" d="M113.98,383.92c-1.04-0.06-1.95,3.69-1.84,5.46s0.59,2.69,2.05,2.72c1.46,0.03,2.29-1.67,2.1-3.02
		C116.09,387.73,115.02,383.99,113.98,383.92z"/>
	<path class="st3" d="M131.2,375.14c-1.05,0.01-1.71,3.82-1.49,5.58c0.22,1.76,0.76,2.64,2.21,2.57c1.46-0.07,2.18-1.83,1.9-3.16
		C133.55,378.79,132.24,375.12,131.2,375.14z"/>
	<path class="st3" d="M136.68,398.56c-1.04-0.06-1.95,3.69-1.84,5.46s0.59,2.69,2.05,2.72s2.29-1.67,2.1-3.02
		C138.8,402.37,137.73,398.62,136.68,398.56z"/>
	<path class="st3" d="M121.91,408.77c-1.04-0.05-1.91,3.71-1.79,5.48c0.13,1.77,0.61,2.68,2.07,2.7s2.27-1.69,2.07-3.04
		C124.06,412.56,122.95,408.82,121.91,408.77z"/>
	<path class="st3" d="M103.04,410.75c-1.04-0.14-2.18,3.54-2.18,5.31s0.42,2.73,1.87,2.86c1.45,0.14,2.39-1.5,2.28-2.86
		C104.91,414.7,104.08,410.89,103.04,410.75z"/>
	<path class="st3" d="M85.18,406.81c-1.03-0.22-2.42,3.36-2.55,5.13c-0.12,1.77,0.22,2.75,1.66,3s2.49-1.31,2.48-2.67
		S86.21,407.03,85.18,406.81z"/>
	<path class="st3" d="M71.6,398.22c-1.03-0.22-2.43,3.36-2.56,5.12c-0.13,1.77,0.22,2.75,1.66,3s2.49-1.3,2.48-2.67
		S72.63,398.44,71.6,398.22z"/>
	<path class="st3" d="M120.13,354.53c-1.05-0.02-1.82,3.77-1.64,5.53s0.68,2.66,2.14,2.64c1.46-0.03,2.23-1.76,1.99-3.1
		C122.37,358.26,121.17,354.56,120.13,354.53z"/>
</g>
<g>
	<path class="st2" d="M194.67,198.23c0-4.55-9.98-8.24-22.3-8.24s-22.3,3.69-22.3,8.24c0,3.39,0,184.72,0,188.11
		c0,4.55,9.98,8.24,22.3,8.24s22.3-3.69,22.3-8.24C194.67,382.85,194.67,201.72,194.67,198.23z"/>
	<path class="st4" d="M155.14,205.82c1.87,1.68,3.49,5.13,6.13,5.56s5.68-4.31,7.91-2.37c2.23,1.94,2.82,6.98,6.29,6.89
		c3.47-0.09,3.65-4.95,5.68-4.95s3.79,7.44,5.48,7.32c2.2-0.16,2.26-9.2,4.46-9.26s3.73,4.44,4.26,1.08
		c1.22-7.75,1.62-12.28-1.42-15.94s-10.44-4.3-22.11-4.31s-17.85,2.15-20.69,5.17s-2.64,14-1.01,15.29
		C151.74,211.59,153.28,204.14,155.14,205.82z"/>
	<g>
		<path class="st2" d="M151.53,154.18c4.88-18.33,33.51-49.78,35.1-49.73c-4.45,29.37,11.63,46.23,9.2,61.16
			c-2.44,14.93-15.76,21.85-28.98,16.12C151.64,175.13,148.62,165.08,151.53,154.18z"/>
		<path class="st5" d="M172.91,145.02c0.51,5.13,2.35,10.1,5.27,14.23c1.34,1.9,2.91,3.64,3.86,5.79
			c4.94,11.17-3.81,24.73-14.53,15.03C156.78,170.37,172,155.64,172.91,145.02z"/>
		<path class="st6" d="M172.92,195.47c-1.42-3.45,2.04-6.73,3.79-10c2.29-4.29,1.43-10.21-1.99-13.56"/>
	</g>
</g>
<g>
	<path class="st7" d="M442.6,198.23c0-4.55-9.98-8.24-22.3-8.24c-12.32,0-22.3,3.69-22.3,8.24c0,3.39,0,184.72,0,188.11
		c0,4.55,9.98,8.24,22.3,8.24c12.32,0,22.3-3.69,22.3-8.24C442.6,382.85,442.6,201.72,442.6,198.23z"/>
	<path class="st8" d="M403.07,205.82c1.87,1.68,3.49,5.13,6.13,5.56s5.68-4.31,7.91-2.37s2.82,6.98,6.29,6.89s3.65-4.95,5.68-4.95
		s3.79,7.44,5.48,7.32c2.2-0.16,2.26-9.2,4.46-9.26s3.73,4.44,4.26,1.08c1.22-7.75,1.62-12.28-1.42-15.94s-10.44-4.3-22.11-4.31
		s-17.85,2.15-20.69,5.17s-2.64,14-1.01,15.29S401.21,204.14,403.07,205.82z"/>
	<g>
		<path class="st2" d="M399.46,154.18c4.88-18.33,33.51-49.78,35.1-49.73c-4.45,29.37,11.63,46.23,9.2,61.16
			c-2.44,14.93-15.76,21.85-28.98,16.12C399.57,175.13,396.55,165.08,399.46,154.18z"/>
		<path class="st5" d="M420.84,145.02c0.51,5.13,2.35,10.1,5.27,14.23c1.34,1.9,2.91,3.64,3.86,5.79
			c4.94,11.17-3.81,24.73-14.53,15.03C404.71,170.37,419.93,155.64,420.84,145.02z"/>
		<path class="st6" d="M420.85,195.47c-1.42-3.45,2.04-6.73,3.79-10c2.29-4.29,1.43-10.21-1.99-13.56"/>
	</g>
</g>
<g>
	<path class="st5" d="M317.75,198.23c0-4.55-9.98-8.24-22.3-8.24c-12.32,0-22.3,3.69-22.3,8.24c0,3.39,0,184.72,0,188.11
		c0,4.55,9.98,8.24,22.3,8.24c12.32,0,22.3-3.69,22.3-8.24C317.75,382.85,317.75,201.72,317.75,198.23z"/>
	<path class="st1" d="M278.22,205.82c1.87,1.68,3.49,5.13,6.13,5.56s5.68-4.31,7.91-2.37s2.82,6.98,6.29,6.89s3.65-4.95,5.68-4.95
		s3.79,7.44,5.48,7.32c2.2-0.16,2.26-9.2,4.46-9.26c2.2-0.06,3.73,4.44,4.26,1.08c1.22-7.75,1.62-12.28-1.42-15.94
		s-10.44-4.3-22.11-4.31c-11.67-0.01-17.85,2.15-20.69,5.17s-2.64,14-1.01,15.29S276.35,204.14,278.22,205.82z"/>
	<g>
		<path class="st2" d="M274.6,154.18c4.88-18.33,33.51-49.78,35.1-49.73c-4.45,29.37,11.63,46.23,9.2,61.16
			c-2.44,14.93-15.76,21.85-28.98,16.12C274.72,175.13,271.7,165.08,274.6,154.18z"/>
		<path class="st5" d="M295.99,145.02c0.51,5.13,2.35,10.1,5.27,14.23c1.34,1.9,2.91,3.64,3.86,5.79
			c4.94,11.17-3.81,24.73-14.53,15.03C279.86,170.37,295.08,155.64,295.99,145.02z"/>
		<path class="st6" d="M296,195.47c-1.42-3.45,2.04-6.73,3.79-10c2.29-4.29,1.43-10.21-1.99-13.56"/>
	</g>
</g>
<rect x="153.14" y="301.75" class="st9" width="284.56" height="116.34"/>
<g>
	<path class="st2" d="M178.82,439.07c-4.62,27.49,17.57,41.23,44.38,41.23s37.91-20.61,36.98-41.23S238,384.1,215.81,383.12
		C193.62,382.14,183.45,411.59,178.82,439.07z"/>
	<path class="st3" d="M216.27,413.41c-1.04-0.14-2.18,3.54-2.18,5.31s0.42,2.73,1.87,2.86c1.45,0.14,2.39-1.5,2.28-2.86
		C218.14,417.36,217.31,413.54,216.27,413.41z"/>
	<path class="st3" d="M199.77,405.46c-1.02-0.26-2.55,3.25-2.74,5.01s0.12,2.76,1.55,3.07s2.53-1.2,2.58-2.56
		C201.2,409.62,200.79,405.73,199.77,405.46z"/>
	<path class="st3" d="M213.85,395.92c-1.02-0.26-2.55,3.25-2.74,5.01s0.12,2.76,1.55,3.07c1.43,0.31,2.53-1.2,2.58-2.56
		S214.86,396.18,213.85,395.92z"/>
	<path class="st3" d="M190.51,425.67c-1.02-0.26-2.55,3.25-2.75,5.01c-0.19,1.76,0.11,2.76,1.54,3.07s2.53-1.19,2.58-2.56
		C191.94,429.83,191.53,425.94,190.51,425.67z"/>
	<path class="st3" d="M206.39,432.89c-1.02-0.27-2.57,3.24-2.77,5s0.1,2.76,1.53,3.08c1.43,0.32,2.54-1.18,2.59-2.55
		C207.79,437.06,207.4,433.16,206.39,432.89z"/>
	<path class="st3" d="M227.71,433.03c-1.04-0.06-1.95,3.69-1.84,5.46s0.59,2.69,2.05,2.72s2.29-1.67,2.1-3.02
		S228.75,433.09,227.71,433.03z"/>
	<path class="st3" d="M244.93,424.25c-1.05,0.01-1.71,3.82-1.49,5.58c0.22,1.76,0.76,2.64,2.21,2.57c1.46-0.07,2.18-1.83,1.9-3.16
		C247.28,427.9,245.98,424.23,244.93,424.25z"/>
	<path class="st3" d="M250.42,447.67c-1.04-0.06-1.95,3.69-1.84,5.46s0.59,2.69,2.05,2.72s2.29-1.67,2.1-3.02
		C252.53,451.48,251.46,447.73,250.42,447.67z"/>
	<path class="st3" d="M235.64,457.88c-1.04-0.05-1.91,3.71-1.79,5.48s0.61,2.68,2.07,2.7s2.27-1.69,2.07-3.04
		C237.79,461.67,236.69,457.93,235.64,457.88z"/>
	<path class="st3" d="M216.78,459.86c-1.04-0.14-2.18,3.54-2.18,5.31s0.42,2.73,1.87,2.86c1.45,0.14,2.39-1.5,2.28-2.86
		S217.81,459.99,216.78,459.86z"/>
	<path class="st3" d="M198.92,455.92c-1.03-0.22-2.42,3.36-2.55,5.13c-0.12,1.77,0.22,2.75,1.66,3s2.49-1.31,2.48-2.67
		C200.5,460.01,199.94,456.13,198.92,455.92z"/>
	<path class="st3" d="M185.34,447.33c-1.03-0.22-2.43,3.36-2.56,5.12c-0.13,1.77,0.22,2.75,1.66,3s2.49-1.3,2.48-2.67
		C186.91,451.42,186.36,447.55,185.34,447.33z"/>
	<path class="st3" d="M233.86,403.64c-1.05-0.02-1.82,3.77-1.64,5.53s0.68,2.66,2.14,2.64s2.23-1.76,1.99-3.1
		C236.11,407.37,234.9,403.66,233.86,403.64z"/>
</g>
<g>
	<path class="st2" d="M328.92,444.14c-4.62,27.49,17.57,41.23,44.38,41.23s37.91-20.61,36.98-41.23s-22.19-54.97-44.38-55.95
		C343.71,387.21,333.54,416.65,328.92,444.14z"/>
	<path class="st3" d="M366.36,418.47c-1.04-0.14-2.18,3.54-2.18,5.31s0.42,2.73,1.87,2.86c1.45,0.14,2.39-1.5,2.28-2.86
		C368.23,422.43,367.4,418.61,366.36,418.47z"/>
	<path class="st3" d="M349.87,410.53c-1.02-0.26-2.55,3.25-2.74,5.01s0.12,2.76,1.55,3.07s2.53-1.2,2.58-2.56
		C351.29,414.69,350.88,410.79,349.87,410.53z"/>
	<path class="st3" d="M363.94,400.99c-1.02-0.26-2.55,3.25-2.74,5.01s0.12,2.76,1.55,3.07s2.53-1.2,2.58-2.56
		C365.37,405.14,364.96,401.25,363.94,400.99z"/>
	<path class="st3" d="M340.61,430.74c-1.02-0.26-2.55,3.25-2.75,5.01c-0.19,1.76,0.11,2.76,1.54,3.07s2.53-1.19,2.58-2.56
		C342.03,434.9,341.62,431,340.61,430.74z"/>
	<path class="st3" d="M356.48,437.96c-1.02-0.27-2.57,3.24-2.77,5s0.1,2.76,1.53,3.08c1.43,0.32,2.54-1.18,2.59-2.55
		C357.89,442.12,357.5,438.23,356.48,437.96z"/>
	<path class="st3" d="M377.8,438.1c-1.04-0.06-1.95,3.69-1.84,5.46s0.59,2.69,2.05,2.72s2.29-1.67,2.1-3.02
		C379.92,441.91,378.85,438.16,377.8,438.1z"/>
	<path class="st3" d="M395.02,429.31c-1.05,0.01-1.71,3.82-1.49,5.58c0.22,1.76,0.76,2.64,2.21,2.57c1.46-0.07,2.18-1.83,1.9-3.16
		C397.37,432.96,396.07,429.3,395.02,429.31z"/>
	<path class="st3" d="M400.51,452.74c-1.04-0.06-1.95,3.69-1.84,5.46c0.11,1.77,0.59,2.69,2.05,2.72s2.29-1.67,2.1-3.02
		C402.63,456.54,401.56,452.8,400.51,452.74z"/>
	<path class="st3" d="M385.74,462.95c-1.04-0.05-1.91,3.71-1.79,5.48c0.13,1.77,0.61,2.68,2.07,2.7c1.46,0.02,2.27-1.69,2.07-3.04
		C387.89,466.74,386.78,463,385.74,462.95z"/>
	<path class="st3" d="M366.87,464.93c-1.04-0.14-2.18,3.54-2.18,5.31s0.42,2.73,1.87,2.86c1.45,0.14,2.39-1.5,2.28-2.86
		C368.74,468.88,367.91,465.06,366.87,464.93z"/>
	<path class="st3" d="M349.01,460.98c-1.03-0.22-2.42,3.36-2.55,5.13c-0.12,1.77,0.22,2.75,1.66,3s2.49-1.31,2.48-2.67
		C350.6,465.07,350.04,461.2,349.01,460.98z"/>
	<path class="st3" d="M335.43,452.4c-1.03-0.22-2.43,3.36-2.56,5.12c-0.13,1.77,0.22,2.75,1.66,3s2.49-1.3,2.48-2.67
		S336.46,452.62,335.43,452.4z"/>
	<path class="st3" d="M383.95,408.71c-1.05-0.02-1.82,3.77-1.64,5.53c0.17,1.76,0.68,2.66,2.14,2.64c1.46-0.03,2.23-1.76,1.99-3.1
		C386.2,412.43,385,408.73,383.95,408.71z"/>
</g>
</svg>
