<?xml version="1.0" encoding="utf-8"?>
<!-- Generator: Adobe Illustrator 25.3.1, SVG Export Plug-In . SVG Version: 6.00 Build 0)  -->
<svg version="1.1" id="裏面" xmlns="http://www.w3.org/2000/svg" xmlns:xlink="http://www.w3.org/1999/xlink" x="0px" y="0px"
	 viewBox="0 0 510.2 700.2" style="enable-background:new 0 0 510.2 700.2;" xml:space="preserve">
<style type="text/css">
	.st0{fill:#FACD93;}
	.st1{fill:#FFF9B1;}
	.st2{fill:#EB6120;}
	.st3{fill:#FFFFFF;}
	.st4{fill:#F5A200;}
	.st5{fill:#FFF100;}
	.st6{fill:none;stroke:#221714;stroke-width:3.6693;stroke-linecap:round;stroke-linejoin:round;stroke-miterlimit:10;}
	.st7{fill:#006FBC;}
	.st8{fill:#6BC8F2;}
	.st9{fill:#873A2B;}
</style>
<g>
	<path class="st0" d="M482.5,544.2c0-7.2,0-33.6,0-40.8c0-30.2-101.7-54.8-227.1-54.8S28.3,473.1,28.3,503.4c0,7.2,0,33.6,0,40.8
		c0,7.2,0,33.6,0,40.8c0,30.2,101.7,54.8,227.1,54.8s227.1-24.5,227.1-54.8C482.5,577.8,482.5,551.4,482.5,544.2z"/>
	<path class="st1" d="M482.5,486.2c0-30.2-101.7-54.8-227.1-54.8S28.3,456,28.3,486.2c0,7.2,0,33.6,0,40.8
		c0,30.2,101.7,54.8,227.1,54.8s227.1-24.5,227.1-54.8C482.5,519.8,482.5,493.4,482.5,486.2z"/>
	<path class="st0" d="M482.5,445.4c0-7.2,0-33.6,0-40.8c0-30.2-101.7-54.8-227.1-54.8S28.3,374.4,28.3,404.6c0,7.2,0,33.6,0,40.8
		s0,33.6,0,40.8c0,30.2,101.7,54.8,227.1,54.8s227.1-24.5,227.1-54.8C482.5,479,482.5,452.6,482.5,445.4z"/>
	<ellipse class="st1" cx="255.4" cy="404.6" rx="227.1" ry="54.8"/>
	<path class="st1" d="M84.4,471.7c22.8,8.8,38.9,38.8,54.5,39.9c15.6,1.1,32-18.1,49.3-20.2s30.3,33,63.2,32s35.4-24.4,51.9-23.5
		c18.3,1,33.8,18.1,54.5,14.9c20.8-3.2,42.3-40.8,63.2-41.6c20.9-0.7,34.7-0.1,53.7-14.9c13.3-10.4,21.2-47.1,19.7-70.4
		s-20.5-50-50-73.5s-81.4-26.6-111.6-28.8c-30.3-2.1-51.9,5.3-79.6,6.4s-56.2-7.5-84.8-6.4s-60.6,4.3-79.6,25.6
		c-19,21.3-56.9,28.8-67.5,46.9s-22.6,82.8,11.2,102.3C48.4,469.6,67.7,465.2,84.4,471.7z"/>
</g>
<g>
	<path class="st2" d="M399.6,332.3c-4.6,27.5,17.6,41.2,44.4,41.2c26.8,0,37.9-20.6,37-41.2c-0.9-20.6-22.2-55-44.4-56
		C414.4,275.3,404.3,304.8,399.6,332.3z"/>
	<path class="st3" d="M437.1,306.6c-1-0.1-2.2,3.5-2.2,5.3s0.4,2.7,1.9,2.9c1.5,0.1,2.4-1.5,2.3-2.9S438.1,306.7,437.1,306.6z"/>
	<path class="st3" d="M420.6,298.7c-1-0.3-2.5,3.2-2.7,5s0.1,2.8,1.5,3.1s2.5-1.2,2.6-2.6S421.6,298.9,420.6,298.7z"/>
	<path class="st3" d="M434.7,289.1c-1-0.3-2.5,3.2-2.7,5s0.1,2.8,1.5,3.1s2.5-1.2,2.6-2.6S435.7,289.4,434.7,289.1z"/>
	<path class="st3" d="M411.3,318.9c-1-0.3-2.5,3.2-2.8,5s0.1,2.8,1.5,3.1s2.5-1.2,2.6-2.6C412.7,323,412.3,319.1,411.3,318.9z"/>
	<path class="st3" d="M427.2,326.1c-1-0.3-2.6,3.2-2.8,5s0.1,2.8,1.5,3.1c1.4,0.3,2.5-1.2,2.6-2.5
		C428.6,330.3,428.2,326.4,427.2,326.1z"/>
	<path class="st3" d="M448.5,326.2c-1-0.1-2,3.7-1.8,5.5s0.6,2.7,2,2.7s2.3-1.7,2.1-3C450.6,330,449.6,326.3,448.5,326.2z"/>
	<path class="st3" d="M465.7,317.4c-1,0-1.7,3.8-1.5,5.6s0.8,2.6,2.2,2.6c1.5-0.1,2.2-1.8,1.9-3.2
		C468.1,321.1,466.8,317.4,465.7,317.4z"/>
	<path class="st3" d="M471.2,340.9c-1-0.1-2,3.7-1.8,5.5s0.6,2.7,2.1,2.7s2.3-1.7,2.1-3C473.3,344.7,472.3,340.9,471.2,340.9z"/>
	<path class="st3" d="M456.5,351.1c-1,0-1.9,3.7-1.8,5.5c0.1,1.8,0.6,2.7,2.1,2.7c1.5,0,2.3-1.7,2.1-3
		C458.6,354.9,457.5,351.1,456.5,351.1z"/>
	<path class="st3" d="M437.6,353.1c-1-0.1-2.2,3.5-2.2,5.3s0.4,2.7,1.9,2.9c1.5,0.1,2.4-1.5,2.3-2.9S438.6,353.2,437.6,353.1z"/>
	<path class="st3" d="M419.7,349.1c-1-0.2-2.4,3.4-2.5,5.1c-0.1,1.8,0.2,2.8,1.7,3s2.5-1.3,2.5-2.7
		C421.3,353.2,420.8,349.3,419.7,349.1z"/>
	<path class="st3" d="M406.1,340.5c-1-0.2-2.4,3.4-2.6,5.1c-0.1,1.8,0.2,2.8,1.7,3s2.5-1.3,2.5-2.7
		C407.7,344.6,407.2,340.8,406.1,340.5z"/>
	<path class="st3" d="M454.7,296.8c-1,0-1.8,3.8-1.6,5.5s0.7,2.7,2.1,2.6c1.5,0,2.2-1.8,2-3.1C456.9,300.6,455.7,296.9,454.7,296.8z
		"/>
</g>
<g>
	<path class="st2" d="M273.8,282.7c-4.6,27.5,17.6,41.2,44.4,41.2s37.9-20.6,37-41.2s-22.2-55-44.4-56
		C288.6,225.7,278.4,255.2,273.8,282.7z"/>
	<path class="st3" d="M311.2,257c-1-0.1-2.2,3.5-2.2,5.3s0.4,2.7,1.9,2.9c1.5,0.1,2.4-1.5,2.3-2.9S312.2,257.2,311.2,257z"/>
	<path class="st3" d="M294.7,249.1c-1-0.3-2.5,3.2-2.7,5s0.1,2.8,1.5,3.1s2.5-1.2,2.6-2.6C296.1,253.2,295.7,249.3,294.7,249.1z"/>
	<path class="st3" d="M308.8,239.5c-1-0.3-2.5,3.2-2.7,5s0.1,2.8,1.5,3.1s2.5-1.2,2.6-2.6S309.8,239.8,308.8,239.5z"/>
	<path class="st3" d="M285.5,269.3c-1-0.3-2.5,3.2-2.8,5c-0.2,1.8,0.1,2.8,1.5,3.1c1.4,0.3,2.5-1.2,2.6-2.6
		C286.9,273.4,286.5,269.5,285.5,269.3z"/>
	<path class="st3" d="M301.3,276.5c-1-0.3-2.6,3.2-2.8,5s0.1,2.8,1.5,3.1c1.4,0.3,2.5-1.2,2.6-2.5
		C302.7,280.7,302.3,276.8,301.3,276.5z"/>
	<path class="st3" d="M322.6,276.6c-1-0.1-2,3.7-1.8,5.5s0.6,2.7,2,2.7s2.3-1.7,2.1-3C324.8,280.5,323.7,276.7,322.6,276.6z"/>
	<path class="st3" d="M339.9,267.9c-1,0-1.7,3.8-1.5,5.6s0.8,2.6,2.2,2.6c1.5-0.1,2.2-1.8,1.9-3.2S340.9,267.8,339.9,267.9z"/>
	<path class="st3" d="M345.4,291.3c-1-0.1-2,3.7-1.8,5.5c0.1,1.8,0.6,2.7,2,2.7s2.3-1.7,2.1-3C347.5,295.1,346.4,291.3,345.4,291.3z
		"/>
	<path class="st3" d="M330.6,301.5c-1,0-1.9,3.7-1.8,5.5c0.1,1.8,0.6,2.7,2.1,2.7s2.3-1.7,2.1-3
		C332.7,305.3,331.6,301.5,330.6,301.5z"/>
	<path class="st3" d="M311.7,303.5c-1-0.1-2.2,3.5-2.2,5.3s0.4,2.7,1.9,2.9c1.5,0.1,2.4-1.5,2.3-2.9S312.8,303.6,311.7,303.5z"/>
	<path class="st3" d="M293.9,299.5c-1-0.2-2.4,3.4-2.5,5.1s0.2,2.8,1.7,3s2.5-1.3,2.5-2.7S294.9,299.7,293.9,299.5z"/>
	<path class="st3" d="M280.3,290.9c-1-0.2-2.4,3.4-2.6,5.1c-0.1,1.8,0.2,2.8,1.7,3s2.5-1.3,2.5-2.7
		C281.9,295,281.3,291.2,280.3,290.9z"/>
	<path class="st3" d="M328.8,247.3c-1,0-1.8,3.8-1.6,5.5s0.7,2.7,2.1,2.6c1.5,0,2.2-1.8,2-3.1C331,251,329.8,247.3,328.8,247.3z"/>
</g>
<g>
	<path class="st2" d="M155.3,281c-4.6,27.5,17.6,41.2,44.4,41.2s37.9-20.6,37-41.2s-22.2-55-44.4-56C170.1,224,160,253.5,155.3,281z
		"/>
	<path class="st3" d="M192.8,255.3c-1-0.1-2.2,3.5-2.2,5.3s0.4,2.7,1.9,2.9s2.4-1.5,2.3-2.9S193.8,255.4,192.8,255.3z"/>
	<path class="st3" d="M176.3,247.4c-1-0.3-2.6,3.2-2.7,5s0.1,2.8,1.6,3.1c1.4,0.3,2.5-1.2,2.6-2.6
		C177.7,251.5,177.3,247.6,176.3,247.4z"/>
	<path class="st3" d="M190.4,237.8c-1-0.3-2.6,3.2-2.7,5s0.1,2.8,1.6,3.1c1.4,0.3,2.5-1.2,2.6-2.6S191.4,238.1,190.4,237.8z"/>
	<path class="st3" d="M167,267.6c-1-0.3-2.6,3.2-2.8,5c-0.2,1.8,0.1,2.8,1.5,3.1s2.5-1.2,2.6-2.6C168.4,271.7,168,267.8,167,267.6z"
		/>
	<path class="st3" d="M182.9,274.8c-1-0.3-2.6,3.2-2.8,5s0.1,2.8,1.5,3.1c1.4,0.3,2.5-1.2,2.6-2.5
		C184.3,279,183.9,275.1,182.9,274.8z"/>
	<path class="st3" d="M204.2,274.9c-1-0.1-1.9,3.7-1.8,5.5s0.6,2.7,2.1,2.7s2.3-1.7,2.1-3C206.3,278.7,205.3,275,204.2,274.9z"/>
	<path class="st3" d="M221.4,266.1c-1,0-1.7,3.8-1.5,5.6c0.2,1.8,0.8,2.6,2.2,2.6c1.5-0.1,2.2-1.8,1.9-3.2
		C223.8,269.8,222.5,266.1,221.4,266.1z"/>
	<path class="st3" d="M226.9,289.6c-1-0.1-2,3.7-1.8,5.5c0.1,1.8,0.6,2.7,2,2.7s2.3-1.7,2.1-3C229,293.4,228,289.6,226.9,289.6z"/>
	<path class="st3" d="M212.1,299.8c-1,0-1.9,3.7-1.8,5.5s0.6,2.7,2.1,2.7c1.5,0,2.3-1.7,2.1-3C214.3,303.6,213.2,299.8,212.1,299.8z
		"/>
	<path class="st3" d="M193.3,301.8c-1-0.1-2.2,3.5-2.2,5.3s0.4,2.7,1.9,2.9c1.4,0.1,2.4-1.5,2.3-2.9S194.3,301.9,193.3,301.8z"/>
	<path class="st3" d="M175.4,297.8c-1-0.2-2.4,3.4-2.6,5.1c-0.1,1.8,0.2,2.8,1.7,3s2.5-1.3,2.5-2.7C177,301.9,176.4,298,175.4,297.8
		z"/>
	<path class="st3" d="M161.8,289.2c-1-0.2-2.4,3.4-2.6,5.1c-0.1,1.8,0.2,2.8,1.7,3s2.5-1.3,2.5-2.7S162.9,289.4,161.8,289.2z"/>
	<path class="st3" d="M210.4,245.5c-1.1,0-1.8,3.8-1.6,5.5s0.7,2.7,2.1,2.6c1.5,0,2.2-1.8,2-3.1
		C212.6,249.3,211.4,245.6,210.4,245.5z"/>
</g>
<g>
	<path class="st2" d="M22.6,329c-4.6,27.5,17.6,41.2,44.4,41.2s37.9-20.6,37-41.2c-0.9-20.6-22.2-55-44.4-56
		C37.4,272.1,27.2,301.5,22.6,329z"/>
	<path class="st3" d="M60,303.4c-1-0.1-2.2,3.5-2.2,5.3s0.4,2.7,1.9,2.9c1.4,0.1,2.4-1.5,2.3-2.9S61,303.5,60,303.4z"/>
	<path class="st3" d="M43.5,295.4c-1-0.3-2.6,3.2-2.7,5c-0.2,1.8,0.1,2.8,1.6,3.1s2.5-1.2,2.6-2.6C44.9,299.6,44.5,295.7,43.5,295.4
		z"/>
	<path class="st3" d="M57.6,285.9c-1-0.3-2.6,3.2-2.7,5c-0.2,1.8,0.1,2.8,1.6,3.1s2.5-1.2,2.6-2.6S58.6,286.1,57.6,285.9z"/>
	<path class="st3" d="M34.3,315.6c-1-0.3-2.6,3.2-2.8,5c-0.2,1.8,0.1,2.8,1.5,3.1s2.5-1.2,2.6-2.6C35.7,319.8,35.3,315.9,34.3,315.6
		z"/>
	<path class="st3" d="M50.1,322.8c-1-0.3-2.6,3.2-2.8,5s0.1,2.8,1.5,3.1c1.4,0.3,2.5-1.2,2.6-2.5C51.5,327,51.1,323.1,50.1,322.8z"
		/>
	<path class="st3" d="M71.5,323c-1-0.1-1.9,3.7-1.8,5.5s0.6,2.7,2.1,2.7c1.5,0,2.3-1.7,2.1-3C73.6,326.8,72.5,323,71.5,323z"/>
	<path class="st3" d="M88.7,314.2c-1.1,0-1.7,3.8-1.5,5.6c0.2,1.8,0.8,2.6,2.2,2.6c1.5-0.1,2.2-1.8,1.9-3.2
		C91,317.8,89.7,314.2,88.7,314.2z"/>
	<path class="st3" d="M94.2,337.6c-1-0.1-1.9,3.7-1.8,5.5s0.6,2.7,2.1,2.7s2.3-1.7,2.1-3C96.3,341.4,95.2,337.7,94.2,337.6z"/>
	<path class="st3" d="M79.4,347.8c-1,0-1.9,3.7-1.8,5.5c0.1,1.8,0.6,2.7,2.1,2.7s2.3-1.7,2.1-3C81.5,351.6,80.4,347.9,79.4,347.8z"
		/>
	<path class="st3" d="M60.5,349.8c-1-0.1-2.2,3.5-2.2,5.3s0.4,2.7,1.9,2.9c1.4,0.1,2.4-1.5,2.3-2.9
		C62.4,353.8,61.6,349.9,60.5,349.8z"/>
	<path class="st3" d="M42.7,345.9c-1-0.2-2.4,3.4-2.6,5.1c-0.1,1.8,0.2,2.8,1.7,3s2.5-1.3,2.5-2.7S43.7,346.1,42.7,345.9z"/>
	<path class="st3" d="M29.1,337.3c-1-0.2-2.4,3.4-2.6,5.1c-0.1,1.8,0.2,2.8,1.7,3s2.5-1.3,2.5-2.7S30.1,337.5,29.1,337.3z"/>
	<path class="st3" d="M77.6,293.6c-1.1,0-1.8,3.8-1.6,5.5s0.7,2.7,2.1,2.6c1.5,0,2.2-1.8,2-3.1C79.8,297.3,78.6,293.6,77.6,293.6z"
		/>
</g>
<g>
	<path class="st2" d="M152.1,137.3c0-4.6-10-8.2-22.3-8.2s-22.3,3.7-22.3,8.2c0,3.4,0,184.7,0,188.1c0,4.5,10,8.2,22.3,8.2
		s22.3-3.7,22.3-8.2C152.1,321.9,152.1,140.8,152.1,137.3z"/>
	<path class="st4" d="M112.6,144.9c1.9,1.7,3.5,5.1,6.1,5.6s5.7-4.3,7.9-2.4c2.2,1.9,2.8,7,6.3,6.9c3.5-0.1,3.6-4.9,5.7-4.9
		s3.8,7.4,5.5,7.3c2.2-0.2,2.3-9.2,4.5-9.3s3.7,4.4,4.3,1.1c1.2-7.8,1.6-12.3-1.4-15.9s-10.4-4.3-22.1-4.3s-17.8,2.1-20.7,5.2
		s-2.6,14-1,15.3C109.2,150.6,110.8,143.2,112.6,144.9z"/>
	<g>
		<path class="st2" d="M109,93.2c4.9-18.3,33.5-49.8,35.1-49.7c-4.4,29.4,11.6,46.2,9.2,61.2c-2.4,14.9-15.8,21.9-29,16.1
			C109.1,114.2,106.1,104.1,109,93.2z"/>
		<path class="st5" d="M130.4,84.1c0.5,5.1,2.4,10.1,5.3,14.2c1.3,1.9,2.9,3.6,3.9,5.8c4.9,11.2-3.8,24.7-14.5,15
			C114.3,109.4,129.5,94.7,130.4,84.1z"/>
		<path class="st6" d="M130.4,134.5c-1.4-3.4,2-6.7,3.8-10c2.3-4.3,1.4-10.2-2-13.6"/>
	</g>
</g>
<g>
	<path class="st7" d="M400.1,137.3c0-4.6-10-8.2-22.3-8.2c-12.3,0-22.3,3.7-22.3,8.2c0,3.4,0,184.7,0,188.1c0,4.5,10,8.2,22.3,8.2
		c12.3,0,22.3-3.7,22.3-8.2C400.1,321.9,400.1,140.8,400.1,137.3z"/>
	<path class="st8" d="M360.5,144.9c1.9,1.7,3.5,5.1,6.1,5.6s5.7-4.3,7.9-2.4s2.8,7,6.3,6.9s3.6-4.9,5.7-4.9s3.8,7.4,5.5,7.3
		c2.2-0.2,2.3-9.2,4.5-9.3s3.7,4.4,4.3,1.1c1.2-7.8,1.6-12.3-1.4-15.9s-10.4-4.3-22.1-4.3s-17.9,2.1-20.7,5.2s-2.6,14-1,15.3
		S358.7,143.2,360.5,144.9z"/>
	<g>
		<path class="st2" d="M356.9,93.2c4.9-18.3,33.5-49.8,35.1-49.7c-4.5,29.4,11.6,46.2,9.2,61.2c-2.4,14.9-15.8,21.9-29,16.1
			C357,114.2,354,104.1,356.9,93.2z"/>
		<path class="st5" d="M378.3,84.1c0.5,5.1,2.4,10.1,5.3,14.2c1.3,1.9,2.9,3.6,3.9,5.8c4.9,11.2-3.8,24.7-14.5,15
			C362.2,109.4,377.4,94.7,378.3,84.1z"/>
		<path class="st6" d="M378.3,134.5c-1.4-3.4,2-6.7,3.8-10c2.3-4.3,1.4-10.2-2-13.6"/>
	</g>
</g>
<g>
	<path class="st5" d="M275.2,137.3c0-4.6-10-8.2-22.3-8.2c-12.3,0-22.3,3.7-22.3,8.2c0,3.4,0,184.7,0,188.1c0,4.5,10,8.2,22.3,8.2
		c12.3,0,22.3-3.7,22.3-8.2C275.2,321.9,275.2,140.8,275.2,137.3z"/>
	<path class="st1" d="M235.7,144.9c1.9,1.7,3.5,5.1,6.1,5.6s5.7-4.3,7.9-2.4s2.8,7,6.3,6.9s3.6-4.9,5.7-4.9s3.8,7.4,5.5,7.3
		c2.2-0.2,2.3-9.2,4.5-9.3c2.2-0.1,3.7,4.4,4.3,1.1c1.2-7.8,1.6-12.3-1.4-15.9s-10.4-4.3-22.1-4.3c-11.7,0-17.9,2.1-20.7,5.2
		s-2.6,14-1,15.3S233.8,143.2,235.7,144.9z"/>
	<g>
		<path class="st2" d="M232.1,93.2c4.9-18.3,33.5-49.8,35.1-49.7c-4.5,29.4,11.6,46.2,9.2,61.2c-2.4,14.9-15.8,21.9-29,16.1
			C232.2,114.2,229.2,104.1,232.1,93.2z"/>
		<path class="st5" d="M253.5,84.1c0.5,5.1,2.4,10.1,5.3,14.2c1.3,1.9,2.9,3.6,3.9,5.8c4.9,11.2-3.8,24.7-14.5,15
			C237.3,109.4,252.6,94.7,253.5,84.1z"/>
		<path class="st6" d="M253.5,134.5c-1.4-3.4,2-6.7,3.8-10c2.3-4.3,1.4-10.2-2-13.6"/>
	</g>
</g>
<rect x="110.6" y="240.8" class="st9" width="284.6" height="116.3"/>
<g>
	<path class="st2" d="M136.3,378.1c-4.6,27.5,17.6,41.2,44.4,41.2s37.9-20.6,37-41.2s-22.2-55-44.4-56
		C151.1,321.2,140.9,350.6,136.3,378.1z"/>
	<path class="st3" d="M173.7,352.5c-1-0.1-2.2,3.5-2.2,5.3s0.4,2.7,1.9,2.9c1.4,0.1,2.4-1.5,2.3-2.9
		C175.6,356.4,174.8,352.6,173.7,352.5z"/>
	<path class="st3" d="M157.2,344.5c-1-0.3-2.6,3.2-2.7,5s0.1,2.8,1.6,3.1s2.5-1.2,2.6-2.6C158.7,348.7,158.3,344.8,157.2,344.5z"/>
	<path class="st3" d="M171.3,335c-1-0.3-2.6,3.2-2.7,5s0.1,2.8,1.6,3.1c1.4,0.3,2.5-1.2,2.6-2.6S172.3,335.2,171.3,335z"/>
	<path class="st3" d="M148,364.7c-1-0.3-2.6,3.2-2.8,5c-0.2,1.8,0.1,2.8,1.5,3.1s2.5-1.2,2.6-2.6C149.4,368.9,149,365,148,364.7z"/>
	<path class="st3" d="M163.9,371.9c-1-0.3-2.6,3.2-2.8,5s0.1,2.8,1.5,3.1c1.4,0.3,2.5-1.2,2.6-2.5
		C165.3,376.1,164.9,372.2,163.9,371.9z"/>
	<path class="st3" d="M185.2,372.1c-1-0.1-1.9,3.7-1.8,5.5s0.6,2.7,2.1,2.7s2.3-1.7,2.1-3S186.2,372.1,185.2,372.1z"/>
	<path class="st3" d="M202.4,363.3c-1.1,0-1.7,3.8-1.5,5.6c0.2,1.8,0.8,2.6,2.2,2.6c1.5-0.1,2.2-1.8,1.9-3.2
		C204.8,367,203.5,363.3,202.4,363.3z"/>
	<path class="st3" d="M207.9,386.7c-1-0.1-1.9,3.7-1.8,5.5s0.6,2.7,2.1,2.7s2.3-1.7,2.1-3C210,390.5,208.9,386.8,207.9,386.7z"/>
	<path class="st3" d="M193.1,396.9c-1,0-1.9,3.7-1.8,5.5s0.6,2.7,2.1,2.7s2.3-1.7,2.1-3C195.3,400.7,194.2,397,193.1,396.9z"/>
	<path class="st3" d="M174.3,398.9c-1-0.1-2.2,3.5-2.2,5.3s0.4,2.7,1.9,2.9c1.4,0.1,2.4-1.5,2.3-2.9S175.3,399,174.3,398.9z"/>
	<path class="st3" d="M156.4,395c-1-0.2-2.4,3.4-2.6,5.1c-0.1,1.8,0.2,2.8,1.7,3s2.5-1.3,2.5-2.7C158,399.1,157.4,395.2,156.4,395z"
		/>
	<path class="st3" d="M142.8,386.4c-1-0.2-2.4,3.4-2.6,5.1c-0.1,1.8,0.2,2.8,1.7,3s2.5-1.3,2.5-2.7
		C144.4,390.5,143.8,386.6,142.8,386.4z"/>
	<path class="st3" d="M191.3,342.7c-1.1,0-1.8,3.8-1.6,5.5s0.7,2.7,2.1,2.6s2.2-1.8,2-3.1C193.6,346.4,192.4,342.7,191.3,342.7z"/>
</g>
<g>
	<path class="st2" d="M286.4,383.2c-4.6,27.5,17.6,41.2,44.4,41.2s37.9-20.6,37-41.2s-22.2-55-44.4-56
		C301.2,326.3,291,355.7,286.4,383.2z"/>
	<path class="st3" d="M323.8,357.5c-1-0.1-2.2,3.5-2.2,5.3s0.4,2.7,1.9,2.9c1.5,0.1,2.4-1.5,2.3-2.9
		C325.7,361.5,324.9,357.7,323.8,357.5z"/>
	<path class="st3" d="M307.3,349.6c-1-0.3-2.5,3.2-2.7,5s0.1,2.8,1.5,3.1s2.5-1.2,2.6-2.6C308.8,353.7,308.4,349.8,307.3,349.6z"/>
	<path class="st3" d="M321.4,340c-1-0.3-2.5,3.2-2.7,5s0.1,2.8,1.5,3.1s2.5-1.2,2.6-2.6C322.8,344.2,322.4,340.3,321.4,340z"/>
	<path class="st3" d="M298.1,369.8c-1-0.3-2.5,3.2-2.8,5c-0.2,1.8,0.1,2.8,1.5,3.1s2.5-1.2,2.6-2.6
		C299.5,374,299.1,370.1,298.1,369.8z"/>
	<path class="st3" d="M314,377c-1-0.3-2.6,3.2-2.8,5s0.1,2.8,1.5,3.1c1.4,0.3,2.5-1.2,2.6-2.5C315.4,381.2,315,377.3,314,377z"/>
	<path class="st3" d="M335.3,377.2c-1-0.1-2,3.7-1.8,5.5s0.6,2.7,2,2.7s2.3-1.7,2.1-3C337.4,381,336.3,377.2,335.3,377.2z"/>
	<path class="st3" d="M352.5,368.4c-1,0-1.7,3.8-1.5,5.6c0.2,1.8,0.8,2.6,2.2,2.6c1.5-0.1,2.2-1.8,1.9-3.2
		C354.8,372,353.5,368.4,352.5,368.4z"/>
	<path class="st3" d="M358,391.8c-1-0.1-2,3.7-1.8,5.5c0.1,1.8,0.6,2.7,2,2.7s2.3-1.7,2.1-3C360.1,395.6,359,391.9,358,391.8z"/>
	<path class="st3" d="M343.2,402c-1,0-1.9,3.7-1.8,5.5c0.1,1.8,0.6,2.7,2.1,2.7c1.5,0,2.3-1.7,2.1-3
		C345.4,405.8,344.3,402.1,343.2,402z"/>
	<path class="st3" d="M324.3,404c-1-0.1-2.2,3.5-2.2,5.3s0.4,2.7,1.9,2.9c1.5,0.1,2.4-1.5,2.3-2.9
		C326.2,407.9,325.4,404.1,324.3,404z"/>
	<path class="st3" d="M306.5,400c-1-0.2-2.4,3.4-2.5,5.1c-0.1,1.8,0.2,2.8,1.7,3s2.5-1.3,2.5-2.7C308.1,404.1,307.5,400.3,306.5,400
		z"/>
	<path class="st3" d="M292.9,391.5c-1-0.2-2.4,3.4-2.6,5.1c-0.1,1.8,0.2,2.8,1.7,3s2.5-1.3,2.5-2.7S293.9,391.7,292.9,391.5z"/>
	<path class="st3" d="M341.4,347.8c-1,0-1.8,3.8-1.6,5.5c0.2,1.8,0.7,2.7,2.1,2.6c1.5,0,2.2-1.8,2-3.1
		C343.7,351.5,342.5,347.8,341.4,347.8z"/>
</g>
</svg>
