<?xml version="1.0" encoding="utf-8"?>
<!-- Generator: Adobe Illustrator 25.3.1, SVG Export Plug-In . SVG Version: 6.00 Build 0)  -->
<svg version="1.1" id="レイヤー_1" xmlns="http://www.w3.org/2000/svg" xmlns:xlink="http://www.w3.org/1999/xlink" x="0px"
	 y="0px" viewBox="0 0 45.35 45.35" style="enable-background:new 0 0 45.35 45.35;" xml:space="preserve">
<style type="text/css">
	.st0{fill:#FFFFFF;}
</style>
<g id="背景">
	<g>
		<rect y="0" class="st0" width="45.35" height="45.35"/>
	</g>
</g>
<g id="futago">
	<g>
		<path d="M34.25,34.67c-3.43-0.49-7.29-0.73-11.57-0.73c-4.3,0-8.16,0.24-11.57,0.73v-1.99c0.92-0.15,2.49-0.3,4.7-0.44V12.78
			c-2.33-0.19-3.89-0.36-4.7-0.49V10.3c3.42,0.49,7.27,0.73,11.57,0.73c4.29,0,8.15-0.24,11.57-0.73v1.99
			c-0.75,0.14-2.32,0.3-4.72,0.49v19.46c2.16,0.14,3.73,0.28,4.72,0.44V34.67z M27.44,32.09v-19.2c-1.4,0.09-2.98,0.14-4.77,0.14
			c-1.15,0-2.74-0.05-4.78-0.14v19.2c1.4-0.09,2.99-0.14,4.78-0.14C23.81,31.95,25.4,32,27.44,32.09z"/>
		<g>
			<path d="M9.35,4.5c0.21,0,0.32,0.11,0.32,0.34c0,0.08-0.05,0.19-0.15,0.31L8.59,6.44L8.36,6.78C8.22,7,8.08,7.11,7.95,7.11
				c-0.25,0-0.38-0.12-0.38-0.38c0-0.12,0.1-0.31,0.3-0.56c0.2-0.25,0.4-0.53,0.61-0.82C8.69,5.06,8.87,4.84,9.01,4.7
				C9.15,4.57,9.27,4.5,9.35,4.5z M9.61,6.03c0.09,0,0.22,0.08,0.37,0.23c0.27,0.28,0.57,0.42,0.91,0.42c0.61,0,0.91-0.33,0.91-1
				c0-0.87-0.57-1.54-1.71-2.01c-0.22-0.09-0.33-0.2-0.33-0.34c0-0.23,0.12-0.35,0.36-0.35c0.33,0,0.82,0.25,1.48,0.76
				s0.98,1.16,0.98,1.98c0,0.54-0.15,0.96-0.46,1.26s-0.7,0.45-1.18,0.45c-0.42,0-0.8-0.13-1.15-0.38C9.44,6.79,9.27,6.57,9.27,6.37
				C9.27,6.14,9.38,6.03,9.61,6.03z M10.02,0.78c0.24,0,0.71,0.11,1.41,0.32s1.05,0.42,1.05,0.63c0,0.1-0.04,0.19-0.13,0.27
				s-0.18,0.11-0.28,0.11c-0.05,0-0.3-0.09-0.75-0.27s-0.86-0.3-1.24-0.36c-0.3-0.06-0.45-0.17-0.45-0.35
				C9.62,0.9,9.75,0.78,10.02,0.78z M13.34,4.15c0.11,0,0.25,0.09,0.4,0.28s0.36,0.54,0.61,1.06c0.26,0.52,0.39,0.85,0.39,0.98
				c0,0.28-0.14,0.41-0.41,0.41c-0.18,0-0.32-0.13-0.41-0.39c-0.15-0.43-0.4-0.95-0.75-1.55c-0.13-0.22-0.2-0.38-0.2-0.46
				C12.98,4.26,13.1,4.15,13.34,4.15z"/>
			<path d="M18.03,2.29l-0.01,0.02c-0.33,1.39-0.75,2.75-1.23,4.07c-0.27,0.73-0.51,1.1-0.73,1.1c-0.26,0-0.39-0.12-0.39-0.38
				c0-0.08,0.1-0.32,0.29-0.73C16.56,5,17,3.63,17.29,2.29h-1.37c-0.27,0-0.41-0.11-0.41-0.33s0.14-0.34,0.41-0.34h1.51l0.11-0.55
				c0.05-0.29,0.18-0.44,0.4-0.44c0.23,0,0.34,0.11,0.34,0.33l-0.12,0.66h2.09c0.28,0,0.41,0.11,0.41,0.34
				c0,0.22-0.14,0.33-0.41,0.33H18.03z M21.89,6.66c0.26,0,0.39,0.12,0.39,0.35c0,0.18-0.1,0.3-0.3,0.36
				c-0.2,0.06-0.59,0.09-1.16,0.09c-1.68,0-2.52-0.47-2.52-1.41c0-0.27,0.05-0.51,0.14-0.72c0.1-0.21,0.23-0.31,0.39-0.31
				c0.21,0,0.31,0.09,0.31,0.27l-0.09,0.32C19.02,5.76,19,5.89,19,6.01c0,0.48,0.64,0.73,1.92,0.73L21.89,6.66z M21.61,3.08
				c0.32,0,0.48,0.12,0.48,0.37s-0.15,0.38-0.46,0.38L20.9,3.81c-0.58,0-1.08,0.05-1.48,0.15L19.16,4c-0.19,0-0.28-0.1-0.28-0.3
				C18.88,3.29,19.79,3.08,21.61,3.08z"/>
			<path d="M28.82,6.51c0.26,0,0.39,0.12,0.39,0.37c0,0.22-0.15,0.36-0.45,0.42s-0.83,0.1-1.61,0.11H26.8
				c-1.13,0-1.98-0.14-2.54-0.43c-0.57-0.28-0.85-0.71-0.85-1.28c0-0.5,0.14-0.89,0.41-1.16c0.1-0.1,0.21-0.15,0.32-0.15
				c0.24,0,0.36,0.11,0.36,0.32c0,0.05-0.05,0.17-0.16,0.34c-0.11,0.18-0.16,0.36-0.16,0.54c0,0.26,0.09,0.46,0.26,0.61
				s0.46,0.26,0.84,0.34c0.39,0.08,0.88,0.12,1.47,0.12L28.82,6.51z M28.49,2.07C28.44,2.29,28.31,2.4,28.1,2.4
				c-0.08,0-0.19-0.02-0.32-0.05c-0.68-0.19-1.4-0.29-2.18-0.29l-0.38,0.02L24.24,2.2c-0.21,0-0.32-0.11-0.32-0.34
				c0-0.21,0.13-0.35,0.39-0.42c0.26-0.07,0.79-0.11,1.58-0.11c0.9,0,1.65,0.09,2.25,0.28C28.16,1.85,28.27,2,28.49,2.07z
				 M28.36,0.89c0-0.19,0.09-0.29,0.27-0.29s0.27,0.1,0.27,0.29V1.6c0,0.19-0.09,0.28-0.27,0.28s-0.27-0.09-0.27-0.28V0.89z
				 M29.24,0.89c0-0.19,0.09-0.29,0.27-0.29s0.27,0.1,0.27,0.29V1.6c0,0.19-0.09,0.28-0.27,0.28s-0.27-0.09-0.27-0.28V0.89z"/>
			<path d="M33.86,1.25V0.79c0-0.2,0.12-0.3,0.37-0.3c0.24,0,0.37,0.1,0.37,0.3v0.45h2.62c0.24,0,0.36,0.1,0.36,0.3
				s-0.12,0.3-0.36,0.3h-5.25c-0.23,0-0.34,0.11-0.34,0.34l0.02,1.3c0,1.33-0.1,2.36-0.3,3.09s-0.43,1.1-0.68,1.1
				c-0.23,0-0.35-0.12-0.35-0.35c0-0.08,0.04-0.19,0.12-0.34c0.37-0.7,0.55-1.94,0.55-3.7L30.97,2c0-0.49,0.26-0.74,0.78-0.74
				L33.86,1.25L33.86,1.25z M34.87,5.9v0.98h2.41c0.25,0,0.38,0.1,0.38,0.31c0,0.2-0.12,0.3-0.38,0.3H31.9
				c-0.25,0-0.38-0.1-0.38-0.3c0-0.21,0.12-0.31,0.38-0.31h2.34V5.9h-1.8c-0.25,0-0.37-0.1-0.37-0.3c0-0.2,0.12-0.3,0.37-0.3h1.8
				V2.43c0-0.25,0.11-0.38,0.32-0.38s0.31,0.13,0.31,0.38V5.3h1.86c0.24,0,0.37,0.1,0.37,0.3c0,0.2-0.12,0.3-0.37,0.3
				C36.73,5.9,34.87,5.9,34.87,5.9z M33.03,3.33c0.68,0.65,1.02,1.08,1.02,1.29s-0.1,0.31-0.31,0.31c-0.11,0-0.21-0.08-0.31-0.25
				c-0.12-0.21-0.32-0.49-0.59-0.84C32.51,4.62,32.24,5,32.04,5c-0.19,0-0.29-0.1-0.29-0.3c0-0.08,0.05-0.19,0.14-0.31
				c0.31-0.45,0.58-1.08,0.81-1.89c0.05-0.19,0.15-0.28,0.3-0.28c0.2,0,0.3,0.1,0.3,0.3C33.3,2.58,33.21,2.85,33.03,3.33z
				 M36.37,3.31c0.82,0.74,1.23,1.2,1.23,1.37c0,0.21-0.11,0.31-0.32,0.31c-0.1,0-0.21-0.09-0.34-0.27
				c-0.27-0.35-0.53-0.65-0.77-0.91c-0.35,0.76-0.63,1.14-0.84,1.14c-0.19,0-0.29-0.1-0.29-0.3c0-0.07,0.04-0.16,0.12-0.27
				c0.34-0.48,0.62-1.1,0.82-1.84c0.06-0.21,0.17-0.32,0.34-0.32c0.2,0,0.3,0.1,0.3,0.29C36.62,2.59,36.54,2.86,36.37,3.31z"/>
			<path d="M4.97,40.74c0.29-0.38,0.64-0.56,1.07-0.56c0.43,0,0.77,0.18,1.01,0.54c0.24,0.36,0.36,0.84,0.36,1.44
				c0,1.39-0.57,2.09-1.72,2.09c-0.64,0-1.1-0.24-1.38-0.72c-0.14-0.23-0.2-0.42-0.2-0.59c0-0.27,0.12-0.41,0.36-0.41
				c0.19,0,0.34,0.18,0.46,0.54s0.38,0.54,0.77,0.54c0.65,0,0.97-0.49,0.97-1.48c0-0.91-0.25-1.37-0.75-1.37
				c-0.38,0-0.67,0.26-0.86,0.78C5,41.72,4.87,41.8,4.68,41.8c-0.27,0-0.4-0.16-0.4-0.48v-2.43c0-0.18,0.06-0.34,0.2-0.47
				c0.13-0.13,0.29-0.2,0.47-0.2H6.9c0.25,0,0.38,0.11,0.38,0.32s-0.12,0.32-0.38,0.32H5.22c-0.17,0-0.26,0.08-0.25,0.25V40.74z"/>
			<path d="M10.9,37.5c0.19,0,0.28,0.09,0.28,0.27c0,0.05-0.02,0.11-0.05,0.18l-2.7,6.68c-0.06,0.16-0.16,0.23-0.29,0.23
				c-0.19,0-0.28-0.09-0.28-0.27c0-0.05,0.01-0.11,0.04-0.18l2.7-6.68C10.67,37.58,10.77,37.5,10.9,37.5z"/>
			<path d="M12.48,43.51h2.03c0.25,0,0.38,0.1,0.38,0.31c0,0.21-0.13,0.31-0.38,0.31h-2.35c-0.35,0-0.53-0.15-0.53-0.45
				c0-0.14,0.15-0.38,0.45-0.72c0.81-0.92,1.39-1.68,1.74-2.3c0.18-0.32,0.27-0.66,0.27-1c0-0.27-0.07-0.49-0.22-0.66
				c-0.15-0.17-0.33-0.25-0.55-0.25c-0.45,0-0.72,0.28-0.81,0.84c-0.05,0.3-0.19,0.45-0.42,0.45c-0.26,0-0.38-0.13-0.38-0.38
				c0-0.17,0.05-0.37,0.16-0.61c0.29-0.62,0.78-0.93,1.48-0.93c0.46,0,0.83,0.14,1.11,0.42s0.43,0.62,0.43,1.03
				c0,0.69-0.48,1.63-1.44,2.8L12.48,43.51z"/>
			<path d="M16.97,39.22c-0.26,0.31-0.48,0.46-0.65,0.46c-0.26,0-0.38-0.12-0.38-0.38c0-0.14,0.09-0.26,0.27-0.37
				c0.21-0.14,0.46-0.37,0.77-0.7c0.08-0.09,0.18-0.13,0.3-0.13c0.3,0,0.45,0.15,0.45,0.45v5.21c0,0.31-0.13,0.46-0.38,0.46
				s-0.38-0.15-0.38-0.46C16.97,43.76,16.97,39.22,16.97,39.22z"/>
			<path d="M25.69,40.35c0.21,0,0.31,0.11,0.31,0.33c0,0.12-0.14,0.34-0.41,0.63c-0.48,0.53-1.05,0.8-1.71,0.8
				c-0.28,0-0.55-0.06-0.82-0.19L22,41.2c-0.29-0.2-0.57-0.3-0.83-0.3c-0.34,0-0.66,0.12-0.97,0.38c-0.09,0.07-0.27,0.27-0.54,0.59
				c-0.08,0.1-0.17,0.15-0.26,0.15c-0.21,0-0.31-0.11-0.31-0.32c0-0.09,0.08-0.24,0.25-0.45c0.53-0.67,1.16-1,1.88-1
				c0.31,0,0.64,0.11,0.99,0.34l0.9,0.59c0.27,0.18,0.53,0.27,0.78,0.27c0.44,0,0.83-0.19,1.19-0.56l0.34-0.38
				C25.51,40.4,25.6,40.35,25.69,40.35z"/>
			<path d="M27.62,40.81c0.34-0.44,0.74-0.66,1.21-0.66c0.42,0,0.74,0.18,0.98,0.54c0.23,0.36,0.35,0.83,0.35,1.43
				c0,0.65-0.14,1.17-0.43,1.55s-0.68,0.57-1.18,0.57c-1.13,0-1.7-0.96-1.7-2.88c0-2.17,0.63-3.25,1.88-3.25
				c0.57,0,0.98,0.25,1.23,0.74c0.1,0.2,0.16,0.37,0.16,0.5c0,0.24-0.12,0.36-0.37,0.36c-0.2,0-0.33-0.13-0.39-0.38
				c-0.09-0.42-0.31-0.62-0.66-0.62C28.07,38.71,27.7,39.41,27.62,40.81z M27.6,41.59c0,1.37,0.31,2.05,0.92,2.05
				c0.58,0,0.88-0.5,0.88-1.49c0-0.94-0.25-1.41-0.73-1.41C28.27,40.75,27.92,41.03,27.6,41.59z"/>
			<path d="M33.63,37.5c0.19,0,0.28,0.09,0.28,0.27c0,0.05-0.02,0.11-0.05,0.18l-2.7,6.68c-0.06,0.16-0.16,0.23-0.29,0.23
				c-0.19,0-0.28-0.09-0.28-0.27c0-0.05,0.01-0.11,0.04-0.18l2.7-6.68C33.41,37.58,33.5,37.5,33.63,37.5z"/>
			<path d="M35.22,43.51h2.03c0.25,0,0.38,0.1,0.38,0.31c0,0.21-0.13,0.31-0.38,0.31H34.9c-0.35,0-0.53-0.15-0.53-0.45
				c0-0.14,0.15-0.38,0.45-0.72c0.81-0.92,1.39-1.68,1.74-2.3c0.18-0.32,0.27-0.66,0.27-1c0-0.27-0.07-0.49-0.22-0.66
				s-0.33-0.25-0.55-0.25c-0.45,0-0.72,0.28-0.81,0.84c-0.05,0.3-0.19,0.45-0.42,0.45c-0.26,0-0.38-0.13-0.38-0.38
				c0-0.17,0.05-0.37,0.16-0.61c0.29-0.62,0.78-0.93,1.48-0.93c0.46,0,0.83,0.14,1.11,0.42s0.43,0.62,0.43,1.03
				c0,0.69-0.48,1.63-1.44,2.8L35.22,43.51z"/>
			<path d="M39.71,39.22c-0.26,0.31-0.48,0.46-0.65,0.46c-0.26,0-0.38-0.12-0.38-0.38c0-0.14,0.09-0.26,0.27-0.37
				c0.21-0.14,0.46-0.37,0.77-0.7c0.08-0.09,0.18-0.13,0.3-0.13c0.3,0,0.45,0.15,0.45,0.45v5.21c0,0.31-0.13,0.46-0.38,0.46
				s-0.38-0.15-0.38-0.46C39.71,43.76,39.71,39.22,39.71,39.22z"/>
		</g>
	</g>
</g>
</svg>
