<?xml version="1.0" encoding="utf-8"?>
<!-- Generator: Adobe Illustrator 25.3.1, SVG Export Plug-In . SVG Version: 6.00 Build 0)  -->
<svg version="1.1" id="レイヤー_1" xmlns="http://www.w3.org/2000/svg" xmlns:xlink="http://www.w3.org/1999/xlink" x="0px"
	 y="0px" viewBox="0 0 45.35 45.35" style="enable-background:new 0 0 45.35 45.35;" xml:space="preserve">
<style type="text/css">
	.st0{fill:#FFFFFF;}
</style>
<g id="背景">
	<g>
		<rect y="0" class="st0" width="45.35" height="45.35"/>
	</g>
</g>
<g id="ite">
	<g>
		<path d="M33.86,22.04h-2.09v-7.15l-8.84,8.84l4.58,4.56l-1.5,1.5l-4.58-4.56l-9.45,9.45l-1.5-1.5l9.45-9.45l-4.6-4.6l1.5-1.5
			l4.6,4.6l8.84-8.84h-7.18V11.3h10.77V22.04z"/>
		<g>
			<path d="M14.73,5.06c0.25,0,0.38,0.12,0.38,0.36c0,0.33-0.14,0.74-0.41,1.23c-0.27,0.49-0.62,0.73-1.05,0.73
				c-0.49,0-0.89-0.34-1.21-1.03s-0.48-1.72-0.48-3.1l0.02-1.23c-0.01-0.48,0.13-0.72,0.4-0.72c0.24,0,0.36,0.13,0.36,0.38
				l-0.02,0.48L12.7,2.69c0,1.27,0.08,2.21,0.23,2.85s0.39,0.95,0.7,0.95c0.28,0,0.51-0.33,0.68-1C14.39,5.2,14.53,5.06,14.73,5.06z
				 M16.94,1.58c0.18,0,0.42,0.27,0.71,0.8c0.29,0.53,0.53,1.11,0.7,1.74s0.26,1.05,0.26,1.26c0,0.29-0.14,0.43-0.41,0.43
				c-0.21,0-0.34-0.16-0.38-0.49c-0.05-0.45-0.17-0.97-0.36-1.56s-0.39-1.03-0.59-1.3C16.68,2.18,16.59,2,16.59,1.91
				C16.59,1.68,16.7,1.58,16.94,1.58z"/>
			<path d="M23.38,2.15L19.54,2.3h-0.07c-0.26-0.01-0.39-0.13-0.39-0.36c0-0.22,0.14-0.34,0.41-0.35l6.04-0.2
				c0.21-0.01,0.31,0.1,0.31,0.32c0,0.13-0.06,0.22-0.17,0.28c-0.08,0.05-0.31,0.09-0.69,0.12c-0.66,0.06-1.29,0.36-1.9,0.9
				s-0.92,1.15-0.92,1.83c0,0.47,0.19,0.88,0.57,1.22c0.38,0.35,0.86,0.58,1.45,0.71c0.28,0.06,0.42,0.19,0.42,0.39
				c0,0.27-0.14,0.41-0.41,0.41c-0.19,0-0.49-0.08-0.91-0.24c-1.26-0.49-1.88-1.29-1.88-2.39c0-0.55,0.19-1.08,0.56-1.6
				C22.33,2.81,22.8,2.42,23.38,2.15z"/>
			<path d="M29.96,1.25V0.79c0-0.2,0.12-0.3,0.37-0.3c0.24,0,0.37,0.1,0.37,0.3v0.45h2.62c0.24,0,0.36,0.1,0.36,0.3
				s-0.12,0.3-0.36,0.3h-5.25c-0.23,0-0.34,0.11-0.34,0.34l0.02,1.3c0,1.33-0.1,2.36-0.3,3.09s-0.43,1.1-0.68,1.1
				c-0.23,0-0.35-0.12-0.35-0.35c0-0.08,0.04-0.19,0.12-0.34c0.37-0.7,0.55-1.94,0.55-3.7L27.07,2c0-0.49,0.26-0.74,0.78-0.74
				L29.96,1.25L29.96,1.25z M30.97,5.9v0.98h2.41c0.25,0,0.38,0.1,0.38,0.31c0,0.2-0.12,0.3-0.38,0.3H28c-0.25,0-0.38-0.1-0.38-0.3
				c0-0.21,0.12-0.31,0.38-0.31h2.34V5.9h-1.8c-0.25,0-0.37-0.1-0.37-0.3c0-0.2,0.12-0.3,0.37-0.3h1.8V2.43
				c0-0.25,0.11-0.38,0.32-0.38s0.31,0.13,0.31,0.38V5.3h1.86c0.24,0,0.37,0.1,0.37,0.3c0,0.2-0.12,0.3-0.37,0.3
				C32.83,5.9,30.97,5.9,30.97,5.9z M29.13,3.33c0.68,0.65,1.02,1.08,1.02,1.29s-0.1,0.31-0.31,0.31c-0.11,0-0.21-0.08-0.31-0.25
				c-0.12-0.21-0.32-0.49-0.59-0.84C28.61,4.62,28.34,5,28.14,5c-0.19,0-0.29-0.1-0.29-0.3c0-0.08,0.05-0.19,0.14-0.31
				c0.31-0.45,0.58-1.08,0.81-1.89c0.05-0.19,0.15-0.28,0.3-0.28c0.2,0,0.3,0.1,0.3,0.3C29.4,2.58,29.31,2.85,29.13,3.33z
				 M32.48,3.31c0.82,0.74,1.23,1.2,1.23,1.37c0,0.21-0.11,0.31-0.32,0.31c-0.1,0-0.21-0.09-0.34-0.27
				c-0.27-0.35-0.53-0.65-0.77-0.91c-0.35,0.76-0.63,1.14-0.84,1.14c-0.19,0-0.29-0.1-0.29-0.3c0-0.07,0.04-0.16,0.12-0.27
				c0.34-0.48,0.62-1.1,0.82-1.84c0.06-0.21,0.17-0.32,0.34-0.32c0.2,0,0.3,0.1,0.3,0.29C32.73,2.59,32.64,2.86,32.48,3.31z"/>
			<path d="M2.38,39.22c-0.26,0.31-0.48,0.46-0.65,0.46c-0.26,0-0.38-0.12-0.38-0.38c0-0.14,0.09-0.26,0.27-0.37
				c0.21-0.14,0.46-0.37,0.77-0.7c0.08-0.09,0.18-0.13,0.3-0.13c0.3,0,0.45,0.15,0.45,0.45v5.21c0,0.31-0.13,0.46-0.38,0.46
				s-0.38-0.15-0.38-0.46V39.22z"/>
			<path d="M5.72,39.22c-0.26,0.31-0.48,0.46-0.65,0.46c-0.26,0-0.38-0.12-0.38-0.38c0-0.14,0.09-0.26,0.27-0.37
				c0.21-0.14,0.46-0.37,0.77-0.7c0.08-0.09,0.18-0.13,0.3-0.13c0.3,0,0.45,0.15,0.45,0.45v5.21c0,0.31-0.13,0.46-0.38,0.46
				s-0.38-0.15-0.38-0.46C5.72,43.76,5.72,39.22,5.72,39.22z"/>
			<path d="M10.69,37.5c0.19,0,0.28,0.09,0.28,0.27c0,0.05-0.02,0.11-0.05,0.18l-2.7,6.68c-0.06,0.16-0.16,0.23-0.29,0.23
				c-0.19,0-0.28-0.09-0.28-0.27c0-0.05,0.01-0.11,0.04-0.18l2.7-6.68C10.46,37.58,10.56,37.5,10.69,37.5z"/>
			<path d="M12.27,43.51h2.03c0.25,0,0.38,0.1,0.38,0.31c0,0.21-0.13,0.31-0.38,0.31h-2.35c-0.35,0-0.53-0.15-0.53-0.45
				c0-0.14,0.15-0.38,0.45-0.72c0.81-0.92,1.39-1.68,1.74-2.3c0.18-0.32,0.27-0.66,0.27-1c0-0.27-0.07-0.49-0.22-0.66
				c-0.15-0.17-0.33-0.25-0.55-0.25c-0.45,0-0.72,0.28-0.81,0.84c-0.05,0.3-0.19,0.45-0.42,0.45c-0.26,0-0.38-0.13-0.38-0.38
				c0-0.17,0.05-0.37,0.16-0.61c0.29-0.62,0.78-0.93,1.48-0.93c0.46,0,0.83,0.14,1.11,0.42s0.43,0.62,0.43,1.03
				c0,0.69-0.48,1.63-1.44,2.8L12.27,43.51z"/>
			<path d="M16.3,43.51h2.03c0.25,0,0.38,0.1,0.38,0.31c0,0.21-0.13,0.31-0.38,0.31h-2.35c-0.35,0-0.53-0.15-0.53-0.45
				c0-0.14,0.15-0.38,0.45-0.72c0.81-0.92,1.39-1.68,1.74-2.3c0.18-0.32,0.27-0.66,0.27-1c0-0.27-0.07-0.49-0.22-0.66
				s-0.33-0.25-0.55-0.25c-0.45,0-0.72,0.28-0.81,0.84c-0.05,0.3-0.19,0.45-0.42,0.45c-0.26,0-0.38-0.13-0.38-0.38
				c0-0.17,0.05-0.37,0.16-0.61c0.29-0.62,0.78-0.93,1.48-0.93c0.46,0,0.83,0.14,1.11,0.42s0.43,0.62,0.43,1.03
				c0,0.69-0.48,1.63-1.44,2.8L16.3,43.51z"/>
			<path d="M25.83,40.35c0.21,0,0.31,0.11,0.31,0.33c0,0.12-0.14,0.34-0.41,0.63c-0.48,0.53-1.05,0.8-1.71,0.8
				c-0.28,0-0.55-0.06-0.82-0.19l-1.07-0.72c-0.29-0.2-0.57-0.3-0.83-0.3c-0.34,0-0.66,0.12-0.97,0.38
				c-0.09,0.07-0.27,0.27-0.54,0.59c-0.08,0.1-0.17,0.15-0.26,0.15c-0.21,0-0.31-0.11-0.31-0.32c0-0.09,0.08-0.24,0.25-0.45
				c0.53-0.67,1.16-1,1.88-1c0.31,0,0.64,0.11,0.99,0.34l0.9,0.59c0.27,0.18,0.53,0.27,0.78,0.27c0.44,0,0.83-0.19,1.19-0.56
				l0.34-0.38C25.65,40.4,25.74,40.35,25.83,40.35z"/>
			<path d="M27.96,39.22c-0.26,0.31-0.48,0.46-0.65,0.46c-0.26,0-0.38-0.12-0.38-0.38c0-0.14,0.09-0.26,0.27-0.37
				c0.21-0.14,0.46-0.37,0.77-0.7c0.08-0.09,0.18-0.13,0.3-0.13c0.3,0,0.45,0.15,0.45,0.45v5.21c0,0.31-0.13,0.46-0.38,0.46
				s-0.38-0.15-0.38-0.46C27.96,43.76,27.96,39.22,27.96,39.22z"/>
			<path d="M30.83,43.51h2.03c0.25,0,0.38,0.1,0.38,0.31c0,0.21-0.13,0.31-0.38,0.31h-2.35c-0.35,0-0.53-0.15-0.53-0.45
				c0-0.14,0.15-0.38,0.45-0.72c0.81-0.92,1.39-1.68,1.74-2.3c0.18-0.32,0.27-0.66,0.27-1c0-0.27-0.07-0.49-0.22-0.66
				s-0.33-0.25-0.55-0.25c-0.45,0-0.72,0.28-0.81,0.84c-0.05,0.3-0.19,0.45-0.42,0.45c-0.26,0-0.38-0.13-0.38-0.38
				c0-0.17,0.05-0.37,0.16-0.61c0.29-0.62,0.78-0.93,1.48-0.93c0.46,0,0.83,0.14,1.11,0.42s0.43,0.62,0.43,1.03
				c0,0.69-0.48,1.63-1.44,2.8L30.83,43.51z"/>
			<path d="M36.95,37.5c0.19,0,0.28,0.09,0.28,0.27c0,0.05-0.02,0.11-0.05,0.18l-2.7,6.68c-0.06,0.16-0.16,0.23-0.29,0.23
				c-0.19,0-0.28-0.09-0.28-0.27c0-0.05,0.01-0.11,0.04-0.18l2.7-6.68C36.72,37.58,36.82,37.5,36.95,37.5z"/>
			<path d="M38.53,43.51h2.03c0.25,0,0.38,0.1,0.38,0.31c0,0.21-0.13,0.31-0.38,0.31h-2.35c-0.35,0-0.53-0.15-0.53-0.45
				c0-0.14,0.15-0.38,0.45-0.72c0.81-0.92,1.39-1.68,1.74-2.3c0.18-0.32,0.27-0.66,0.27-1c0-0.27-0.07-0.49-0.22-0.66
				s-0.33-0.25-0.55-0.25c-0.45,0-0.72,0.28-0.81,0.84c-0.05,0.3-0.19,0.45-0.42,0.45c-0.26,0-0.38-0.13-0.38-0.38
				c0-0.17,0.05-0.37,0.16-0.61c0.29-0.62,0.78-0.93,1.48-0.93c0.46,0,0.83,0.14,1.11,0.42s0.43,0.62,0.43,1.03
				c0,0.69-0.48,1.63-1.44,2.8L38.53,43.51z"/>
			<path d="M43.02,39.22c-0.26,0.31-0.48,0.46-0.65,0.46c-0.26,0-0.38-0.12-0.38-0.38c0-0.14,0.09-0.26,0.27-0.37
				c0.21-0.14,0.46-0.37,0.77-0.7c0.08-0.09,0.18-0.13,0.3-0.13c0.3,0,0.45,0.15,0.45,0.45v5.21c0,0.31-0.13,0.46-0.38,0.46
				s-0.38-0.15-0.38-0.46C43.02,43.76,43.02,39.22,43.02,39.22z"/>
		</g>
	</g>
</g>
</svg>
