<?xml version="1.0" encoding="utf-8"?>
<!-- Generator: Adobe Illustrator 25.3.1, SVG Export Plug-In . SVG Version: 6.00 Build 0)  -->
<svg version="1.1" id="レイヤー_1" xmlns="http://www.w3.org/2000/svg" xmlns:xlink="http://www.w3.org/1999/xlink" x="0px"
	 y="0px" viewBox="0 0 45.35 45.35" style="enable-background:new 0 0 45.35 45.35;" xml:space="preserve">
<style type="text/css">
	.st0{fill:#FFFFFF;}
</style>
<g id="背景">
	<g>
		<rect y="0" class="st0" width="45.35" height="45.35"/>
	</g>
</g>
<g id="kani">
	<g>
		<path d="M36.57,15.47c-1.67-0.86-3.95-1.61-6.85-2.24s-5.4-0.94-7.5-0.94c-0.86,0-1.99,0.07-3.39,0.2
			c0.91,0.62,1.61,1.42,2.11,2.37s0.75,1.97,0.75,3.04c0,1.77-0.63,3.29-1.9,4.55c-1.27,1.27-2.78,1.9-4.55,1.9s-3.29-0.63-4.55-1.9
			c-1.27-1.27-1.9-2.78-1.9-4.55c0-1.43,0.47-2.77,1.41-4.02s2.47-2.16,4.6-2.73c2.12-0.57,4.6-0.86,7.42-0.86
			c2.16,0,4.74,0.32,7.75,0.97c3.01,0.65,5.21,1.38,6.6,2.21V15.47z M26.54,32.48c-0.91-0.62-1.61-1.42-2.11-2.37
			c-0.5-0.96-0.75-1.97-0.75-3.02c0-1.77,0.63-3.29,1.9-4.55c1.27-1.27,2.78-1.9,4.55-1.9c1.76,0,3.27,0.63,4.54,1.9
			s1.9,2.78,1.9,4.55c0,1.42-0.47,2.75-1.4,4c-0.94,1.25-2.47,2.16-4.59,2.73s-4.6,0.86-7.42,0.86c-2.16,0-4.74-0.32-7.75-0.96
			s-5.22-1.38-6.61-2.2v-1.99c1.67,0.85,3.95,1.59,6.85,2.22c2.9,0.63,5.4,0.94,7.52,0.94C24.02,32.68,25.15,32.61,26.54,32.48z
			 M15.24,22.37c1.19,0,2.22-0.44,3.07-1.33c0.86-0.89,1.29-1.93,1.29-3.13c0-1.21-0.43-2.26-1.29-3.14s-1.88-1.32-3.07-1.32
			s-2.22,0.44-3.07,1.33c-0.86,0.89-1.29,1.93-1.29,3.13s0.43,2.25,1.29,3.13C13.02,21.92,14.05,22.37,15.24,22.37z M30.13,31.54
			c1.18,0,2.2-0.44,3.06-1.33s1.29-1.93,1.29-3.13c0-1.21-0.43-2.26-1.29-3.15s-1.88-1.33-3.07-1.33s-2.22,0.44-3.07,1.33
			c-0.86,0.89-1.29,1.93-1.29,3.15c0,1.2,0.43,2.25,1.29,3.13C27.92,31.1,28.94,31.54,30.13,31.54z"/>
		<g>
			<path d="M13.68,2.83c-0.21,0.85-0.46,1.66-0.74,2.43s-0.52,1.33-0.71,1.7c-0.1,0.18-0.22,0.27-0.36,0.27
				c-0.23,0-0.34-0.11-0.34-0.34c0-0.08,0.04-0.2,0.13-0.36c0.21-0.36,0.45-0.92,0.71-1.65c0.27-0.74,0.47-1.39,0.61-1.97L11.71,3.1
				c-0.21,0-0.32-0.11-0.32-0.34c0-0.2,0.16-0.33,0.48-0.37l1.27-0.16l0.01-0.02l0.24-1.2c0.05-0.23,0.16-0.35,0.34-0.35
				c0.22,0,0.33,0.1,0.33,0.31c0,0.14-0.08,0.54-0.23,1.2l0.58-0.02c0.64,0,1.08,0.15,1.31,0.46s0.35,0.8,0.35,1.48
				c0,1.07-0.14,1.92-0.41,2.54C15.39,7.24,15,7.55,14.49,7.55c-0.32,0-0.62-0.1-0.92-0.31s-0.45-0.39-0.45-0.55
				c0-0.24,0.11-0.36,0.34-0.36c0.08,0,0.2,0.06,0.34,0.18c0.24,0.2,0.47,0.3,0.66,0.3s0.36-0.12,0.5-0.36
				c0.14-0.24,0.25-0.56,0.32-0.96s0.11-0.9,0.11-1.49c0-0.52-0.09-0.85-0.27-1c-0.15-0.14-0.39-0.2-0.73-0.2L13.68,2.83z
				 M16.79,1.73c0.24,0,0.58,0.5,0.99,1.5c0.42,1,0.62,1.69,0.62,2.07c0,0.27-0.13,0.41-0.39,0.41c-0.18,0-0.3-0.14-0.37-0.42
				c-0.25-1.06-0.53-1.89-0.84-2.47c-0.24-0.44-0.36-0.71-0.36-0.79C16.44,1.83,16.56,1.73,16.79,1.73z"/>
			<path d="M20.36,0.94c0.22,0,0.34,0.1,0.34,0.31c0,0.1-0.02,0.24-0.06,0.41c-0.17,0.68-0.25,1.57-0.25,2.67
				c0,0.86,0.06,1.71,0.2,2.55l0.02,0.18c0,0.23-0.12,0.35-0.36,0.35c-0.19,0-0.32-0.1-0.38-0.31c-0.06-0.14-0.11-0.51-0.16-1.1
				c-0.05-0.59-0.08-1.08-0.08-1.48c0-1.1,0.09-2.11,0.28-3.03C19.98,1.13,20.13,0.94,20.36,0.94z M22,4.39
				c0.21,0,0.31,0.09,0.31,0.28l-0.04,0.2c-0.05,0.15-0.08,0.3-0.08,0.45c0,0.58,0.68,0.88,2.03,0.88l0.51-0.01l0.62-0.05
				c0.23,0,0.35,0.11,0.35,0.34c0,0.18-0.09,0.29-0.26,0.35s-0.51,0.09-1.01,0.09c-0.73,0-1.3-0.05-1.7-0.14
				c-0.4-0.09-0.71-0.27-0.92-0.52C21.6,6,21.49,5.67,21.49,5.27C21.49,4.68,21.66,4.39,22,4.39z M24.4,2.33
				c-0.81,0-1.55,0.08-2.22,0.23l-0.21,0.03c-0.19,0-0.28-0.1-0.28-0.3c0-0.23,0.19-0.38,0.57-0.45c0.88-0.16,1.7-0.23,2.47-0.23
				c0.53,0,0.8,0.12,0.8,0.38s-0.14,0.38-0.43,0.38L24.4,2.33z"/>
			<path d="M30.13,1.25V0.79c0-0.2,0.12-0.3,0.37-0.3c0.24,0,0.37,0.1,0.37,0.3v0.45h2.62c0.24,0,0.36,0.1,0.36,0.3
				s-0.12,0.3-0.36,0.3h-5.25c-0.23,0-0.34,0.11-0.34,0.34l0.02,1.3c0,1.33-0.1,2.36-0.3,3.09s-0.43,1.1-0.68,1.1
				c-0.23,0-0.35-0.12-0.35-0.35c0-0.08,0.04-0.19,0.12-0.34c0.37-0.7,0.55-1.94,0.55-3.7L27.24,2c0-0.49,0.26-0.74,0.78-0.74
				L30.13,1.25L30.13,1.25z M31.14,5.9v0.98h2.41c0.25,0,0.38,0.1,0.38,0.31c0,0.2-0.12,0.3-0.38,0.3h-5.38
				c-0.25,0-0.38-0.1-0.38-0.3c0-0.21,0.12-0.31,0.38-0.31h2.34V5.9h-1.8c-0.25,0-0.37-0.1-0.37-0.3c0-0.2,0.12-0.3,0.37-0.3h1.8
				V2.43c0-0.25,0.11-0.38,0.32-0.38s0.31,0.13,0.31,0.38V5.3H33c0.24,0,0.37,0.1,0.37,0.3c0,0.2-0.12,0.3-0.37,0.3
				C33,5.9,31.14,5.9,31.14,5.9z M29.31,3.33c0.68,0.65,1.02,1.08,1.02,1.29s-0.1,0.31-0.31,0.31c-0.11,0-0.21-0.08-0.31-0.25
				c-0.12-0.21-0.32-0.49-0.59-0.84C28.79,4.62,28.52,5,28.32,5c-0.19,0-0.29-0.1-0.29-0.3c0-0.08,0.05-0.19,0.14-0.31
				c0.31-0.45,0.58-1.08,0.81-1.89c0.05-0.19,0.15-0.28,0.3-0.28c0.2,0,0.3,0.1,0.3,0.3C29.57,2.58,29.48,2.85,29.31,3.33z
				 M32.65,3.31c0.82,0.74,1.23,1.2,1.23,1.37c0,0.21-0.11,0.31-0.32,0.31c-0.1,0-0.21-0.09-0.34-0.27
				c-0.27-0.35-0.53-0.65-0.77-0.91c-0.35,0.76-0.63,1.14-0.84,1.14c-0.19,0-0.29-0.1-0.29-0.3c0-0.07,0.04-0.16,0.12-0.27
				c0.34-0.48,0.62-1.1,0.82-1.84c0.06-0.21,0.17-0.32,0.34-0.32c0.2,0,0.3,0.1,0.3,0.29C32.9,2.59,32.82,2.86,32.65,3.31z"/>
			<path d="M5.09,40.81c0.34-0.44,0.74-0.66,1.21-0.66c0.42,0,0.74,0.18,0.98,0.54c0.23,0.36,0.35,0.83,0.35,1.43
				c0,0.65-0.14,1.17-0.43,1.55s-0.68,0.57-1.18,0.57c-1.13,0-1.7-0.96-1.7-2.88c0-2.17,0.63-3.25,1.88-3.25
				c0.57,0,0.98,0.25,1.23,0.74c0.1,0.2,0.16,0.37,0.16,0.5c0,0.24-0.12,0.36-0.37,0.36c-0.2,0-0.33-0.13-0.39-0.38
				c-0.09-0.42-0.31-0.62-0.66-0.62C5.53,38.71,5.17,39.41,5.09,40.81z M5.07,41.59c0,1.37,0.31,2.05,0.92,2.05
				c0.58,0,0.88-0.5,0.88-1.49c0-0.94-0.25-1.41-0.73-1.41C5.74,40.75,5.39,41.03,5.07,41.59z"/>
			<path d="M11.1,37.5c0.19,0,0.28,0.09,0.28,0.27c0,0.05-0.02,0.11-0.05,0.18l-2.7,6.68c-0.06,0.16-0.16,0.23-0.29,0.23
				c-0.19,0-0.28-0.09-0.28-0.27c0-0.05,0.01-0.11,0.04-0.18l2.7-6.68C10.88,37.58,10.97,37.5,11.1,37.5z"/>
			<path d="M12.68,43.51h2.03c0.25,0,0.38,0.1,0.38,0.31c0,0.21-0.13,0.31-0.38,0.31h-2.35c-0.35,0-0.53-0.15-0.53-0.45
				c0-0.14,0.15-0.38,0.45-0.72c0.81-0.92,1.39-1.68,1.74-2.3c0.18-0.32,0.27-0.66,0.27-1c0-0.27-0.07-0.49-0.22-0.66
				c-0.15-0.17-0.33-0.25-0.55-0.25c-0.45,0-0.72,0.28-0.81,0.84c-0.05,0.3-0.19,0.45-0.42,0.45c-0.26,0-0.38-0.13-0.38-0.38
				c0-0.17,0.05-0.37,0.16-0.61c0.29-0.62,0.78-0.93,1.48-0.93c0.46,0,0.83,0.14,1.11,0.42s0.43,0.62,0.43,1.03
				c0,0.69-0.48,1.63-1.44,2.8L12.68,43.51z"/>
			<path d="M16.72,43.51h2.03c0.25,0,0.38,0.1,0.38,0.31c0,0.21-0.13,0.31-0.38,0.31H16.4c-0.35,0-0.53-0.15-0.53-0.45
				c0-0.14,0.15-0.38,0.45-0.72c0.81-0.92,1.39-1.68,1.74-2.3c0.18-0.32,0.27-0.66,0.27-1c0-0.27-0.07-0.49-0.22-0.66
				s-0.33-0.25-0.55-0.25c-0.45,0-0.72,0.28-0.81,0.84c-0.05,0.3-0.19,0.45-0.42,0.45c-0.26,0-0.38-0.13-0.38-0.38
				c0-0.17,0.05-0.37,0.16-0.61c0.29-0.62,0.78-0.93,1.48-0.93c0.46,0,0.83,0.14,1.11,0.42s0.43,0.62,0.43,1.03
				c0,0.69-0.48,1.63-1.44,2.8L16.72,43.51z"/>
			<path d="M26.25,40.35c0.21,0,0.31,0.11,0.31,0.33c0,0.12-0.14,0.34-0.41,0.63c-0.48,0.53-1.05,0.8-1.71,0.8
				c-0.28,0-0.55-0.06-0.82-0.19l-1.07-0.72c-0.29-0.2-0.57-0.3-0.83-0.3c-0.34,0-0.66,0.12-0.97,0.38
				c-0.09,0.07-0.27,0.27-0.54,0.59c-0.08,0.1-0.17,0.15-0.26,0.15c-0.21,0-0.31-0.11-0.31-0.32c0-0.09,0.08-0.24,0.25-0.45
				c0.53-0.67,1.16-1,1.88-1c0.31,0,0.64,0.11,0.99,0.34l0.9,0.59c0.27,0.18,0.53,0.27,0.78,0.27c0.44,0,0.83-0.19,1.19-0.56
				l0.34-0.38C26.07,40.4,26.16,40.35,26.25,40.35z"/>
			<path d="M28.98,39.08L29,39.01c0-0.07-0.04-0.1-0.13-0.1h-1.8c-0.28,0-0.42-0.11-0.42-0.34s0.14-0.34,0.42-0.34h2.32
				c0.33,0,0.49,0.16,0.49,0.47c0,0.08-0.02,0.16-0.05,0.26l-1.9,4.95c-0.08,0.23-0.21,0.34-0.39,0.34c-0.24,0-0.36-0.11-0.36-0.34
				c0-0.06,0.02-0.14,0.05-0.22L28.98,39.08z"/>
			<path d="M32.8,37.5c0.19,0,0.28,0.09,0.28,0.27c0,0.05-0.02,0.11-0.05,0.18l-2.7,6.68c-0.06,0.16-0.16,0.23-0.29,0.23
				c-0.19,0-0.28-0.09-0.28-0.27c0-0.05,0.01-0.11,0.04-0.18l2.7-6.68C32.57,37.58,32.67,37.5,32.8,37.5z"/>
			<path d="M34.38,43.51h2.03c0.25,0,0.38,0.1,0.38,0.31c0,0.21-0.13,0.31-0.38,0.31h-2.35c-0.35,0-0.53-0.15-0.53-0.45
				c0-0.14,0.15-0.38,0.45-0.72c0.81-0.92,1.39-1.68,1.74-2.3c0.18-0.32,0.27-0.66,0.27-1c0-0.27-0.07-0.49-0.22-0.66
				s-0.33-0.25-0.55-0.25c-0.45,0-0.72,0.28-0.81,0.84c-0.05,0.3-0.19,0.45-0.42,0.45c-0.26,0-0.38-0.13-0.38-0.38
				c0-0.17,0.05-0.37,0.16-0.61c0.29-0.62,0.78-0.93,1.48-0.93c0.46,0,0.83,0.14,1.11,0.42s0.43,0.62,0.43,1.03
				c0,0.69-0.48,1.63-1.44,2.8L34.38,43.51z"/>
			<path d="M38.42,43.51h2.03c0.25,0,0.38,0.1,0.38,0.31c0,0.21-0.13,0.31-0.38,0.31H38.1c-0.35,0-0.53-0.15-0.53-0.45
				c0-0.14,0.15-0.38,0.45-0.72c0.81-0.92,1.39-1.68,1.74-2.3c0.18-0.32,0.27-0.66,0.27-1c0-0.27-0.07-0.49-0.22-0.66
				s-0.33-0.25-0.55-0.25c-0.45,0-0.72,0.28-0.81,0.84c-0.05,0.3-0.19,0.45-0.42,0.45c-0.26,0-0.38-0.13-0.38-0.38
				c0-0.17,0.05-0.37,0.16-0.61c0.29-0.62,0.78-0.93,1.48-0.93c0.46,0,0.83,0.14,1.11,0.42s0.43,0.62,0.43,1.03
				c0,0.69-0.48,1.63-1.44,2.8L38.42,43.51z"/>
		</g>
	</g>
</g>
</svg>
