<?xml version="1.0" encoding="utf-8"?>
<!-- Generator: Adobe Illustrator 25.3.1, SVG Export Plug-In . SVG Version: 6.00 Build 0)  -->
<svg version="1.1" id="レイヤー_1" xmlns="http://www.w3.org/2000/svg" xmlns:xlink="http://www.w3.org/1999/xlink" x="0px"
	 y="0px" viewBox="0 0 45.35 45.35" style="enable-background:new 0 0 45.35 45.35;" xml:space="preserve">
<style type="text/css">
	.st0{fill:#FFFFFF;}
</style>
<g id="背景">
	<g>
		<rect y="0" class="st0" width="45.35" height="45.35"/>
	</g>
</g>
<g id="mizugame">
	<g>
		<path d="M37.49,15.55c-0.34,0-0.67,0.12-0.99,0.36s-0.73,0.84-1.24,1.8c-0.69,1.31-1.32,2.14-1.89,2.49
			c-0.57,0.36-1.17,0.54-1.82,0.54c-0.64,0-1.24-0.18-1.8-0.54c-0.57-0.36-1.2-1.19-1.89-2.49c-0.52-0.96-0.94-1.57-1.25-1.8
			s-0.64-0.36-0.98-0.36s-0.67,0.12-0.98,0.36c-0.31,0.24-0.72,0.84-1.23,1.8c-0.69,1.31-1.32,2.14-1.9,2.49
			c-0.57,0.36-1.18,0.54-1.81,0.54c-0.64,0-1.24-0.18-1.8-0.54c-0.57-0.36-1.2-1.19-1.91-2.49c-0.51-0.96-0.92-1.57-1.23-1.8
			s-0.64-0.36-0.98-0.36c-0.34,0-0.67,0.12-0.98,0.36c-0.31,0.24-0.73,0.84-1.25,1.8c-0.69,1.31-1.32,2.14-1.89,2.49
			c-0.57,0.36-1.17,0.54-1.8,0.54v-1.99c0.34,0,0.67-0.12,0.98-0.36c0.31-0.24,0.72-0.84,1.23-1.8c0.69-1.31,1.32-2.14,1.9-2.49
			c0.57-0.36,1.18-0.54,1.81-0.54c0.64,0,1.24,0.18,1.8,0.54c0.57,0.36,1.2,1.19,1.91,2.49c0.51,0.96,0.92,1.57,1.23,1.8
			c0.31,0.24,0.64,0.36,0.98,0.36s0.67-0.12,0.98-0.36s0.73-0.84,1.25-1.8c0.69-1.31,1.32-2.14,1.89-2.49
			c0.57-0.36,1.17-0.54,1.8-0.54c0.65,0,1.25,0.18,1.82,0.54s1.2,1.19,1.89,2.49c0.51,0.96,0.92,1.57,1.24,1.8
			c0.32,0.24,0.64,0.36,0.97,0.36c0.34,0,0.67-0.12,0.99-0.36c0.32-0.24,0.73-0.84,1.24-1.8c0.69-1.31,1.32-2.14,1.89-2.49
			c0.57-0.36,1.17-0.54,1.82-0.54V15.55z M37.49,26.22c-0.34,0-0.67,0.12-0.99,0.36s-0.73,0.84-1.24,1.8
			c-0.69,1.31-1.32,2.14-1.89,2.49c-0.57,0.36-1.17,0.54-1.82,0.54c-0.64,0-1.24-0.18-1.8-0.54c-0.57-0.36-1.2-1.19-1.89-2.49
			c-0.52-0.96-0.94-1.57-1.25-1.8s-0.64-0.36-0.98-0.36s-0.67,0.12-0.98,0.36s-0.72,0.84-1.23,1.8c-0.69,1.31-1.32,2.14-1.9,2.49
			c-0.57,0.36-1.18,0.54-1.81,0.54c-0.64,0-1.24-0.18-1.8-0.54c-0.57-0.36-1.2-1.19-1.91-2.49c-0.51-0.96-0.92-1.57-1.23-1.8
			s-0.64-0.36-0.98-0.36c-0.34,0-0.67,0.12-0.98,0.36s-0.73,0.84-1.25,1.8c-0.69,1.31-1.32,2.14-1.89,2.49
			c-0.57,0.36-1.17,0.54-1.8,0.54v-1.99c0.34,0,0.67-0.12,0.98-0.36c0.31-0.24,0.72-0.84,1.23-1.8c0.69-1.31,1.32-2.14,1.9-2.49
			c0.57-0.36,1.18-0.54,1.81-0.54c0.64,0,1.24,0.18,1.8,0.54c0.57,0.36,1.2,1.19,1.91,2.49c0.51,0.96,0.92,1.57,1.23,1.8
			c0.31,0.24,0.64,0.36,0.98,0.36s0.67-0.12,0.98-0.36s0.73-0.84,1.25-1.8c0.69-1.31,1.32-2.14,1.89-2.49
			c0.57-0.36,1.17-0.54,1.8-0.54c0.65,0,1.25,0.18,1.82,0.54s1.2,1.19,1.89,2.49c0.51,0.96,0.92,1.57,1.24,1.8
			c0.32,0.24,0.64,0.36,0.97,0.36c0.34,0,0.67-0.12,0.99-0.36c0.32-0.24,0.73-0.84,1.24-1.8c0.69-1.31,1.32-2.14,1.89-2.49
			c0.57-0.36,1.17-0.54,1.82-0.54V26.22z"/>
		<g>
			<path d="M9.29,3.88L9.32,3.5c0.02-0.34,0.05-0.56,0.09-0.66C9.46,2.75,9.55,2.7,9.69,2.7c0.23,0,0.35,0.12,0.35,0.35L9.94,4.1
				c0.59,0.23,0.88,0.45,0.88,0.65c0,0.23-0.11,0.34-0.34,0.34c-0.07,0-0.17-0.04-0.3-0.11L9.82,4.82C9.7,5.32,9.53,5.77,9.3,6.15
				C9.07,6.53,8.77,6.86,8.4,7.16C8.03,7.45,7.74,7.6,7.55,7.6c-0.23,0-0.34-0.12-0.34-0.35c0-0.14,0.15-0.29,0.45-0.45
				C8.5,6.26,9.01,5.52,9.18,4.57c-0.65-0.23-1.4-0.4-2.25-0.49c-0.56,1.16-0.98,1.9-1.27,2.21c-0.28,0.3-0.57,0.46-0.87,0.46
				c-0.29,0-0.52-0.11-0.71-0.34C3.89,6.19,3.79,5.9,3.79,5.55C3.79,4.9,4.05,4.38,4.56,4c0.52-0.37,1.18-0.58,1.97-0.6
				c0.26-0.69,0.41-1.11,0.46-1.27l0.16-0.49c0-0.04-0.02-0.05-0.07-0.05H5.19c-0.28,0-0.41-0.11-0.41-0.34
				c0-0.22,0.14-0.34,0.41-0.34h2.23c0.36,0,0.55,0.12,0.55,0.36c0,0.06-0.03,0.17-0.09,0.34L7.52,2.64l-0.3,0.8
				C7.88,3.51,8.57,3.65,9.29,3.88z M6.25,4.04c-0.57,0.05-1.01,0.2-1.34,0.47C4.59,4.77,4.43,5.12,4.43,5.55
				c0,0.34,0.12,0.51,0.36,0.51c0.16,0,0.36-0.15,0.59-0.46C5.61,5.29,5.9,4.77,6.25,4.04z"/>
			<path d="M15.76,2.35v2.72c-0.01,0.7-0.11,1.24-0.31,1.6c-0.2,0.36-0.55,0.64-1.06,0.84c-0.51,0.2-0.94,0.3-1.29,0.3
				c-0.29,0-0.43-0.11-0.43-0.34c0-0.2,0.21-0.33,0.62-0.37c1.14-0.11,1.72-0.61,1.76-1.5c-0.29,0.38-0.65,0.56-1.08,0.56
				c-0.39,0-0.72-0.14-1.01-0.43s-0.43-0.68-0.43-1.19c0-0.53,0.16-0.94,0.48-1.24s0.68-0.45,1.09-0.45c0.36,0,0.7,0.17,0.99,0.52
				V2.35H11.5c-0.28,0-0.41-0.11-0.41-0.34c0-0.22,0.14-0.34,0.41-0.34h3.59v-0.6c0-0.27,0.11-0.41,0.34-0.41
				c0.22,0,0.34,0.14,0.34,0.41v0.6h0.78c0.09,0.18,0.24,0.27,0.43,0.27c0.2,0,0.35-0.09,0.44-0.27h0.02
				c0.08,0.18,0.23,0.27,0.43,0.27c0.06,0,0.13-0.02,0.2-0.05l0.02,0.1c0,0.23-0.14,0.34-0.41,0.34h-1.92V2.35z M14.16,3.44
				c-0.29,0-0.52,0.1-0.71,0.3s-0.28,0.46-0.28,0.79c0,0.68,0.32,1.02,0.95,1.02c0.62,0,0.94-0.35,0.94-1.05
				C15.06,3.79,14.76,3.44,14.16,3.44z M16.71,0.89c0-0.19,0.09-0.29,0.27-0.29s0.27,0.1,0.27,0.29v0.56c0,0.2-0.09,0.3-0.27,0.3
				s-0.27-0.1-0.27-0.3V0.89z M17.6,0.89c0-0.19,0.09-0.29,0.27-0.29s0.27,0.1,0.27,0.29v0.56c0,0.2-0.09,0.3-0.27,0.3
				s-0.27-0.1-0.27-0.3V0.89z"/>
			<path d="M21.07,2.93c-0.19,0.79-0.43,1.57-0.71,2.36s-0.54,1.37-0.74,1.75c-0.1,0.19-0.22,0.28-0.36,0.28
				c-0.23,0-0.34-0.12-0.34-0.35c0-0.08,0.05-0.2,0.14-0.37c0.22-0.4,0.47-0.96,0.73-1.7c0.27-0.74,0.46-1.38,0.59-1.91l-0.85,0.12
				c-0.18,0.04-0.32,0.06-0.42,0.06c-0.21,0-0.32-0.11-0.32-0.34c0-0.12,0.05-0.21,0.14-0.27c0.08-0.05,0.61-0.14,1.59-0.26
				l0.02-0.01l0.01-0.02l0.24-1.2c0.05-0.23,0.16-0.35,0.34-0.35c0.22,0,0.33,0.1,0.33,0.31c0,0.14-0.08,0.54-0.23,1.2l0.59-0.02
				c0.65,0,1.08,0.15,1.31,0.46s0.34,0.8,0.34,1.48c0,1.11-0.14,1.97-0.43,2.57s-0.67,0.9-1.16,0.9c-0.41,0-0.8-0.17-1.18-0.52
				c-0.12-0.12-0.19-0.23-0.19-0.34c0-0.24,0.11-0.36,0.34-0.36c0.06,0,0.2,0.08,0.42,0.23c0.22,0.16,0.41,0.23,0.58,0.23
				c0.28,0,0.5-0.24,0.67-0.71c0.17-0.47,0.26-1.17,0.26-2.09c0-0.52-0.09-0.85-0.27-1c-0.15-0.14-0.39-0.2-0.73-0.2L21.07,2.93z
				 M24.05,2.04c0.25,0,0.6,0.48,1.05,1.44c0.44,0.96,0.66,1.62,0.66,1.99c0,0.27-0.13,0.4-0.4,0.4c-0.19,0-0.32-0.14-0.38-0.41
				c-0.27-1.04-0.57-1.83-0.91-2.38c-0.25-0.41-0.38-0.66-0.38-0.75C23.7,2.14,23.82,2.04,24.05,2.04z M24.43,0.89
				c0-0.19,0.09-0.29,0.27-0.29s0.27,0.1,0.27,0.29v0.69c0,0.19-0.09,0.29-0.27,0.29s-0.27-0.1-0.27-0.29V0.89z M25.32,0.89
				c0-0.19,0.09-0.29,0.27-0.29s0.27,0.1,0.27,0.29v0.69c0,0.19-0.09,0.29-0.27,0.29s-0.27-0.1-0.27-0.29V0.89z"/>
			<path d="M31.38,2.71c-0.46,1.39-0.96,2.43-1.5,3.13s-1.11,1.04-1.72,1.04c-0.41,0-0.74-0.17-0.99-0.5s-0.38-0.75-0.38-1.27
				c0-0.95,0.46-1.76,1.37-2.44c-0.14-0.75-0.21-1.19-0.21-1.32c0-0.26,0.11-0.39,0.33-0.39s0.35,0.2,0.37,0.61l0.12,0.77
				c0.61-0.25,1.18-0.38,1.69-0.38l0.45,0.02l0.19-0.83c0.06-0.32,0.19-0.48,0.4-0.48c0.23,0,0.35,0.12,0.35,0.37
				c0,0.08-0.09,0.43-0.27,1.05c1.34,0.45,2.02,1.31,2.02,2.59c0,0.97-0.45,1.73-1.34,2.27c-0.64,0.39-1.23,0.58-1.76,0.58
				c-0.26,0-0.38-0.12-0.38-0.38c0-0.18,0.14-0.3,0.43-0.34c1.54-0.25,2.31-0.99,2.31-2.2C32.84,3.66,32.35,3.02,31.38,2.71z
				 M28.33,3.34c-0.58,0.52-0.87,1.11-0.87,1.77c0,0.73,0.25,1.09,0.76,1.09c0.28,0,0.61-0.19,0.98-0.58
				C28.8,4.8,28.51,4.04,28.33,3.34z M30.72,2.6l-0.23-0.01c-0.5,0-1.03,0.12-1.59,0.38c0.15,0.67,0.39,1.36,0.73,2.08
				C30.04,4.37,30.4,3.55,30.72,2.6z"/>
			<path d="M37.74,1.25V0.79c0-0.2,0.12-0.3,0.37-0.3c0.24,0,0.37,0.1,0.37,0.3v0.45h2.62c0.24,0,0.36,0.1,0.36,0.3
				s-0.12,0.3-0.36,0.3h-5.25c-0.23,0-0.34,0.11-0.34,0.34l0.02,1.3c0,1.33-0.1,2.36-0.3,3.09s-0.43,1.1-0.68,1.1
				c-0.23,0-0.35-0.12-0.35-0.35c0-0.08,0.04-0.19,0.12-0.34c0.37-0.7,0.55-1.94,0.55-3.7L34.85,2c0-0.49,0.26-0.74,0.78-0.74
				L37.74,1.25L37.74,1.25z M38.74,5.9v0.98h2.41c0.25,0,0.38,0.1,0.38,0.31c0,0.2-0.12,0.3-0.38,0.3h-5.38
				c-0.25,0-0.38-0.1-0.38-0.3c0-0.21,0.12-0.31,0.38-0.31h2.34V5.9h-1.8c-0.25,0-0.37-0.1-0.37-0.3c0-0.2,0.12-0.3,0.37-0.3h1.8
				V2.43c0-0.25,0.11-0.38,0.32-0.38s0.31,0.13,0.31,0.38V5.3h1.86c0.24,0,0.37,0.1,0.37,0.3c0,0.2-0.12,0.3-0.37,0.3
				C40.6,5.9,38.74,5.9,38.74,5.9z M36.91,3.33c0.68,0.65,1.02,1.08,1.02,1.29s-0.1,0.31-0.31,0.31c-0.11,0-0.21-0.08-0.31-0.25
				c-0.12-0.21-0.32-0.49-0.59-0.84C36.39,4.62,36.12,5,35.92,5c-0.19,0-0.29-0.1-0.29-0.3c0-0.08,0.05-0.19,0.14-0.31
				c0.31-0.45,0.58-1.08,0.81-1.89c0.05-0.19,0.15-0.28,0.3-0.28c0.2,0,0.3,0.1,0.3,0.3C37.17,2.58,37.08,2.85,36.91,3.33z
				 M40.25,3.31c0.82,0.74,1.23,1.2,1.23,1.37c0,0.21-0.11,0.31-0.32,0.31c-0.1,0-0.21-0.09-0.34-0.27
				c-0.27-0.35-0.53-0.65-0.77-0.91c-0.35,0.76-0.63,1.14-0.84,1.14c-0.19,0-0.29-0.1-0.29-0.3c0-0.07,0.04-0.16,0.12-0.27
				c0.34-0.48,0.62-1.1,0.82-1.84c0.06-0.21,0.17-0.32,0.34-0.32c0.2,0,0.3,0.1,0.3,0.29C40.5,2.59,40.42,2.86,40.25,3.31z"/>
			<path d="M5.48,39.22C5.22,39.53,5,39.69,4.83,39.69c-0.26,0-0.38-0.12-0.38-0.38c0-0.14,0.09-0.26,0.27-0.37
				c0.21-0.14,0.46-0.37,0.77-0.7c0.08-0.09,0.18-0.13,0.3-0.13c0.3,0,0.45,0.15,0.45,0.45v5.21c0,0.31-0.13,0.46-0.38,0.46
				s-0.38-0.15-0.38-0.46C5.48,43.77,5.48,39.22,5.48,39.22z"/>
			<path d="M10.44,37.5c0.19,0,0.28,0.09,0.28,0.27c0,0.05-0.02,0.11-0.05,0.18l-2.7,6.68c-0.06,0.16-0.16,0.23-0.29,0.23
				c-0.19,0-0.28-0.09-0.28-0.27c0-0.05,0.01-0.11,0.04-0.18l2.7-6.68C10.21,37.58,10.31,37.5,10.44,37.5z"/>
			<path d="M12.02,43.51h2.03c0.25,0,0.38,0.1,0.38,0.31c0,0.21-0.13,0.31-0.38,0.31H11.7c-0.35,0-0.53-0.15-0.53-0.45
				c0-0.14,0.15-0.38,0.45-0.72c0.81-0.92,1.39-1.68,1.74-2.3c0.18-0.32,0.27-0.66,0.27-1c0-0.27-0.07-0.49-0.22-0.66
				c-0.15-0.17-0.33-0.25-0.55-0.25c-0.45,0-0.72,0.28-0.81,0.84c-0.05,0.3-0.19,0.45-0.42,0.45c-0.26,0-0.38-0.13-0.38-0.38
				c0-0.17,0.05-0.37,0.16-0.61c0.29-0.62,0.78-0.93,1.48-0.93c0.46,0,0.83,0.14,1.11,0.42s0.43,0.62,0.43,1.03
				c0,0.69-0.48,1.63-1.44,2.8L12.02,43.51z"/>
			<path d="M16.84,38.11c0.61,0,1.04,0.27,1.27,0.81s0.35,1.3,0.35,2.27c0,1.08-0.13,1.86-0.4,2.34c-0.27,0.47-0.69,0.71-1.26,0.71
				s-0.99-0.24-1.26-0.72s-0.4-1.25-0.4-2.3c0-1.04,0.12-1.81,0.37-2.33C15.77,38.37,16.21,38.11,16.84,38.11z M16.79,38.75
				c-0.59,0-0.88,0.81-0.88,2.43s0.3,2.43,0.9,2.43s0.9-0.81,0.9-2.45C17.7,39.55,17.4,38.75,16.79,38.75z"/>
			<path d="M25.91,40.35c0.21,0,0.31,0.11,0.31,0.33c0,0.12-0.14,0.34-0.41,0.63c-0.48,0.53-1.05,0.8-1.71,0.8
				c-0.28,0-0.55-0.06-0.82-0.19l-1.07-0.72c-0.29-0.2-0.57-0.3-0.83-0.3c-0.34,0-0.66,0.12-0.97,0.38
				c-0.09,0.07-0.27,0.27-0.54,0.59c-0.08,0.1-0.17,0.15-0.26,0.15c-0.21,0-0.31-0.11-0.31-0.32c0-0.09,0.08-0.24,0.25-0.45
				c0.53-0.67,1.16-1,1.88-1c0.31,0,0.64,0.11,0.99,0.34l0.9,0.59c0.27,0.18,0.53,0.27,0.78,0.27c0.44,0,0.83-0.19,1.19-0.56
				l0.34-0.38C25.73,40.4,25.82,40.35,25.91,40.35z"/>
			<path d="M27.67,43.51h2.03c0.25,0,0.38,0.1,0.38,0.31c0,0.21-0.13,0.31-0.38,0.31h-2.35c-0.35,0-0.53-0.15-0.53-0.45
				c0-0.14,0.15-0.38,0.45-0.72c0.81-0.92,1.39-1.68,1.74-2.3c0.18-0.32,0.27-0.66,0.27-1c0-0.27-0.07-0.49-0.22-0.66
				s-0.33-0.25-0.55-0.25c-0.45,0-0.72,0.28-0.81,0.84c-0.05,0.3-0.19,0.45-0.42,0.45c-0.26,0-0.38-0.13-0.38-0.38
				c0-0.17,0.05-0.37,0.16-0.61c0.29-0.62,0.78-0.93,1.48-0.93c0.46,0,0.83,0.14,1.11,0.42s0.43,0.62,0.43,1.03
				c0,0.69-0.48,1.63-1.44,2.8L27.67,43.51z"/>
			<path d="M33.79,37.5c0.19,0,0.28,0.09,0.28,0.27c0,0.05-0.02,0.11-0.05,0.18l-2.7,6.68c-0.06,0.16-0.16,0.23-0.29,0.23
				c-0.19,0-0.28-0.09-0.28-0.27c0-0.05,0.01-0.11,0.04-0.18l2.7-6.68C33.56,37.58,33.66,37.5,33.79,37.5z"/>
			<path d="M35.9,39.22c-0.26,0.31-0.48,0.46-0.65,0.46c-0.26,0-0.38-0.12-0.38-0.38c0-0.14,0.09-0.26,0.27-0.37
				c0.21-0.14,0.46-0.37,0.77-0.7c0.08-0.09,0.18-0.13,0.3-0.13c0.3,0,0.45,0.15,0.45,0.45v5.21c0,0.31-0.13,0.46-0.38,0.46
				s-0.38-0.15-0.38-0.46C35.9,43.76,35.9,39.22,35.9,39.22z"/>
			<path d="M38.98,40.97c-0.63-0.25-0.95-0.7-0.95-1.34c0-0.43,0.15-0.79,0.44-1.08c0.29-0.29,0.68-0.44,1.16-0.44
				s0.87,0.15,1.16,0.44c0.29,0.29,0.44,0.65,0.44,1.07c0,0.65-0.31,1.1-0.94,1.34c0.73,0.28,1.09,0.8,1.09,1.55
				c0,0.5-0.15,0.91-0.46,1.23s-0.74,0.48-1.29,0.48c-0.56,0-1-0.16-1.3-0.48s-0.46-0.73-0.46-1.23
				C37.89,41.77,38.25,41.26,38.98,40.97z M39.62,41.29c-0.28,0-0.51,0.11-0.71,0.32s-0.29,0.51-0.29,0.89
				c0,0.75,0.34,1.12,1.02,1.12s1.02-0.39,1.02-1.16c0-0.36-0.1-0.65-0.3-0.86C40.15,41.4,39.91,41.29,39.62,41.29z M39.62,38.73
				c-0.59,0-0.88,0.32-0.88,0.95c0,0.29,0.09,0.52,0.27,0.7c0.18,0.17,0.39,0.26,0.63,0.26c0.27,0,0.48-0.09,0.65-0.27
				c0.17-0.18,0.25-0.41,0.25-0.69C40.54,39.04,40.23,38.73,39.62,38.73z"/>
		</g>
	</g>
</g>
</svg>
