<?xml version="1.0" encoding="utf-8"?>
<!-- Generator: Adobe Illustrator 25.3.1, SVG Export Plug-In . SVG Version: 6.00 Build 0)  -->
<svg version="1.1" id="レイヤー_1" xmlns="http://www.w3.org/2000/svg" xmlns:xlink="http://www.w3.org/1999/xlink" x="0px"
	 y="0px" viewBox="0 0 45.35 45.35" style="enable-background:new 0 0 45.35 45.35;" xml:space="preserve">
<style type="text/css">
	.st0{fill:#FFFFFF;}
</style>
<g id="背景">
	<g>
		<rect y="0" class="st0" width="45.35" height="45.35"/>
	</g>
</g>
<g id="ohitsuji">
	<g>
		<path d="M22.68,15.39c0.33-1.57,1.09-2.83,2.28-3.8s2.57-1.46,4.14-1.46c2,0,3.63,0.68,4.89,2.04c1.27,1.36,1.9,3.06,1.9,5.11
			c0,2.33-0.68,4.15-2.03,5.47s-3.15,1.98-5.39,1.98v-1.99c1.62,0,2.92-0.48,3.88-1.43c0.96-0.95,1.45-2.3,1.45-4.03
			c0-1.55-0.44-2.8-1.31-3.74c-0.87-0.94-2.04-1.41-3.49-1.41c-1.55,0-2.82,0.68-3.8,2.03s-1.47,3.1-1.47,5.26v15.44h-2.08V19.4
			c0-2.16-0.49-3.91-1.46-5.26c-0.98-1.35-2.25-2.03-3.81-2.03c-1.45,0-2.62,0.47-3.49,1.41s-1.31,2.19-1.31,3.74
			c0,1.74,0.48,3.08,1.44,4.03s2.26,1.43,3.89,1.43v1.99c-2.24,0-4.03-0.66-5.39-1.98s-2.03-3.15-2.03-5.47
			c0-2.04,0.63-3.74,1.9-5.11s2.9-2.04,4.89-2.04c1.57,0,2.94,0.49,4.14,1.46S22.35,13.82,22.68,15.39z"/>
		<g>
			<path d="M6.39,2.28H4.73c-0.27,0-0.41-0.11-0.41-0.33s0.14-0.34,0.41-0.34h1.66V1.08c0-0.28,0.11-0.42,0.34-0.42
				S7.07,0.8,7.07,1.08v0.53h1.67c0.27,0,0.4,0.11,0.4,0.34c0,0.22-0.13,0.33-0.4,0.33H7.07v1.27C7.4,3.49,7.72,3.46,8.02,3.46
				c0.81,0,1.46,0.18,1.96,0.53s0.75,0.87,0.75,1.54c0,0.56-0.17,1.01-0.52,1.35C9.85,7.22,9.42,7.39,8.92,7.39
				c-0.88,0-1.31-0.17-1.31-0.5c0-0.23,0.1-0.34,0.3-0.34c0.09,0,0.23,0.02,0.4,0.07s0.35,0.07,0.52,0.07
				c0.35,0,0.63-0.11,0.85-0.34C9.89,6.13,10,5.84,10,5.49c0-0.95-0.68-1.43-2.05-1.43c-0.27,0-0.56,0.03-0.88,0.1v2.26
				c0,0.73-0.37,1.09-1.1,1.09c-0.46,0-0.86-0.17-1.18-0.52C4.47,6.64,4.31,6.23,4.31,5.76c0-0.45,0.19-0.86,0.57-1.23
				C5.25,4.16,5.76,3.88,6.39,3.7V2.28z M6.39,4.34C5.43,4.72,4.95,5.21,4.95,5.82c0,0.28,0.1,0.52,0.29,0.72
				c0.2,0.21,0.42,0.31,0.67,0.31c0.32,0,0.48-0.21,0.48-0.62V4.34z M9.64,1.05c0.13,0,0.28,0.09,0.46,0.28l0.49,0.48
				c0.28,0.28,0.42,0.5,0.42,0.65c0,0.21-0.12,0.32-0.37,0.32c-0.13,0-0.26-0.09-0.39-0.26S9.98,2.2,9.85,2.05
				C9.71,1.9,9.59,1.77,9.46,1.65c-0.12-0.12-0.18-0.22-0.18-0.3C9.28,1.15,9.4,1.05,9.64,1.05z"/>
			<path d="M13.75,1.88H12.2c-0.27,0-0.41-0.11-0.41-0.34c0-0.22,0.14-0.34,0.41-0.34h2.16c0.3,0,0.45,0.12,0.45,0.37
				c0,0.13-0.13,0.3-0.39,0.51s-0.52,0.51-0.79,0.9c-0.26,0.39-0.45,0.74-0.55,1.04c-0.11,0.31-0.16,0.61-0.16,0.92
				c0,0.56,0.16,1.01,0.49,1.35s0.75,0.5,1.28,0.5c1.25,0,1.88-0.88,1.88-2.63c0-0.77-0.1-1.55-0.31-2.34L16.2,1.58
				c0-0.24,0.13-0.36,0.39-0.36c0.17,0,0.3,0.11,0.41,0.34c0.45,0.89,0.98,1.66,1.6,2.33c0.19,0.18,0.28,0.33,0.28,0.45
				c0,0.26-0.12,0.39-0.36,0.39c-0.16,0-0.39-0.21-0.71-0.62c-0.31-0.44-0.61-1-0.91-1.71c-0.01-0.02-0.01-0.02-0.02-0.02l0,0
				l-0.02,0.03c0.25,0.89,0.38,1.63,0.38,2.21c0,0.9-0.23,1.6-0.69,2.12s-1.09,0.78-1.89,0.78c-0.73,0-1.33-0.23-1.8-0.7
				s-0.7-1.04-0.7-1.72C12.17,4.01,12.7,2.94,13.75,1.88z"/>
			<path d="M23.17,1.59c1.95,0,2.93,0.79,2.93,2.36c0,0.76-0.26,1.39-0.78,1.9s-1.27,0.88-2.25,1.12c-0.7,0.17-1.24,0.25-1.62,0.25
				c-0.32,0-0.48-0.15-0.48-0.44c0-0.15,0.05-0.24,0.16-0.29c0.1-0.05,0.31-0.08,0.63-0.11c1.04-0.08,1.88-0.33,2.54-0.76
				c0.66-0.43,0.99-0.99,0.99-1.7c0-1.06-0.68-1.59-2.03-1.59c-0.4,0-0.97,0.06-1.7,0.19c-0.73,0.13-1.28,0.25-1.64,0.36
				c-0.12,0.04-0.22,0.05-0.29,0.05c-0.25,0-0.37-0.13-0.37-0.39c0-0.19,0.15-0.33,0.46-0.43c0.31-0.1,0.85-0.21,1.62-0.34
				C22.12,1.65,22.73,1.59,23.17,1.59z"/>
			<path d="M28.28,0.72c0.24,0,0.37,0.12,0.37,0.35l-0.04,0.37c-0.15,0.89-0.23,1.92-0.23,3.12c0,0.84,0.09,1.41,0.26,1.7
				c0.23,0.39,0.68,0.58,1.35,0.58c0.54,0,1-0.16,1.39-0.48s0.66-0.71,0.82-1.16c0.12-0.36,0.28-0.55,0.47-0.55
				c0.25,0,0.38,0.12,0.38,0.37c0,0.2-0.13,0.53-0.39,1C32.07,7.05,31.19,7.57,30,7.57c-0.8,0-1.4-0.19-1.79-0.57
				s-0.59-1.09-0.59-2.13c0-1.23,0.07-2.39,0.2-3.46C27.88,0.95,28.03,0.72,28.28,0.72z M31.56,0.94c0-0.2,0.09-0.3,0.27-0.3
				c0.18,0,0.27,0.1,0.27,0.3v0.8c0,0.19-0.09,0.29-0.27,0.29s-0.27-0.1-0.27-0.29C31.56,1.74,31.56,0.94,31.56,0.94z M32.45,0.94
				c0-0.2,0.09-0.3,0.27-0.3s0.27,0.1,0.27,0.3v0.8c0,0.19-0.09,0.29-0.27,0.29s-0.27-0.1-0.27-0.29V0.94z"/>
			<path d="M37.43,1.25V0.79c0-0.2,0.12-0.3,0.37-0.3c0.24,0,0.37,0.1,0.37,0.3v0.45h2.62c0.24,0,0.36,0.1,0.36,0.3
				s-0.12,0.3-0.36,0.3h-5.25c-0.23,0-0.34,0.11-0.34,0.34l0.02,1.3c0,1.33-0.1,2.36-0.3,3.09s-0.43,1.1-0.68,1.1
				c-0.23,0-0.35-0.12-0.35-0.35c0-0.08,0.04-0.19,0.12-0.34c0.37-0.7,0.55-1.94,0.55-3.7L34.54,2c0-0.49,0.26-0.74,0.78-0.74
				L37.43,1.25L37.43,1.25z M38.43,5.9v0.98h2.41c0.25,0,0.38,0.1,0.38,0.31c0,0.2-0.12,0.3-0.38,0.3h-5.38
				c-0.25,0-0.38-0.1-0.38-0.3c0-0.21,0.12-0.31,0.38-0.31h2.34V5.9H36c-0.25,0-0.37-0.1-0.37-0.3c0-0.2,0.12-0.3,0.37-0.3h1.8V2.43
				c0-0.25,0.11-0.38,0.32-0.38s0.31,0.13,0.31,0.38V5.3h1.86c0.24,0,0.37,0.1,0.37,0.3c0,0.2-0.12,0.3-0.37,0.3
				C40.29,5.9,38.43,5.9,38.43,5.9z M36.6,3.33c0.68,0.65,1.02,1.08,1.02,1.29s-0.1,0.31-0.31,0.31c-0.11,0-0.21-0.08-0.31-0.25
				c-0.12-0.21-0.32-0.49-0.59-0.84C36.08,4.62,35.81,5,35.61,5c-0.19,0-0.29-0.1-0.29-0.3c0-0.08,0.05-0.19,0.14-0.31
				c0.31-0.45,0.58-1.08,0.81-1.89c0.05-0.19,0.15-0.28,0.3-0.28c0.2,0,0.3,0.1,0.3,0.3C36.86,2.58,36.77,2.85,36.6,3.33z
				 M39.94,3.31c0.82,0.74,1.23,1.2,1.23,1.37c0,0.21-0.11,0.31-0.32,0.31c-0.1,0-0.21-0.09-0.34-0.27
				c-0.27-0.35-0.53-0.65-0.77-0.91c-0.35,0.76-0.63,1.14-0.84,1.14c-0.19,0-0.29-0.1-0.29-0.3c0-0.07,0.04-0.16,0.12-0.27
				c0.34-0.48,0.62-1.1,0.82-1.84c0.06-0.21,0.17-0.32,0.34-0.32c0.2,0,0.3,0.1,0.3,0.29C40.19,2.59,40.11,2.86,39.94,3.31z"/>
			<path d="M6.54,41.04c0.7,0.23,1.05,0.73,1.05,1.48c0,0.51-0.15,0.92-0.46,1.24s-0.73,0.48-1.29,0.48c-0.49,0-0.88-0.15-1.18-0.45
				c-0.29-0.3-0.44-0.61-0.44-0.93c0-0.25,0.13-0.38,0.4-0.38c0.18,0,0.33,0.19,0.45,0.58c0.12,0.39,0.38,0.58,0.79,0.58
				c0.29,0,0.53-0.11,0.71-0.33s0.27-0.5,0.27-0.84c0-0.53-0.2-0.88-0.59-1.03c-0.16-0.07-0.43-0.1-0.81-0.1
				c-0.2,0-0.3-0.11-0.3-0.33c0-0.21,0.1-0.32,0.3-0.32l0.41,0.02c0.6,0,0.91-0.35,0.91-1.04c0-0.64-0.27-0.96-0.8-0.96
				c-0.22,0-0.38,0.05-0.48,0.16c-0.1,0.1-0.21,0.34-0.34,0.7c-0.06,0.17-0.17,0.25-0.35,0.25c-0.23,0-0.34-0.11-0.34-0.34
				c0-0.33,0.14-0.64,0.41-0.93s0.64-0.43,1.12-0.43s0.86,0.14,1.13,0.43s0.4,0.64,0.4,1.06c0,0.69-0.29,1.16-0.88,1.4L6.54,41.04z"
				/>
			<path d="M11.08,37.5c0.19,0,0.28,0.09,0.28,0.27c0,0.05-0.02,0.11-0.05,0.18l-2.7,6.68c-0.06,0.16-0.16,0.23-0.29,0.23
				c-0.19,0-0.28-0.09-0.28-0.27c0-0.05,0.01-0.11,0.04-0.18l2.7-6.68C10.85,37.58,10.95,37.5,11.08,37.5z"/>
			<path d="M12.66,43.5h2.03c0.25,0,0.38,0.1,0.38,0.31c0,0.21-0.13,0.31-0.38,0.31h-2.35c-0.35,0-0.53-0.15-0.53-0.45
				c0-0.14,0.15-0.38,0.45-0.72c0.81-0.92,1.39-1.68,1.74-2.3c0.18-0.32,0.27-0.66,0.27-1c0-0.27-0.07-0.49-0.22-0.66
				c-0.15-0.17-0.33-0.25-0.55-0.25c-0.45,0-0.72,0.28-0.81,0.84c-0.05,0.3-0.19,0.45-0.42,0.45c-0.26,0-0.38-0.13-0.38-0.38
				c0-0.17,0.05-0.37,0.16-0.61c0.29-0.62,0.78-0.93,1.48-0.93c0.46,0,0.83,0.14,1.11,0.42s0.43,0.62,0.43,1.03
				c0,0.69-0.48,1.63-1.44,2.8L12.66,43.5z"/>
			<path d="M17.16,39.22c-0.26,0.31-0.48,0.46-0.65,0.46c-0.26,0-0.38-0.12-0.38-0.38c0-0.14,0.09-0.26,0.27-0.37
				c0.21-0.14,0.46-0.37,0.77-0.7c0.08-0.09,0.18-0.13,0.3-0.13c0.3,0,0.45,0.15,0.45,0.45v5.21c0,0.31-0.13,0.46-0.38,0.46
				s-0.38-0.15-0.38-0.46C17.16,43.76,17.16,39.22,17.16,39.22z"/>
			<path d="M25.88,40.35c0.21,0,0.31,0.11,0.31,0.33c0,0.12-0.14,0.34-0.41,0.63c-0.48,0.53-1.05,0.8-1.71,0.8
				c-0.28,0-0.55-0.06-0.82-0.19l-1.07-0.72c-0.29-0.2-0.57-0.3-0.83-0.3c-0.34,0-0.66,0.12-0.97,0.38
				c-0.09,0.07-0.27,0.27-0.54,0.59c-0.08,0.1-0.17,0.15-0.26,0.15c-0.21,0-0.31-0.11-0.31-0.32c0-0.09,0.08-0.24,0.25-0.45
				c0.53-0.67,1.16-1,1.88-1c0.31,0,0.64,0.11,0.99,0.34l0.9,0.59c0.27,0.18,0.53,0.27,0.78,0.27c0.44,0,0.83-0.19,1.19-0.56
				l0.34-0.38C25.7,40.4,25.79,40.35,25.88,40.35z"/>
			<path d="M29.53,42.15h0.33c0.25,0,0.38,0.1,0.38,0.31c0,0.21-0.13,0.31-0.38,0.31h-0.33v1.05c0,0.28-0.11,0.41-0.34,0.41
				s-0.34-0.14-0.34-0.41v-1.05h-1.71c-0.32,0-0.48-0.15-0.48-0.46c0-0.11,0.03-0.22,0.09-0.33l1.89-3.55
				c0.11-0.22,0.27-0.33,0.45-0.33c0.3,0,0.45,0.18,0.45,0.53v3.52H29.53z M27.35,42.15h1.49v-2.83L27.35,42.15z"/>
			<path d="M33.6,37.5c0.19,0,0.28,0.09,0.28,0.27c0,0.05-0.02,0.11-0.05,0.18l-2.7,6.68c-0.06,0.16-0.16,0.23-0.29,0.23
				c-0.19,0-0.28-0.09-0.28-0.27c0-0.05,0.01-0.11,0.04-0.18l2.7-6.68C33.37,37.58,33.47,37.5,33.6,37.5z"/>
			<path d="M35.72,39.22c-0.26,0.31-0.48,0.46-0.65,0.46c-0.26,0-0.38-0.12-0.38-0.38c0-0.14,0.09-0.26,0.27-0.37
				c0.21-0.14,0.46-0.37,0.77-0.7c0.08-0.09,0.18-0.13,0.3-0.13c0.3,0,0.45,0.15,0.45,0.45v5.21c0,0.31-0.13,0.46-0.38,0.46
				s-0.38-0.15-0.38-0.46C35.72,43.76,35.72,39.22,35.72,39.22z"/>
			<path d="M40.31,41.54c-0.34,0.44-0.74,0.66-1.21,0.66c-0.42,0-0.74-0.18-0.98-0.54c-0.23-0.36-0.35-0.83-0.35-1.43
				c0-0.65,0.14-1.17,0.43-1.55s0.68-0.57,1.18-0.57c1.13,0,1.7,0.96,1.7,2.88c0,2.17-0.63,3.25-1.88,3.25
				c-0.57,0-0.98-0.25-1.23-0.74c-0.1-0.2-0.16-0.37-0.16-0.5c0-0.24,0.12-0.36,0.37-0.36c0.2,0,0.33,0.13,0.39,0.38
				c0.09,0.42,0.31,0.62,0.66,0.62C39.87,43.65,40.23,42.95,40.31,41.54z M40.33,40.77c0-1.38-0.31-2.06-0.93-2.06
				c-0.58,0-0.87,0.5-0.87,1.49c0,0.94,0.24,1.41,0.73,1.41c0.36,0,0.7-0.26,1.03-0.77L40.33,40.77z"/>
		</g>
	</g>
</g>
</svg>
