<?xml version="1.0" encoding="utf-8"?>
<!-- Generator: Adobe Illustrator 25.3.1, SVG Export Plug-In . SVG Version: 6.00 Build 0)  -->
<svg version="1.1" id="レイヤー_1" xmlns="http://www.w3.org/2000/svg" xmlns:xlink="http://www.w3.org/1999/xlink" x="0px"
	 y="0px" viewBox="0 0 45.35 45.35" style="enable-background:new 0 0 45.35 45.35;" xml:space="preserve">
<style type="text/css">
	.st0{fill:#FFFFFF;}
</style>
<g id="背景">
	<g>
		<rect y="0" class="st0" width="45.35" height="45.35"/>
	</g>
</g>
<g id="otome">
	<g>
		<path d="M39.41,20.69c0,7.38-2.88,11.65-8.65,12.79V36h-2.09v-2.22c-0.84,0.07-1.63,0.1-2.37,0.1v-2.05
			c1.02,0,1.81-0.03,2.37-0.08V16.34c0-1.1-0.39-2.05-1.17-2.86c-0.78-0.81-1.71-1.21-2.8-1.21c-1.08,0-2.01,0.4-2.8,1.21
			c-0.79,0.81-1.18,1.76-1.18,2.86v15.07h-2.09V16.34c0-1.1-0.39-2.05-1.17-2.86c-0.78-0.81-1.71-1.21-2.79-1.21
			s-2.01,0.4-2.79,1.21s-1.17,1.76-1.17,2.86v15.07H8.6V16.34c0-2.72-0.89-4.07-2.66-4.07V10.3c0.87,0,1.72,0.27,2.53,0.8
			c0.81,0.53,1.34,1.15,1.59,1.86c0.37-0.77,0.99-1.41,1.85-1.91c0.86-0.5,1.77-0.75,2.75-0.75c2.36,0,4.03,1.05,5.02,3.15
			c0.99-2.1,2.66-3.15,5.02-3.15c2.2,0,3.92,0.94,5.16,2.83c0.49-0.97,1.06-1.68,1.7-2.14c0.64-0.46,1.48-0.69,2.49-0.69
			c1.6,0,2.89,0.59,3.88,1.78s1.48,2.61,1.48,4.26C39.41,16.34,39.41,20.69,39.41,20.69z M37.32,20.69v-4.35
			c0-1.2-0.29-2.18-0.88-2.94c-0.58-0.76-1.38-1.14-2.39-1.14s-1.81,0.38-2.4,1.14c-0.59,0.76-0.89,1.74-0.89,2.94v15.11
			C35.13,30.39,37.32,26.8,37.32,20.69z"/>
		<g>
			<path d="M10.25,2.28H8.59c-0.27,0-0.41-0.11-0.41-0.33s0.14-0.34,0.41-0.34h1.66V1.08c0-0.28,0.11-0.42,0.34-0.42
				c0.23,0,0.34,0.14,0.34,0.42v0.53h1.67c0.27,0,0.4,0.11,0.4,0.34c0,0.22-0.13,0.33-0.4,0.33h-1.67v1.27
				c0.33-0.06,0.65-0.09,0.95-0.09c0.81,0,1.46,0.18,1.96,0.53s0.75,0.87,0.75,1.54c0,0.56-0.17,1.01-0.52,1.35
				c-0.35,0.34-0.78,0.51-1.28,0.51c-0.88,0-1.31-0.17-1.31-0.5c0-0.23,0.1-0.34,0.3-0.34c0.09,0,0.23,0.02,0.4,0.07
				s0.35,0.07,0.52,0.07c0.35,0,0.63-0.11,0.85-0.34c0.22-0.22,0.32-0.51,0.32-0.87c0-0.95-0.68-1.43-2.05-1.43
				c-0.27,0-0.56,0.03-0.88,0.1v2.26c-0.01,0.73-0.37,1.09-1.1,1.09c-0.46,0-0.86-0.17-1.18-0.52C8.33,6.64,8.17,6.23,8.17,5.76
				c0-0.45,0.19-0.86,0.57-1.23s0.88-0.65,1.51-0.83V2.28z M10.25,4.34C9.29,4.72,8.81,5.21,8.81,5.82c0,0.28,0.1,0.52,0.29,0.72
				c0.2,0.21,0.42,0.31,0.67,0.31c0.32,0,0.48-0.21,0.48-0.62V4.34z M13.5,1.05c0.13,0,0.28,0.09,0.46,0.28l0.49,0.48
				c0.28,0.28,0.42,0.5,0.42,0.65c0,0.21-0.12,0.32-0.37,0.32c-0.13,0-0.26-0.09-0.39-0.26s-0.27-0.33-0.4-0.48
				c-0.14-0.15-0.26-0.28-0.39-0.4c-0.12-0.12-0.18-0.22-0.18-0.3C13.14,1.15,13.26,1.05,13.5,1.05z"/>
			<path d="M17.81,3.44c-0.42-0.8-0.8-1.44-1.15-1.92c-0.1-0.14-0.15-0.25-0.15-0.33c0-0.23,0.13-0.35,0.38-0.35
				c0.09,0,0.19,0.04,0.28,0.12s0.24,0.28,0.43,0.61c0.2,0.32,0.45,0.77,0.77,1.34l0.08,0.12c0.27-0.16,0.76-0.4,1.46-0.73
				c0.71-0.33,1.12-0.5,1.25-0.5c0.26,0,0.39,0.13,0.39,0.4c0,0.1-0.03,0.19-0.1,0.25c-0.05,0.05-0.3,0.16-0.73,0.31
				c-1.02,0.36-1.9,0.83-2.66,1.39s-1.14,1.07-1.14,1.51c0,0.71,0.77,1.07,2.32,1.07c0.51,0,0.92-0.02,1.22-0.05
				c0.3-0.04,0.54-0.05,0.71-0.05c0.25,0,0.38,0.12,0.38,0.36c0,0.23-0.16,0.37-0.48,0.42s-0.93,0.07-1.82,0.07
				c-2.07,0-3.1-0.59-3.1-1.78C16.15,4.97,16.7,4.22,17.81,3.44z"/>
			<path d="M27.21,2.71c-0.46,1.39-0.96,2.43-1.5,3.13s-1.11,1.04-1.72,1.04c-0.41,0-0.74-0.17-0.99-0.5s-0.38-0.75-0.38-1.27
				c0-0.95,0.46-1.76,1.37-2.44c-0.14-0.75-0.21-1.19-0.21-1.32c0-0.26,0.11-0.39,0.33-0.39s0.35,0.2,0.37,0.61l0.12,0.77
				c0.61-0.25,1.18-0.38,1.69-0.38l0.45,0.02l0.19-0.83c0.06-0.32,0.19-0.48,0.4-0.48c0.23,0,0.35,0.12,0.35,0.37
				c0,0.08-0.09,0.43-0.27,1.05c1.34,0.45,2.02,1.31,2.02,2.59c0,0.97-0.45,1.73-1.34,2.27c-0.64,0.39-1.23,0.58-1.76,0.58
				c-0.26,0-0.38-0.12-0.38-0.38c0-0.18,0.14-0.3,0.43-0.34c1.54-0.25,2.31-0.99,2.31-2.2C28.67,3.66,28.18,3.02,27.21,2.71z
				 M24.16,3.34c-0.58,0.52-0.87,1.11-0.87,1.77c0,0.73,0.25,1.09,0.76,1.09c0.28,0,0.61-0.19,0.98-0.58
				C24.62,4.8,24.34,4.04,24.16,3.34z M26.54,2.6l-0.23-0.01c-0.5,0-1.03,0.12-1.59,0.38c0.15,0.67,0.39,1.36,0.73,2.08
				C25.86,4.37,26.23,3.55,26.54,2.6z"/>
			<path d="M33.56,1.25V0.79c0-0.2,0.12-0.3,0.37-0.3c0.24,0,0.37,0.1,0.37,0.3v0.45h2.62c0.24,0,0.36,0.1,0.36,0.3
				s-0.12,0.3-0.36,0.3h-5.25c-0.23,0-0.34,0.11-0.34,0.34l0.02,1.3c0,1.33-0.1,2.36-0.3,3.09s-0.43,1.1-0.68,1.1
				C30.12,7.66,30,7.54,30,7.31c0-0.08,0.04-0.19,0.12-0.34c0.37-0.7,0.55-1.94,0.55-3.7l-0.02-1.28c0-0.49,0.26-0.74,0.78-0.74
				C31.43,1.25,33.56,1.25,33.56,1.25z M34.57,5.9v0.98h2.41c0.25,0,0.38,0.1,0.38,0.31c0,0.2-0.12,0.3-0.38,0.3H31.6
				c-0.25,0-0.38-0.1-0.38-0.3c0-0.21,0.12-0.31,0.38-0.31h2.34V5.9h-1.8c-0.25,0-0.37-0.1-0.37-0.3c0-0.2,0.12-0.3,0.37-0.3h1.8
				V2.43c0-0.25,0.11-0.38,0.32-0.38s0.31,0.13,0.31,0.38V5.3h1.86c0.24,0,0.37,0.1,0.37,0.3c0,0.2-0.12,0.3-0.37,0.3
				C36.43,5.9,34.57,5.9,34.57,5.9z M32.74,3.33c0.68,0.65,1.02,1.08,1.02,1.29s-0.1,0.31-0.31,0.31c-0.11,0-0.21-0.08-0.31-0.25
				c-0.12-0.21-0.32-0.49-0.59-0.84C32.22,4.62,31.95,5,31.75,5c-0.19,0-0.29-0.1-0.29-0.3c0-0.08,0.05-0.19,0.14-0.31
				c0.31-0.45,0.58-1.08,0.81-1.89c0.05-0.19,0.15-0.28,0.3-0.28c0.2,0,0.3,0.1,0.3,0.3C33,2.58,32.91,2.85,32.74,3.33z M36.08,3.31
				c0.82,0.74,1.23,1.2,1.23,1.37c0,0.21-0.11,0.31-0.32,0.31c-0.1,0-0.21-0.09-0.34-0.27c-0.27-0.35-0.53-0.65-0.77-0.91
				c-0.35,0.76-0.63,1.14-0.84,1.14c-0.19,0-0.29-0.1-0.29-0.3c0-0.07,0.04-0.16,0.12-0.27c0.34-0.48,0.62-1.1,0.82-1.84
				c0.06-0.21,0.17-0.32,0.34-0.32c0.2,0,0.3,0.1,0.3,0.29C36.33,2.59,36.25,2.86,36.08,3.31z"/>
			<path d="M4.5,40.97c-0.63-0.25-0.95-0.7-0.95-1.34c0-0.43,0.15-0.79,0.44-1.08s0.68-0.44,1.16-0.44s0.87,0.15,1.16,0.44
				c0.29,0.29,0.44,0.65,0.44,1.07c0,0.65-0.31,1.1-0.94,1.34c0.73,0.28,1.09,0.8,1.09,1.55c0,0.5-0.15,0.91-0.46,1.23
				s-0.74,0.48-1.29,0.48c-0.56,0-1-0.16-1.3-0.48s-0.46-0.73-0.46-1.23C3.4,41.77,3.77,41.25,4.5,40.97z M5.14,41.29
				c-0.28,0-0.51,0.11-0.71,0.32s-0.29,0.51-0.29,0.89c0,0.75,0.34,1.12,1.02,1.12s1.02-0.39,1.02-1.16c0-0.36-0.1-0.65-0.3-0.86
				C5.67,41.4,5.42,41.29,5.14,41.29z M5.14,38.73c-0.59,0-0.88,0.32-0.88,0.95c0,0.29,0.09,0.52,0.27,0.7
				c0.18,0.17,0.39,0.26,0.63,0.26c0.27,0,0.48-0.09,0.65-0.27s0.25-0.41,0.25-0.69C6.05,39.04,5.75,38.73,5.14,38.73z"/>
			<path d="M10.36,37.5c0.19,0,0.28,0.09,0.28,0.27c0,0.05-0.02,0.11-0.05,0.18l-2.7,6.68c-0.06,0.16-0.16,0.23-0.29,0.23
				c-0.19,0-0.28-0.09-0.28-0.27c0-0.05,0.01-0.11,0.04-0.18l2.7-6.68C10.14,37.58,10.23,37.5,10.36,37.5z"/>
			<path d="M11.94,43.5h2.03c0.25,0,0.38,0.1,0.38,0.31c0,0.21-0.13,0.31-0.38,0.31h-2.35c-0.35,0-0.53-0.15-0.53-0.45
				c0-0.14,0.15-0.38,0.45-0.72c0.81-0.92,1.39-1.68,1.74-2.3c0.18-0.32,0.27-0.66,0.27-1c0-0.27-0.07-0.49-0.22-0.66
				c-0.15-0.17-0.33-0.25-0.55-0.25c-0.45,0-0.72,0.28-0.81,0.84c-0.05,0.3-0.19,0.45-0.42,0.45c-0.26,0-0.38-0.13-0.38-0.38
				c0-0.17,0.05-0.37,0.16-0.61c0.29-0.62,0.78-0.93,1.48-0.93c0.46,0,0.83,0.14,1.11,0.42s0.43,0.62,0.43,1.03
				c0,0.69-0.48,1.63-1.44,2.8L11.94,43.5z"/>
			<path d="M17.31,41.04c0.7,0.23,1.05,0.73,1.05,1.48c0,0.51-0.15,0.92-0.46,1.24s-0.73,0.48-1.29,0.48
				c-0.49,0-0.88-0.15-1.18-0.45C15.15,43.5,15,43.19,15,42.86c0-0.25,0.13-0.38,0.4-0.38c0.18,0,0.33,0.19,0.45,0.58
				c0.12,0.39,0.38,0.58,0.79,0.58c0.29,0,0.53-0.11,0.71-0.33c0.18-0.22,0.27-0.5,0.27-0.84c0-0.53-0.2-0.88-0.59-1.03
				c-0.16-0.07-0.43-0.1-0.81-0.1c-0.2,0-0.3-0.11-0.3-0.33c0-0.21,0.1-0.32,0.3-0.32l0.41,0.02c0.6,0,0.91-0.35,0.91-1.04
				c0-0.64-0.27-0.96-0.8-0.96c-0.22,0-0.38,0.05-0.48,0.16c-0.1,0.1-0.21,0.34-0.34,0.7c-0.06,0.17-0.17,0.25-0.35,0.25
				c-0.23,0-0.34-0.11-0.34-0.34c0-0.33,0.14-0.64,0.41-0.93c0.27-0.29,0.64-0.43,1.12-0.43c0.48,0,0.86,0.14,1.13,0.43
				c0.27,0.29,0.4,0.64,0.4,1.06c0,0.69-0.29,1.16-0.88,1.4L17.31,41.04z"/>
			<path d="M25.76,40.35c0.21,0,0.31,0.11,0.31,0.33c0,0.12-0.14,0.34-0.41,0.63c-0.48,0.53-1.05,0.8-1.71,0.8
				c-0.28,0-0.55-0.06-0.82-0.19l-1.07-0.72c-0.29-0.2-0.57-0.3-0.83-0.3c-0.34,0-0.66,0.12-0.97,0.38
				c-0.09,0.07-0.27,0.27-0.54,0.59c-0.08,0.1-0.17,0.15-0.26,0.15c-0.21,0-0.31-0.11-0.31-0.32c0-0.09,0.08-0.24,0.25-0.45
				c0.53-0.67,1.16-1,1.88-1c0.31,0,0.64,0.11,0.99,0.34l0.9,0.59c0.27,0.18,0.53,0.27,0.78,0.27c0.44,0,0.83-0.19,1.19-0.56
				l0.34-0.38C25.58,40.4,25.67,40.35,25.76,40.35z"/>
			<path d="M29.45,41.54c-0.34,0.44-0.74,0.66-1.21,0.66c-0.42,0-0.74-0.18-0.98-0.54c-0.23-0.36-0.35-0.83-0.35-1.43
				c0-0.65,0.14-1.17,0.43-1.55s0.68-0.57,1.18-0.57c1.13,0,1.7,0.96,1.7,2.88c0,2.17-0.63,3.25-1.88,3.25
				c-0.57,0-0.98-0.25-1.23-0.74c-0.1-0.2-0.16-0.37-0.16-0.5c0-0.24,0.12-0.36,0.37-0.36c0.2,0,0.33,0.13,0.39,0.38
				c0.09,0.42,0.31,0.62,0.66,0.62C29.01,43.65,29.37,42.95,29.45,41.54z M29.47,40.77c0-1.38-0.31-2.06-0.93-2.06
				c-0.58,0-0.87,0.5-0.87,1.49c0,0.94,0.24,1.41,0.73,1.41c0.36,0,0.7-0.26,1.03-0.77L29.47,40.77z"/>
			<path d="M33.62,37.5c0.19,0,0.28,0.09,0.28,0.27c0,0.05-0.02,0.11-0.05,0.18l-2.7,6.68c-0.06,0.16-0.16,0.23-0.29,0.23
				c-0.19,0-0.28-0.09-0.28-0.27c0-0.05,0.01-0.11,0.04-0.18l2.7-6.68C33.39,37.58,33.49,37.5,33.62,37.5z"/>
			<path d="M35.2,43.5h2.03c0.25,0,0.38,0.1,0.38,0.31c0,0.21-0.13,0.31-0.38,0.31h-2.35c-0.35,0-0.53-0.15-0.53-0.45
				c0-0.14,0.15-0.38,0.45-0.72c0.81-0.92,1.39-1.68,1.74-2.3c0.18-0.32,0.27-0.66,0.27-1c0-0.27-0.07-0.49-0.22-0.66
				s-0.33-0.25-0.55-0.25c-0.45,0-0.72,0.28-0.81,0.84c-0.05,0.3-0.19,0.45-0.42,0.45c-0.26,0-0.38-0.13-0.38-0.38
				c0-0.17,0.05-0.37,0.16-0.61c0.29-0.62,0.78-0.93,1.48-0.93c0.46,0,0.83,0.14,1.11,0.42s0.43,0.62,0.43,1.03
				c0,0.69-0.48,1.63-1.44,2.8L35.2,43.5z"/>
			<path d="M39.24,43.5h2.03c0.25,0,0.38,0.1,0.38,0.31c0,0.21-0.13,0.31-0.38,0.31h-2.35c-0.35,0-0.53-0.15-0.53-0.45
				c0-0.14,0.15-0.38,0.45-0.72c0.81-0.92,1.39-1.68,1.74-2.3c0.18-0.32,0.27-0.66,0.27-1c0-0.27-0.07-0.49-0.22-0.66
				s-0.33-0.25-0.55-0.25c-0.45,0-0.72,0.28-0.81,0.84c-0.05,0.3-0.19,0.45-0.42,0.45c-0.26,0-0.38-0.13-0.38-0.38
				c0-0.17,0.05-0.37,0.16-0.61c0.29-0.62,0.78-0.93,1.48-0.93c0.46,0,0.83,0.14,1.11,0.42s0.43,0.62,0.43,1.03
				c0,0.69-0.48,1.63-1.44,2.8L39.24,43.5z"/>
		</g>
	</g>
</g>
</svg>
