<?xml version="1.0" encoding="utf-8"?>
<!-- Generator: Adobe Illustrator 25.3.1, SVG Export Plug-In . SVG Version: 6.00 Build 0)  -->
<svg version="1.1" id="レイヤー_1" xmlns="http://www.w3.org/2000/svg" xmlns:xlink="http://www.w3.org/1999/xlink" x="0px"
	 y="0px" viewBox="0 0 45.35 45.35" style="enable-background:new 0 0 45.35 45.35;" xml:space="preserve">
<style type="text/css">
	.st0{fill:#FFFFFF;}
</style>
<g id="背景">
	<g>
		<rect y="0" class="st0" width="45.35" height="45.35"/>
	</g>
</g>
<g id="oushi">
	<g>
		<path d="M35.02,12.32c-1.08,0-2.01,0.2-2.8,0.59s-1.45,0.87-1.97,1.43c-0.53,0.56-1.13,1.31-1.81,2.24
			c-1.06,1.45-1.9,2.39-2.52,2.83c1.49,0.67,2.66,1.67,3.51,2.99s1.28,2.77,1.28,4.33c0,2.2-0.79,4.09-2.36,5.66
			s-3.46,2.36-5.66,2.36s-4.09-0.79-5.66-2.36s-2.36-3.46-2.36-5.66c0-1.57,0.42-3.01,1.27-4.32c0.85-1.31,2.01-2.3,3.5-2.96
			c-0.61-0.44-1.45-1.39-2.5-2.84c-0.69-0.94-1.3-1.69-1.82-2.26c-0.52-0.56-1.18-1.04-1.97-1.43s-1.72-0.59-2.8-0.59v-2.09
			c1.37,0,2.56,0.25,3.57,0.76c1.01,0.5,1.84,1.1,2.5,1.8s1.39,1.59,2.2,2.69c1.07,1.45,1.88,2.35,2.43,2.71
			c0.55,0.35,1.1,0.53,1.64,0.53c0.53,0,1.08-0.18,1.63-0.53s1.37-1.25,2.43-2.71c0.79-1.1,1.52-2,2.18-2.69s1.5-1.29,2.51-1.8
			c1.02-0.5,2.21-0.76,3.58-0.76C35.02,10.24,35.02,12.32,35.02,12.32z M22.68,32.75c1.63,0,3.03-0.59,4.19-1.76s1.74-2.6,1.74-4.26
			s-0.58-3.09-1.74-4.26s-2.55-1.76-4.19-1.76s-3.03,0.59-4.19,1.76s-1.74,2.6-1.74,4.26s0.58,3.09,1.74,4.26
			S21.04,32.75,22.68,32.75z"/>
		<g>
			<path d="M10.43,2.28H8.77c-0.27,0-0.41-0.11-0.41-0.33S8.5,1.61,8.77,1.61h1.66V1.08c0-0.28,0.11-0.42,0.34-0.42
				c0.23,0,0.34,0.14,0.34,0.42v0.53h1.67c0.27,0,0.4,0.11,0.4,0.34c0,0.22-0.13,0.33-0.4,0.33h-1.67v1.27
				c0.33-0.06,0.65-0.09,0.95-0.09c0.81,0,1.46,0.18,1.96,0.53s0.75,0.87,0.75,1.54c0,0.56-0.17,1.01-0.52,1.35
				c-0.35,0.34-0.78,0.51-1.28,0.51c-0.88,0-1.31-0.17-1.31-0.5c0-0.23,0.1-0.34,0.3-0.34c0.09,0,0.23,0.02,0.4,0.07
				s0.35,0.07,0.52,0.07c0.35,0,0.63-0.11,0.85-0.34c0.22-0.22,0.32-0.51,0.32-0.87c0-0.95-0.68-1.43-2.05-1.43
				c-0.27,0-0.56,0.03-0.88,0.1v2.26c-0.01,0.73-0.37,1.09-1.1,1.09c-0.46,0-0.86-0.17-1.18-0.52C8.51,6.64,8.35,6.23,8.35,5.76
				c0-0.45,0.19-0.86,0.57-1.23C9.29,4.16,9.8,3.88,10.43,3.7V2.28z M10.43,4.34C9.47,4.72,8.99,5.21,8.99,5.82
				c0,0.28,0.1,0.52,0.29,0.72c0.2,0.21,0.42,0.31,0.67,0.31c0.32,0,0.48-0.21,0.48-0.62C10.43,6.23,10.43,4.34,10.43,4.34z
				 M13.68,1.05c0.13,0,0.28,0.09,0.46,0.28l0.49,0.48c0.28,0.28,0.42,0.5,0.42,0.65c0,0.21-0.12,0.32-0.37,0.32
				c-0.13,0-0.26-0.09-0.39-0.26s-0.27-0.33-0.4-0.48c-0.14-0.15-0.26-0.28-0.39-0.4c-0.12-0.12-0.18-0.22-0.18-0.3
				C13.32,1.15,13.44,1.05,13.68,1.05z"/>
			<path d="M19.21,2.49c1.6,0,2.41,0.68,2.41,2.03c0,1.18-0.64,2.07-1.91,2.66c-0.78,0.36-1.45,0.55-2.01,0.55
				c-0.27,0-0.4-0.13-0.4-0.38c0-0.19,0.17-0.31,0.52-0.36c0.87-0.11,1.59-0.39,2.15-0.84c0.56-0.44,0.85-0.99,0.85-1.65
				c0-0.89-0.54-1.33-1.62-1.33c-0.76,0-1.57,0.17-2.43,0.5c-0.15,0.06-0.26,0.09-0.35,0.09c-0.23,0-0.34-0.12-0.34-0.37
				c0-0.21,0.23-0.39,0.7-0.52C17.68,2.62,18.5,2.49,19.21,2.49z M17.58,0.7c0.65,0,1.47,0.08,2.48,0.23
				c0.6,0.09,0.91,0.24,0.91,0.44c0,0.26-0.12,0.38-0.35,0.38c-0.07,0-0.17-0.02-0.28-0.05c-0.75-0.21-1.66-0.32-2.72-0.33
				c-0.36,0-0.54-0.11-0.54-0.31C17.07,0.82,17.24,0.7,17.58,0.7z"/>
			<path d="M24.28,0.65c0.24,0,0.37,0.12,0.37,0.35l-0.04,0.37c-0.15,0.9-0.23,1.94-0.23,3.12c0,0.87,0.09,1.45,0.27,1.73
				c0.24,0.37,0.68,0.55,1.34,0.55c0.53,0,0.99-0.16,1.38-0.47s0.66-0.71,0.84-1.19c0.12-0.35,0.28-0.52,0.46-0.52
				c0.25,0,0.38,0.12,0.38,0.37c0,0.2-0.13,0.53-0.39,1C28.08,6.98,27.19,7.5,26,7.5c-0.8,0-1.4-0.19-1.79-0.57
				s-0.59-1.09-0.59-2.13c0-1.24,0.07-2.4,0.2-3.47C23.88,0.87,24.03,0.65,24.28,0.65z"/>
			<path d="M33.38,1.25V0.79c0-0.2,0.12-0.3,0.37-0.3c0.24,0,0.37,0.1,0.37,0.3v0.45h2.62c0.24,0,0.36,0.1,0.36,0.3
				s-0.12,0.3-0.36,0.3h-5.25c-0.23,0-0.34,0.11-0.34,0.34l0.02,1.3c0,1.33-0.1,2.36-0.3,3.09s-0.43,1.1-0.68,1.1
				c-0.23,0-0.35-0.12-0.35-0.35c0-0.08,0.04-0.19,0.12-0.34c0.37-0.7,0.55-1.94,0.55-3.7L30.49,2c0-0.49,0.26-0.74,0.78-0.74
				L33.38,1.25L33.38,1.25z M34.39,5.9v0.98h2.41c0.25,0,0.38,0.1,0.38,0.31c0,0.2-0.12,0.3-0.38,0.3h-5.38
				c-0.25,0-0.38-0.1-0.38-0.3c0-0.21,0.12-0.31,0.38-0.31h2.34V5.9h-1.8c-0.25,0-0.37-0.1-0.37-0.3c0-0.2,0.12-0.3,0.37-0.3h1.8
				V2.43c0-0.25,0.11-0.38,0.32-0.38s0.31,0.13,0.31,0.38V5.3h1.86c0.24,0,0.37,0.1,0.37,0.3c0,0.2-0.12,0.3-0.37,0.3
				C36.25,5.9,34.39,5.9,34.39,5.9z M32.55,3.33c0.68,0.65,1.02,1.08,1.02,1.29s-0.1,0.31-0.31,0.31c-0.11,0-0.21-0.08-0.31-0.25
				c-0.12-0.21-0.32-0.49-0.59-0.84C32.03,4.62,31.76,5,31.56,5c-0.19,0-0.29-0.1-0.29-0.3c0-0.08,0.05-0.19,0.14-0.31
				c0.31-0.45,0.58-1.08,0.81-1.89c0.05-0.19,0.15-0.28,0.3-0.28c0.2,0,0.3,0.1,0.3,0.3C32.82,2.58,32.73,2.85,32.55,3.33z
				 M35.9,3.31c0.82,0.74,1.23,1.2,1.23,1.37c0,0.21-0.11,0.31-0.32,0.31c-0.1,0-0.21-0.09-0.34-0.27
				c-0.27-0.35-0.53-0.65-0.77-0.91c-0.35,0.76-0.63,1.14-0.84,1.14c-0.19,0-0.29-0.1-0.29-0.3c0-0.07,0.04-0.16,0.12-0.27
				c0.34-0.48,0.62-1.1,0.82-1.84c0.06-0.21,0.17-0.32,0.34-0.32c0.2,0,0.3,0.1,0.3,0.29C36.15,2.59,36.06,2.86,35.9,3.31z"/>
			<path d="M6.3,42.15h0.33c0.25,0,0.38,0.1,0.38,0.31c0,0.21-0.13,0.31-0.38,0.31H6.3v1.05c0,0.28-0.11,0.41-0.34,0.41
				s-0.34-0.14-0.34-0.41v-1.05H3.9c-0.32,0-0.48-0.15-0.48-0.46c0-0.11,0.03-0.22,0.09-0.33l1.89-3.55
				c0.11-0.22,0.27-0.33,0.45-0.33c0.3,0,0.45,0.18,0.45,0.53C6.3,38.63,6.3,42.15,6.3,42.15z M4.12,42.15h1.49v-2.83L4.12,42.15z"
				/>
			<path d="M10.36,37.5c0.19,0,0.28,0.09,0.28,0.27c0,0.05-0.02,0.11-0.05,0.18l-2.7,6.68c-0.06,0.16-0.16,0.23-0.29,0.23
				c-0.19,0-0.28-0.09-0.28-0.27c0-0.05,0.01-0.11,0.04-0.18l2.7-6.68C10.14,37.58,10.23,37.5,10.36,37.5z"/>
			<path d="M11.95,43.51h2.03c0.25,0,0.38,0.1,0.38,0.31c0,0.21-0.13,0.31-0.38,0.31h-2.35c-0.35,0-0.53-0.15-0.53-0.45
				c0-0.14,0.15-0.38,0.45-0.72c0.81-0.92,1.39-1.68,1.74-2.3c0.18-0.32,0.27-0.66,0.27-1c0-0.27-0.07-0.49-0.22-0.66
				c-0.15-0.17-0.33-0.25-0.55-0.25c-0.45,0-0.72,0.28-0.81,0.84c-0.05,0.3-0.19,0.45-0.42,0.45c-0.26,0-0.38-0.13-0.38-0.38
				c0-0.17,0.05-0.37,0.16-0.61c0.29-0.62,0.78-0.93,1.48-0.93c0.46,0,0.83,0.14,1.11,0.42s0.43,0.62,0.43,1.03
				c0,0.69-0.48,1.63-1.44,2.8L11.95,43.51z"/>
			<path d="M16.76,38.11c0.61,0,1.04,0.27,1.27,0.81c0.23,0.54,0.35,1.3,0.35,2.27c0,1.08-0.13,1.86-0.4,2.34
				c-0.27,0.47-0.69,0.71-1.26,0.71s-0.99-0.24-1.26-0.72s-0.4-1.25-0.4-2.3c0-1.04,0.12-1.81,0.37-2.33
				C15.69,38.37,16.13,38.11,16.76,38.11z M16.71,38.75c-0.59,0-0.88,0.81-0.88,2.43s0.3,2.43,0.9,2.43s0.9-0.81,0.9-2.45
				C17.63,39.55,17.32,38.75,16.71,38.75z"/>
			<path d="M25.83,40.35c0.21,0,0.31,0.11,0.31,0.33c0,0.12-0.14,0.34-0.41,0.63c-0.48,0.53-1.05,0.8-1.71,0.8
				c-0.28,0-0.55-0.06-0.82-0.19l-1.07-0.72c-0.29-0.2-0.57-0.3-0.83-0.3c-0.34,0-0.66,0.12-0.97,0.38
				c-0.09,0.07-0.27,0.27-0.54,0.59c-0.08,0.1-0.17,0.15-0.26,0.15c-0.21,0-0.31-0.11-0.31-0.32c0-0.09,0.08-0.24,0.25-0.45
				c0.53-0.67,1.16-1,1.88-1c0.31,0,0.64,0.11,0.99,0.34l0.9,0.59c0.27,0.18,0.53,0.27,0.78,0.27c0.44,0,0.83-0.19,1.19-0.56
				l0.34-0.38C25.65,40.4,25.74,40.35,25.83,40.35z"/>
			<path d="M27.78,40.74c0.29-0.38,0.64-0.56,1.07-0.56s0.77,0.18,1.01,0.54s0.36,0.84,0.36,1.44c0,1.39-0.57,2.09-1.72,2.09
				c-0.64,0-1.1-0.24-1.38-0.72c-0.14-0.23-0.2-0.42-0.2-0.59c0-0.27,0.12-0.41,0.36-0.41c0.19,0,0.34,0.18,0.46,0.54
				c0.12,0.36,0.38,0.54,0.77,0.54c0.65,0,0.97-0.49,0.97-1.48c0-0.91-0.25-1.37-0.75-1.37c-0.38,0-0.67,0.26-0.86,0.78
				c-0.06,0.17-0.19,0.26-0.38,0.26c-0.27,0-0.4-0.16-0.4-0.48v-2.43c0-0.18,0.06-0.34,0.2-0.47c0.13-0.13,0.29-0.2,0.47-0.2h1.95
				c0.25,0,0.38,0.11,0.38,0.32s-0.12,0.32-0.38,0.32h-1.67c-0.17,0-0.26,0.08-0.25,0.25v1.63H27.78z"/>
			<path d="M33.7,37.5c0.19,0,0.28,0.09,0.28,0.27c0,0.05-0.02,0.11-0.05,0.18l-2.7,6.68c-0.06,0.16-0.16,0.23-0.29,0.23
				c-0.19,0-0.28-0.09-0.28-0.27c0-0.05,0.01-0.11,0.04-0.18l2.7-6.68C33.47,37.58,33.57,37.5,33.7,37.5z"/>
			<path d="M35.28,43.51h2.03c0.25,0,0.38,0.1,0.38,0.31c0,0.21-0.13,0.31-0.38,0.31h-2.35c-0.35,0-0.53-0.15-0.53-0.45
				c0-0.14,0.15-0.38,0.45-0.72c0.81-0.92,1.39-1.68,1.74-2.3c0.18-0.32,0.27-0.66,0.27-1c0-0.27-0.07-0.49-0.22-0.66
				s-0.33-0.25-0.55-0.25c-0.45,0-0.72,0.28-0.81,0.84c-0.05,0.3-0.19,0.45-0.42,0.45c-0.26,0-0.38-0.13-0.38-0.38
				c0-0.17,0.05-0.37,0.16-0.61c0.29-0.62,0.78-0.93,1.48-0.93c0.46,0,0.83,0.14,1.11,0.42s0.43,0.62,0.43,1.03
				c0,0.69-0.48,1.63-1.44,2.8L35.28,43.51z"/>
			<path d="M40.1,38.11c0.61,0,1.04,0.27,1.27,0.81s0.35,1.3,0.35,2.27c0,1.08-0.13,1.86-0.4,2.34c-0.27,0.47-0.69,0.71-1.26,0.71
				S39.07,44,38.8,43.52c-0.27-0.48-0.4-1.25-0.4-2.3c0-1.04,0.12-1.81,0.37-2.33C39.03,38.37,39.46,38.11,40.1,38.11z M40.05,38.75
				c-0.59,0-0.88,0.81-0.88,2.43s0.3,2.43,0.9,2.43c0.6,0,0.9-0.81,0.9-2.45C40.96,39.55,40.66,38.75,40.05,38.75z"/>
		</g>
	</g>
</g>
</svg>
