<?xml version="1.0" encoding="utf-8"?>
<!-- Generator: Adobe Illustrator 25.3.1, SVG Export Plug-In . SVG Version: 6.00 Build 0)  -->
<svg version="1.1" id="レイヤー_1" xmlns="http://www.w3.org/2000/svg" xmlns:xlink="http://www.w3.org/1999/xlink" x="0px"
	 y="0px" viewBox="0 0 45.35 45.35" style="enable-background:new 0 0 45.35 45.35;" xml:space="preserve">
<style type="text/css">
	.st0{fill:#FFFFFF;}
</style>
<g id="背景">
	<g>
		<rect y="0" class="st0" width="45.35" height="45.35"/>
	</g>
</g>
<g id="sasori">
	<g>
		<path d="M40.54,34.78l-1.53-1.57c-1.72,1.8-3.57,2.71-5.55,2.71c-1.71,0-3.13-0.58-4.25-1.74c-1.12-1.16-1.68-2.77-1.68-4.85
			V15.16c0-1.11-0.39-2.08-1.17-2.89c-0.78-0.82-1.71-1.23-2.8-1.23c-1.08,0-2.01,0.41-2.8,1.23c-0.79,0.82-1.18,1.78-1.18,2.89
			v18.26h-2.09V15.16c0-1.11-0.39-2.08-1.17-2.89c-0.78-0.82-1.71-1.23-2.79-1.23s-2.01,0.41-2.79,1.23s-1.17,1.78-1.17,2.89v18.26
			h-2.1V15.16c0-2.75-0.89-4.12-2.66-4.12V9.05c0.87,0,1.72,0.27,2.53,0.81s1.34,1.17,1.59,1.88c0.37-0.78,0.99-1.43,1.85-1.93
			c0.86-0.5,1.77-0.76,2.75-0.76c2.36,0,4.03,1.06,5.02,3.18c0.99-2.12,2.66-3.18,5.02-3.18c1.67,0,3.1,0.56,4.28,1.69
			s1.78,2.6,1.78,4.42v14.18c0,1.52,0.34,2.67,1.01,3.45c0.68,0.78,1.61,1.17,2.82,1.17c0.71,0,1.37-0.14,1.96-0.43
			c0.59-0.28,1.31-0.86,2.16-1.74l-1.57-1.53h4.53V34.78z"/>
		<g>
			<path d="M11.94,2.58h-3.1c-0.29,0-0.43-0.12-0.43-0.35s0.14-0.34,0.43-0.34h2.76l-0.2-0.41c-0.14-0.28-0.21-0.47-0.21-0.56
				c0-0.21,0.12-0.31,0.36-0.31c0.2,0,0.36,0.15,0.48,0.46s0.25,0.58,0.38,0.83h1.95c0.28,0,0.42,0.12,0.42,0.35
				s-0.14,0.34-0.42,0.34h-1.6l0.01,0.02c0.44,0.82,0.78,1.37,1.02,1.64s0.36,0.46,0.36,0.55c0,0.22-0.11,0.33-0.33,0.33
				c-0.13,0-0.33-0.06-0.59-0.18s-0.57-0.21-0.91-0.28c-0.35-0.06-0.73-0.09-1.16-0.09c-0.54,0-0.95,0.1-1.23,0.29
				C9.64,5.06,9.5,5.31,9.5,5.61c0,0.77,0.87,1.15,2.61,1.15c0.39,0,0.74-0.02,1.05-0.07l0.23-0.02c0.23,0,0.35,0.12,0.35,0.37
				c0,0.16-0.07,0.27-0.22,0.33c-0.15,0.06-0.61,0.09-1.4,0.09c-1.12,0-1.96-0.15-2.53-0.45C9.02,6.7,8.74,6.25,8.74,5.64
				c0-0.53,0.23-0.95,0.68-1.25c0.46-0.3,1.06-0.45,1.82-0.45c0.55,0,1.1,0.09,1.65,0.28C12.47,3.53,12.15,2.99,11.94,2.58z"/>
			<path d="M19.36,4.04L15.92,4.4L15.8,4.42c-0.22,0-0.33-0.12-0.33-0.36c0-0.18,0.15-0.32,0.45-0.43c0.3-0.1,0.67-0.25,1.11-0.46
				c0.43-0.21,0.94-0.47,1.51-0.8c0.75-0.43,1.13-0.67,1.13-0.72c0-0.04-0.02-0.05-0.07-0.05h-2.39c-0.28,0-0.41-0.11-0.41-0.34
				c0-0.22,0.14-0.34,0.41-0.34h3.31c0.36,0,0.55,0.12,0.55,0.37c0,0.18-0.44,0.53-1.32,1.05c-0.88,0.53-1.76,0.97-2.64,1.34
				l4.73-0.49h0.09c0.22,0.01,0.33,0.11,0.33,0.31c0,0.19-0.12,0.29-0.36,0.32l-1,0.1c-0.54,0.06-1.07,0.26-1.58,0.62
				s-0.77,0.76-0.77,1.2c0,0.71,0.64,1.1,1.91,1.16c0.31,0.02,0.46,0.13,0.46,0.35c0,0.24-0.17,0.37-0.51,0.37
				c-0.76,0-1.38-0.15-1.87-0.45c-0.49-0.3-0.73-0.74-0.73-1.3C17.81,5.12,18.32,4.51,19.36,4.04z"/>
			<path d="M25.63,3.68c0.22,0,0.34,0.11,0.34,0.34s-0.13,0.54-0.38,0.92s-0.55,0.57-0.89,0.57c-0.65,0-0.98-0.54-0.98-1.62
				c0-0.53,0.07-1.3,0.2-2.34C23.97,1.18,24.1,1,24.31,1c0.24,0,0.37,0.1,0.37,0.3c0,0.1-0.02,0.25-0.05,0.43
				c-0.14,0.67-0.2,1.45-0.2,2.32c0,0.41,0.12,0.62,0.35,0.62c0.17,0,0.35-0.24,0.52-0.72C25.35,3.76,25.47,3.68,25.63,3.68z
				 M28.37,0.82c0.26,0,0.39,0.19,0.4,0.55l0.09,1.98l0.01,0.54c0,1.15-0.19,1.97-0.57,2.46c-0.38,0.5-1.02,0.89-1.94,1.2
				c-0.27,0.09-0.47,0.13-0.59,0.13c-0.31,0-0.46-0.14-0.46-0.41c0-0.18,0.15-0.3,0.46-0.36c0.75-0.15,1.33-0.43,1.73-0.83
				s0.61-1.1,0.61-2.09l-0.05-1.55l-0.07-1.25C27.99,0.94,28.12,0.82,28.37,0.82z"/>
			<path d="M33.51,1.25V0.79c0-0.2,0.12-0.3,0.37-0.3c0.24,0,0.37,0.1,0.37,0.3v0.45h2.62c0.24,0,0.36,0.1,0.36,0.3
				s-0.12,0.3-0.36,0.3h-5.25c-0.23,0-0.34,0.11-0.34,0.34l0.02,1.3c0,1.33-0.1,2.36-0.3,3.09s-0.43,1.1-0.68,1.1
				c-0.23,0-0.35-0.12-0.35-0.35c0-0.08,0.04-0.19,0.12-0.34c0.37-0.7,0.55-1.94,0.55-3.7L30.62,2c0-0.49,0.26-0.74,0.78-0.74
				L33.51,1.25L33.51,1.25z M34.51,5.9v0.98h2.41c0.25,0,0.38,0.1,0.38,0.31c0,0.2-0.12,0.3-0.38,0.3h-5.38
				c-0.25,0-0.38-0.1-0.38-0.3c0-0.21,0.12-0.31,0.38-0.31h2.34V5.9h-1.8c-0.25,0-0.37-0.1-0.37-0.3c0-0.2,0.12-0.3,0.37-0.3h1.8
				V2.43c0-0.25,0.11-0.38,0.32-0.38s0.31,0.13,0.31,0.38V5.3h1.86c0.24,0,0.37,0.1,0.37,0.3c0,0.2-0.12,0.3-0.37,0.3
				C36.37,5.9,34.51,5.9,34.51,5.9z M32.68,3.33c0.68,0.65,1.02,1.08,1.02,1.29s-0.1,0.31-0.31,0.31c-0.11,0-0.21-0.08-0.31-0.25
				c-0.12-0.21-0.32-0.49-0.59-0.84C32.16,4.62,31.89,5,31.69,5C31.5,5,31.4,4.9,31.4,4.7c0-0.08,0.05-0.19,0.14-0.31
				c0.31-0.45,0.58-1.08,0.81-1.89c0.05-0.19,0.15-0.28,0.3-0.28c0.2,0,0.3,0.1,0.3,0.3C32.94,2.58,32.86,2.85,32.68,3.33z
				 M36.02,3.31c0.82,0.74,1.23,1.2,1.23,1.37c0,0.21-0.11,0.31-0.32,0.31c-0.1,0-0.21-0.09-0.34-0.27
				c-0.27-0.35-0.53-0.65-0.77-0.91c-0.35,0.76-0.63,1.14-0.84,1.14c-0.19,0-0.29-0.1-0.29-0.3c0-0.07,0.04-0.16,0.12-0.27
				c0.34-0.48,0.62-1.1,0.82-1.84c0.06-0.21,0.17-0.32,0.34-0.32c0.2,0,0.3,0.1,0.3,0.29C36.27,2.59,36.19,2.86,36.02,3.31z"/>
			<path d="M2.49,39.22c-0.26,0.31-0.48,0.46-0.65,0.46c-0.26,0-0.38-0.12-0.38-0.38c0-0.14,0.09-0.26,0.27-0.37
				c0.21-0.14,0.46-0.37,0.77-0.7c0.08-0.09,0.18-0.13,0.3-0.13c0.3,0,0.45,0.15,0.45,0.45v5.21c0,0.31-0.13,0.46-0.38,0.46
				s-0.38-0.15-0.38-0.46C2.49,43.76,2.49,39.22,2.49,39.22z"/>
			<path d="M6.26,38.11c0.61,0,1.04,0.27,1.27,0.81s0.35,1.3,0.35,2.27c0,1.08-0.13,1.86-0.4,2.34C7.22,44,6.8,44.24,6.23,44.24
				S5.24,44,4.97,43.52c-0.27-0.48-0.4-1.25-0.4-2.3c0-1.04,0.12-1.81,0.37-2.33S5.63,38.11,6.26,38.11z M6.21,38.75
				c-0.59,0-0.88,0.81-0.88,2.43s0.3,2.43,0.9,2.43s0.9-0.81,0.9-2.45C7.13,39.55,6.82,38.75,6.21,38.75z"/>
			<path d="M11.32,37.5c0.19,0,0.28,0.09,0.28,0.27c0,0.05-0.02,0.11-0.05,0.18l-2.7,6.68c-0.06,0.16-0.16,0.23-0.29,0.23
				c-0.19,0-0.28-0.09-0.28-0.27c0-0.05,0.01-0.11,0.04-0.18l2.7-6.68C11.09,37.58,11.19,37.5,11.32,37.5z"/>
			<path d="M12.9,43.51h2.03c0.25,0,0.38,0.1,0.38,0.31c0,0.21-0.13,0.31-0.38,0.31h-2.35c-0.35,0-0.53-0.15-0.53-0.45
				c0-0.14,0.15-0.38,0.45-0.72c0.81-0.92,1.39-1.68,1.74-2.3c0.18-0.32,0.27-0.66,0.27-1c0-0.27-0.07-0.49-0.22-0.66
				c-0.15-0.17-0.33-0.25-0.55-0.25c-0.45,0-0.72,0.28-0.81,0.84c-0.05,0.3-0.19,0.45-0.42,0.45c-0.26,0-0.38-0.13-0.38-0.38
				c0-0.17,0.05-0.37,0.16-0.61c0.29-0.62,0.78-0.93,1.48-0.93c0.46,0,0.83,0.14,1.11,0.42s0.43,0.62,0.43,1.03
				c0,0.69-0.48,1.63-1.44,2.8L12.9,43.51z"/>
			<path d="M18.45,42.15h0.33c0.25,0,0.38,0.1,0.38,0.31c0,0.21-0.13,0.31-0.38,0.31h-0.33v1.05c0,0.28-0.11,0.41-0.34,0.41
				s-0.34-0.14-0.34-0.41v-1.05h-1.71c-0.32,0-0.48-0.15-0.48-0.46c0-0.11,0.03-0.22,0.09-0.33l1.89-3.55
				c0.11-0.22,0.27-0.33,0.45-0.33c0.3,0,0.45,0.18,0.45,0.53v3.52H18.45z M16.27,42.15h1.49v-2.83L16.27,42.15z"/>
			<path d="M26.4,40.35c0.21,0,0.31,0.11,0.31,0.33c0,0.12-0.14,0.34-0.41,0.63c-0.48,0.53-1.05,0.8-1.71,0.8
				c-0.28,0-0.55-0.06-0.82-0.19L22.7,41.2c-0.29-0.2-0.57-0.3-0.83-0.3c-0.34,0-0.66,0.12-0.97,0.38
				c-0.09,0.07-0.27,0.27-0.54,0.59c-0.08,0.1-0.17,0.15-0.26,0.15c-0.21,0-0.31-0.11-0.31-0.32c0-0.09,0.08-0.24,0.25-0.45
				c0.53-0.67,1.16-1,1.88-1c0.31,0,0.64,0.11,0.99,0.34l0.9,0.59c0.27,0.18,0.53,0.27,0.78,0.27c0.44,0,0.83-0.19,1.19-0.56
				l0.34-0.38C26.22,40.4,26.31,40.35,26.4,40.35z"/>
			<path d="M28.53,39.22c-0.26,0.31-0.48,0.46-0.65,0.46c-0.26,0-0.38-0.12-0.38-0.38c0-0.14,0.09-0.26,0.27-0.37
				c0.21-0.14,0.46-0.37,0.77-0.7c0.08-0.09,0.18-0.13,0.3-0.13c0.3,0,0.45,0.15,0.45,0.45v5.21c0,0.31-0.13,0.46-0.38,0.46
				s-0.38-0.15-0.38-0.46C28.53,43.76,28.53,39.22,28.53,39.22z"/>
			<path d="M31.87,39.22c-0.26,0.31-0.48,0.46-0.65,0.46c-0.26,0-0.38-0.12-0.38-0.38c0-0.14,0.09-0.26,0.27-0.37
				c0.21-0.14,0.46-0.37,0.77-0.7c0.08-0.09,0.18-0.13,0.3-0.13c0.3,0,0.45,0.15,0.45,0.45v5.21c0,0.31-0.13,0.46-0.38,0.46
				s-0.38-0.15-0.38-0.46C31.87,43.76,31.87,39.22,31.87,39.22z"/>
			<path d="M36.83,37.5c0.19,0,0.28,0.09,0.28,0.27c0,0.05-0.02,0.11-0.05,0.18l-2.7,6.68c-0.06,0.16-0.16,0.23-0.29,0.23
				c-0.19,0-0.28-0.09-0.28-0.27c0-0.05,0.01-0.11,0.04-0.18l2.7-6.68C36.61,37.58,36.7,37.5,36.83,37.5z"/>
			<path d="M38.42,43.51h2.03c0.25,0,0.38,0.1,0.38,0.31c0,0.21-0.13,0.31-0.38,0.31H38.1c-0.35,0-0.53-0.15-0.53-0.45
				c0-0.14,0.15-0.38,0.45-0.72c0.81-0.92,1.39-1.68,1.74-2.3c0.18-0.32,0.27-0.66,0.27-1c0-0.27-0.07-0.49-0.22-0.66
				s-0.33-0.25-0.55-0.25c-0.45,0-0.72,0.28-0.81,0.84c-0.05,0.3-0.19,0.45-0.42,0.45c-0.26,0-0.38-0.13-0.38-0.38
				c0-0.17,0.05-0.37,0.16-0.61c0.29-0.62,0.78-0.93,1.48-0.93c0.46,0,0.83,0.14,1.11,0.42s0.43,0.62,0.43,1.03
				c0,0.69-0.48,1.63-1.44,2.8L38.42,43.51z"/>
			<path d="M42.91,39.22c-0.26,0.31-0.48,0.46-0.65,0.46c-0.26,0-0.38-0.12-0.38-0.38c0-0.14,0.09-0.26,0.27-0.37
				c0.21-0.14,0.46-0.37,0.77-0.7c0.08-0.09,0.18-0.13,0.3-0.13c0.3,0,0.45,0.15,0.45,0.45v5.21c0,0.31-0.13,0.46-0.38,0.46
				s-0.38-0.15-0.38-0.46C42.91,43.76,42.91,39.22,42.91,39.22z"/>
		</g>
	</g>
</g>
</svg>
