<?xml version="1.0" encoding="utf-8"?>
<!-- Generator: Adobe Illustrator 25.3.1, SVG Export Plug-In . SVG Version: 6.00 Build 0)  -->
<svg version="1.1" id="レイヤー_1" xmlns="http://www.w3.org/2000/svg" xmlns:xlink="http://www.w3.org/1999/xlink" x="0px"
	 y="0px" viewBox="0 0 45.35 45.35" style="enable-background:new 0 0 45.35 45.35;" xml:space="preserve">
<style type="text/css">
	.st0{fill:#FFFFFF;}
</style>
<g id="背景">
	<g>
		<rect y="0" class="st0" width="45.35" height="45.35"/>
	</g>
</g>
<g id="shishi">
	<g>
		<path d="M35.02,35.45c-0.7,0.53-1.61,0.8-2.72,0.8c-1.31,0-2.45-0.5-3.44-1.5s-1.48-2.25-1.48-3.76c0-1.02,0.09-1.13,0.28-2.32
			s0.64-1.88,1.35-4.07c0.7-2.14,1.14-3.79,1.32-4.93c0.18-1.14,0.26-2.2,0.26-3.17c0-4.53-1.58-5.79-4.75-5.79
			c-1.48,0-2.63,0.45-3.47,1.35c-0.84,0.9-1.26,2.14-1.26,3.7c0,1.5,0.37,2.41,1.11,4.74c0.68,2.16,1.02,3.88,1.02,5.17
			c0,1.77-0.63,3.29-1.9,4.55c-1.27,1.27-2.78,1.9-4.55,1.9s-3.29-0.63-4.55-1.9c-1.27-1.27-1.9-2.78-1.9-4.55s0.63-3.29,1.9-4.55
			c1.27-1.27,2.78-1.9,4.55-1.9c1.19,0,2.27,0.29,3.23,0.87c-0.67-1.99-1-2.76-1-4.33c0-2.12,0.62-3.83,1.86-5.12
			s2.9-2.07,4.97-1.93c5.01,0.34,7.07,2.98,6.84,7.78c-0.05,0.95-0.09,1.99-0.26,3.11c-0.18,1.12-0.61,2.74-1.3,4.86
			c-0.73,2.21-1.18,2.93-1.37,4.14s-0.28,1.34-0.28,2.39c0,0.99,0.28,1.78,0.83,2.38c0.56,0.6,1.22,0.9,1.99,0.9
			c1.17,0,2.08-0.22,2.72-0.66C35.02,33.61,35.02,35.45,35.02,35.45z M16.79,30.14c1.19,0,2.22-0.43,3.07-1.3
			c0.86-0.87,1.29-1.92,1.29-3.16s-0.43-2.29-1.28-3.16c-0.85-0.87-1.88-1.3-3.08-1.3s-2.23,0.44-3.08,1.31
			c-0.85,0.87-1.28,1.92-1.28,3.15c0,1.24,0.43,2.29,1.28,3.16C14.56,29.7,15.58,30.14,16.79,30.14z"/>
		<g>
			<path d="M13.52,0.65c0.24,0,0.37,0.12,0.37,0.35l-0.04,0.37c-0.15,0.9-0.23,1.94-0.23,3.12c0,0.87,0.09,1.45,0.27,1.73
				c0.24,0.37,0.68,0.55,1.34,0.55c0.53,0,0.99-0.16,1.38-0.47s0.66-0.71,0.84-1.19c0.12-0.35,0.28-0.52,0.46-0.52
				c0.25,0,0.38,0.12,0.38,0.37c0,0.2-0.13,0.53-0.39,1C17.32,7,16.44,7.51,15.24,7.51c-0.8,0-1.4-0.19-1.79-0.57
				s-0.59-1.09-0.59-2.13c0-1.24,0.07-2.4,0.2-3.47C13.12,0.87,13.27,0.65,13.52,0.65z"/>
			<path d="M20.69,0.65c0.24,0,0.37,0.12,0.37,0.35l-0.04,0.37c-0.15,0.9-0.23,1.94-0.23,3.12c0,0.87,0.09,1.45,0.27,1.73
				c0.24,0.37,0.68,0.55,1.34,0.55c0.53,0,0.99-0.16,1.38-0.47s0.66-0.71,0.84-1.19c0.12-0.35,0.28-0.52,0.46-0.52
				c0.25,0,0.38,0.12,0.38,0.37c0,0.2-0.13,0.53-0.39,1C24.49,6.98,23.6,7.5,22.41,7.5c-0.8,0-1.4-0.19-1.79-0.57
				s-0.59-1.09-0.59-2.13c0-1.24,0.07-2.4,0.2-3.47C20.29,0.87,20.44,0.65,20.69,0.65z"/>
			<path d="M29.79,1.25V0.79c0-0.2,0.12-0.3,0.37-0.3c0.24,0,0.37,0.1,0.37,0.3v0.45h2.62c0.24,0,0.36,0.1,0.36,0.3
				s-0.12,0.3-0.36,0.3H27.9c-0.23,0-0.34,0.11-0.34,0.34l0.02,1.3c0,1.33-0.1,2.36-0.3,3.09s-0.43,1.1-0.68,1.1
				c-0.23,0-0.35-0.12-0.35-0.35c0-0.08,0.04-0.19,0.12-0.34c0.37-0.7,0.55-1.94,0.55-3.7L26.9,2c0-0.49,0.26-0.74,0.78-0.74
				L29.79,1.25L29.79,1.25z M30.8,5.9v0.98h2.41c0.25,0,0.38,0.1,0.38,0.31c0,0.2-0.12,0.3-0.38,0.3h-5.38
				c-0.25,0-0.38-0.1-0.38-0.3c0-0.21,0.12-0.31,0.38-0.31h2.34V5.9h-1.8C28.12,5.9,28,5.8,28,5.6c0-0.2,0.12-0.3,0.37-0.3h1.8V2.43
				c0-0.25,0.11-0.38,0.32-0.38s0.31,0.13,0.31,0.38V5.3h1.86c0.24,0,0.37,0.1,0.37,0.3c0,0.2-0.12,0.3-0.37,0.3
				C32.66,5.9,30.8,5.9,30.8,5.9z M28.96,3.33c0.68,0.65,1.02,1.08,1.02,1.29s-0.1,0.31-0.31,0.31c-0.11,0-0.21-0.08-0.31-0.25
				c-0.12-0.21-0.32-0.49-0.59-0.84C28.44,4.62,28.17,5,27.97,5c-0.19,0-0.29-0.1-0.29-0.3c0-0.08,0.05-0.19,0.14-0.31
				c0.31-0.45,0.58-1.08,0.81-1.89c0.05-0.19,0.15-0.28,0.3-0.28c0.2,0,0.3,0.1,0.3,0.3C29.23,2.58,29.14,2.85,28.96,3.33z
				 M32.31,3.31c0.82,0.74,1.23,1.2,1.23,1.37c0,0.21-0.11,0.31-0.32,0.31c-0.1,0-0.21-0.09-0.34-0.27
				c-0.27-0.35-0.53-0.65-0.77-0.91c-0.35,0.76-0.63,1.14-0.84,1.14c-0.19,0-0.29-0.1-0.29-0.3c0-0.07,0.04-0.16,0.12-0.27
				c0.34-0.48,0.62-1.1,0.82-1.84c0.06-0.21,0.17-0.32,0.34-0.32c0.2,0,0.3,0.1,0.3,0.29C32.56,2.59,32.47,2.86,32.31,3.31z"/>
			<path d="M6.17,39.08l0.02-0.06c0-0.07-0.04-0.1-0.13-0.1h-1.8c-0.28,0-0.42-0.11-0.42-0.34s0.14-0.34,0.42-0.34h2.32
				c0.33,0,0.49,0.16,0.49,0.47c0,0.08-0.02,0.16-0.05,0.26l-1.9,4.95c-0.08,0.23-0.21,0.34-0.39,0.34c-0.24,0-0.36-0.11-0.36-0.34
				c0-0.06,0.02-0.14,0.05-0.22L6.17,39.08z"/>
			<path d="M9.99,37.5c0.19,0,0.28,0.09,0.28,0.27c0,0.05-0.02,0.11-0.05,0.18l-2.7,6.68c-0.06,0.16-0.16,0.23-0.29,0.23
				c-0.19,0-0.28-0.09-0.28-0.27c0-0.05,0.01-0.11,0.04-0.18l2.7-6.68C9.76,37.58,9.86,37.5,9.99,37.5z"/>
			<path d="M11.57,43.5h2.03c0.25,0,0.38,0.1,0.38,0.31c0,0.21-0.13,0.31-0.38,0.31h-2.35c-0.35,0-0.53-0.15-0.53-0.45
				c0-0.14,0.15-0.38,0.45-0.72c0.81-0.92,1.39-1.68,1.74-2.3c0.18-0.32,0.27-0.66,0.27-1c0-0.27-0.07-0.49-0.22-0.66
				c-0.15-0.17-0.33-0.25-0.55-0.25c-0.45,0-0.72,0.28-0.81,0.84c-0.05,0.3-0.19,0.45-0.42,0.45c-0.26,0-0.38-0.13-0.38-0.38
				c0-0.17,0.05-0.37,0.16-0.61c0.29-0.62,0.78-0.93,1.48-0.93c0.46,0,0.83,0.14,1.11,0.42s0.43,0.62,0.43,1.03
				c0,0.69-0.48,1.63-1.44,2.8L11.57,43.5z"/>
			<path d="M16.94,41.04c0.7,0.23,1.05,0.73,1.05,1.48c0,0.51-0.15,0.92-0.46,1.24s-0.73,0.48-1.29,0.48
				c-0.49,0-0.88-0.15-1.18-0.45c-0.29-0.3-0.44-0.61-0.44-0.93c0-0.25,0.13-0.38,0.4-0.38c0.18,0,0.33,0.19,0.45,0.58
				c0.12,0.39,0.38,0.58,0.79,0.58c0.29,0,0.53-0.11,0.71-0.33c0.18-0.22,0.27-0.5,0.27-0.84c0-0.53-0.2-0.88-0.59-1.03
				c-0.16-0.07-0.43-0.1-0.81-0.1c-0.2,0-0.3-0.11-0.3-0.33c0-0.21,0.1-0.32,0.3-0.32l0.41,0.02c0.6,0,0.91-0.35,0.91-1.04
				c0-0.64-0.27-0.96-0.8-0.96c-0.22,0-0.38,0.05-0.48,0.16c-0.1,0.1-0.21,0.34-0.34,0.7c-0.06,0.17-0.17,0.25-0.35,0.25
				c-0.23,0-0.34-0.11-0.34-0.34c0-0.33,0.14-0.64,0.41-0.93c0.27-0.29,0.64-0.43,1.12-0.43c0.48,0,0.86,0.14,1.13,0.43
				c0.27,0.29,0.4,0.64,0.4,1.06c0,0.69-0.29,1.16-0.88,1.4L16.94,41.04z"/>
			<path d="M25.39,40.35c0.21,0,0.31,0.11,0.31,0.33c0,0.12-0.14,0.34-0.41,0.63c-0.48,0.53-1.05,0.8-1.71,0.8
				c-0.28,0-0.55-0.06-0.82-0.19l-1.07-0.72c-0.29-0.2-0.57-0.3-0.83-0.3c-0.34,0-0.66,0.12-0.97,0.38
				c-0.09,0.07-0.27,0.27-0.54,0.59c-0.08,0.1-0.17,0.15-0.26,0.15c-0.21,0-0.31-0.11-0.31-0.32c0-0.09,0.08-0.24,0.25-0.45
				c0.53-0.67,1.16-1,1.88-1c0.31,0,0.64,0.11,0.99,0.34l0.9,0.59c0.27,0.18,0.53,0.27,0.78,0.27c0.44,0,0.83-0.19,1.19-0.56
				l0.34-0.38C25.21,40.4,25.3,40.35,25.39,40.35z"/>
			<path d="M27.43,40.97c-0.63-0.25-0.95-0.7-0.95-1.34c0-0.43,0.15-0.79,0.44-1.08s0.68-0.44,1.16-0.44s0.87,0.15,1.16,0.44
				c0.29,0.29,0.44,0.65,0.44,1.07c0,0.65-0.31,1.1-0.94,1.34c0.73,0.28,1.09,0.8,1.09,1.55c0,0.5-0.15,0.91-0.46,1.23
				s-0.74,0.48-1.29,0.48c-0.56,0-1-0.16-1.3-0.48s-0.46-0.73-0.46-1.23C26.33,41.77,26.7,41.25,27.43,40.97z M28.07,41.29
				c-0.28,0-0.51,0.11-0.71,0.32s-0.29,0.51-0.29,0.89c0,0.75,0.34,1.12,1.02,1.12s1.02-0.39,1.02-1.16c0-0.36-0.1-0.65-0.3-0.86
				C28.6,41.4,28.35,41.29,28.07,41.29z M28.07,38.73c-0.59,0-0.88,0.32-0.88,0.95c0,0.29,0.09,0.52,0.27,0.7
				c0.18,0.17,0.39,0.26,0.63,0.26c0.27,0,0.48-0.09,0.65-0.27s0.25-0.41,0.25-0.69C28.98,39.04,28.68,38.73,28.07,38.73z"/>
			<path d="M33.29,37.5c0.19,0,0.28,0.09,0.28,0.27c0,0.05-0.02,0.11-0.05,0.18l-2.7,6.68c-0.06,0.16-0.16,0.23-0.29,0.23
				c-0.19,0-0.28-0.09-0.28-0.27c0-0.05,0.01-0.11,0.04-0.18l2.7-6.68C33.07,37.58,33.16,37.5,33.29,37.5z"/>
			<path d="M34.87,43.5h2.03c0.25,0,0.38,0.1,0.38,0.31c0,0.21-0.13,0.31-0.38,0.31h-2.35c-0.35,0-0.53-0.15-0.53-0.45
				c0-0.14,0.15-0.38,0.45-0.72c0.81-0.92,1.39-1.68,1.74-2.3c0.18-0.32,0.27-0.66,0.27-1c0-0.27-0.07-0.49-0.22-0.66
				s-0.33-0.25-0.55-0.25c-0.45,0-0.72,0.28-0.81,0.84c-0.05,0.3-0.19,0.45-0.42,0.45c-0.26,0-0.38-0.13-0.38-0.38
				c0-0.17,0.05-0.37,0.16-0.61c0.29-0.62,0.78-0.93,1.48-0.93c0.46,0,0.83,0.14,1.11,0.42s0.43,0.62,0.43,1.03
				c0,0.69-0.48,1.63-1.44,2.8L34.87,43.5z"/>
			<path d="M38.91,43.5h2.03c0.25,0,0.38,0.1,0.38,0.31c0,0.21-0.13,0.31-0.38,0.31h-2.35c-0.35,0-0.53-0.15-0.53-0.45
				c0-0.14,0.15-0.38,0.45-0.72c0.81-0.92,1.39-1.68,1.74-2.3c0.18-0.32,0.27-0.66,0.27-1c0-0.27-0.07-0.49-0.22-0.66
				s-0.33-0.25-0.55-0.25c-0.45,0-0.72,0.28-0.81,0.84c-0.05,0.3-0.19,0.45-0.42,0.45c-0.26,0-0.38-0.13-0.38-0.38
				c0-0.17,0.05-0.37,0.16-0.61c0.29-0.62,0.78-0.93,1.48-0.93c0.46,0,0.83,0.14,1.11,0.42s0.43,0.62,0.43,1.03
				c0,0.69-0.48,1.63-1.44,2.8L38.91,43.5z"/>
		</g>
	</g>
</g>
</svg>
