<?xml version="1.0" encoding="utf-8"?>
<!-- Generator: Adobe Illustrator 25.3.1, SVG Export Plug-In . SVG Version: 6.00 Build 0)  -->
<svg version="1.1" id="レイヤー_1" xmlns="http://www.w3.org/2000/svg" xmlns:xlink="http://www.w3.org/1999/xlink" x="0px"
	 y="0px" viewBox="0 0 22.68 17.01" style="enable-background:new 0 0 22.68 17.01;" xml:space="preserve">
<style type="text/css">
	.st0{fill:#040000;}
	.st1{fill:none;stroke:#040000;stroke-width:0.75;stroke-linecap:round;stroke-linejoin:round;stroke-miterlimit:10;}
</style>
<path class="st0" d="M3.7,7.6C3.73,7.13,4.05,7,4.4,7.31l1.27,1.12C6.02,8.74,6.68,8.9,7.13,8.78l1.64-0.41
	c0.45-0.11,0.67,0.14,0.49,0.57L8.59,10.5c-0.19,0.43-0.13,1.11,0.11,1.5l0.9,1.43c0.25,0.4,0.07,0.69-0.4,0.64l-1.68-0.16
	c-0.47-0.04-1.09,0.21-1.4,0.57l-1.09,1.3c-0.3,0.36-0.63,0.28-0.73-0.18l-0.37-1.65c-0.1-0.46-0.54-0.97-0.98-1.15L1.4,12.18
	c-0.43-0.18-0.46-0.51-0.06-0.75l1.46-0.86c0.4-0.24,0.76-0.82,0.79-1.28L3.7,7.6z"/>
<path class="st1" d="M8.84,6.33c0,0,2.81-2.81,5.18-3.81c2.47-1.04,3.93-1.17,3.93-1.17"/>
<path class="st1" d="M10.46,8.28c0,0,2.06-2.11,4.5-2.92s4.37-1.17,4.37-1.17"/>
<path class="st1" d="M11.51,10.63c0,0,1.77-1.54,4.21-2.35s4.98-0.97,4.98-0.97"/>
<g>
</g>
<g>
</g>
<g>
</g>
<g>
</g>
<g>
</g>
<g>
</g>
<g>
</g>
<g>
</g>
<g>
</g>
<g>
</g>
<g>
</g>
<g>
</g>
<g>
</g>
<g>
</g>
<g>
</g>
</svg>
