<?xml version="1.0" encoding="utf-8"?>
<!-- Generator: Adobe Illustrator 25.3.1, SVG Export Plug-In . SVG Version: 6.00 Build 0)  -->
<svg version="1.1" id="トリムマーク" xmlns="http://www.w3.org/2000/svg" xmlns:xlink="http://www.w3.org/1999/xlink" x="0px"
	 y="0px" viewBox="0 0 595.28 841.89" style="enable-background:new 0 0 595.28 841.89;" xml:space="preserve">
<style type="text/css">
	.st0{fill:none;stroke:#000000;stroke-width:0.3;}
</style>
<g>
	<polyline class="st0" points="11.19,767.26 36.7,767.26 36.7,801.28 	"/>
	<polyline class="st0" points="45.2,801.28 45.2,775.76 11.19,775.76 	"/>
</g>
<g>
	<polyline class="st0" points="11.19,52.63 36.7,52.63 36.7,18.61 	"/>
	<polyline class="st0" points="45.2,18.61 45.2,44.13 11.19,44.13 	"/>
</g>
<g>
	<polyline class="st0" points="584.09,52.63 558.58,52.63 558.58,18.61 	"/>
	<polyline class="st0" points="550.07,18.61 550.07,44.13 584.09,44.13 	"/>
</g>
<g>
	<polyline class="st0" points="584.09,767.26 558.58,767.26 558.58,801.28 	"/>
	<polyline class="st0" points="550.07,801.28 550.07,775.76 584.09,775.76 	"/>
</g>
<g>
	<g>
		<line class="st0" x1="9.2" y1="409.94" x2="33.2" y2="409.94"/>
		<line class="st0" x1="27.2" y1="373.94" x2="27.2" y2="445.94"/>
	</g>
	<g>
		<line class="st0" x1="586.07" y1="409.94" x2="562.07" y2="409.94"/>
		<line class="st0" x1="568.07" y1="445.94" x2="568.07" y2="373.94"/>
	</g>
</g>
<g>
	<g>
		<line class="st0" x1="9.2" y1="231.36" x2="33.2" y2="231.36"/>
		<line class="st0" x1="27.2" y1="195.36" x2="27.2" y2="267.36"/>
	</g>
	<g>
		<line class="st0" x1="586.07" y1="231.36" x2="562.07" y2="231.36"/>
		<line class="st0" x1="568.07" y1="267.36" x2="568.07" y2="195.36"/>
	</g>
</g>
<g>
	<g>
		<line class="st0" x1="9.2" y1="588.53" x2="33.2" y2="588.53"/>
		<line class="st0" x1="27.2" y1="552.53" x2="27.2" y2="624.53"/>
	</g>
	<g>
		<line class="st0" x1="586.07" y1="588.53" x2="562.07" y2="588.53"/>
		<line class="st0" x1="568.07" y1="624.53" x2="568.07" y2="552.53"/>
	</g>
</g>
<g>
	<line class="st0" x1="261.64" y1="34.63" x2="333.64" y2="34.63"/>
	<line class="st0" x1="297.64" y1="16.63" x2="297.64" y2="40.63"/>
	<line class="st0" x1="296.22" y1="16.63" x2="296.22" y2="33.64"/>
</g>
<g>
	<line class="st0" x1="333.64" y1="785.26" x2="261.64" y2="785.26"/>
	<line class="st0" x1="297.64" y1="803.26" x2="297.64" y2="779.26"/>
	<line class="st0" x1="296.22" y1="803.26" x2="296.22" y2="786.25"/>
</g>
</svg>
