<?xml version="1.0" encoding="utf-8"?>
<!-- Generator: Adobe Illustrator 25.3.1, SVG Export Plug-In . SVG Version: 6.00 Build 0)  -->
<svg version="1.1" id="トリムマーク" xmlns="http://www.w3.org/2000/svg" xmlns:xlink="http://www.w3.org/1999/xlink" x="0px"
	 y="0px" viewBox="0 0 566.9 793.7" style="enable-background:new 0 0 566.9 793.7;" xml:space="preserve">
<style type="text/css">
	.st0{fill:none;stroke:#000000;stroke-width:0.3;}
</style>
<g>
	<polyline class="st0" points="-3,753.1 22.5,753.1 22.5,787.1 	"/>
	<polyline class="st0" points="31,787.1 31,761.6 -3,761.6 	"/>
</g>
<g>
	<polyline class="st0" points="-3,38.5 22.5,38.5 22.5,4.4 	"/>
	<polyline class="st0" points="31,4.4 31,30 -3,30 	"/>
</g>
<g>
	<polyline class="st0" points="569.9,38.5 544.4,38.5 544.4,4.4 	"/>
	<polyline class="st0" points="535.9,4.4 535.9,30 569.9,30 	"/>
</g>
<g>
	<polyline class="st0" points="569.9,753.1 544.4,753.1 544.4,787.1 	"/>
	<polyline class="st0" points="535.9,787.1 535.9,761.6 569.9,761.6 	"/>
</g>
<g>
	<g>
		<line class="st0" x1="-5" y1="395.8" x2="19" y2="395.8"/>
		<line class="st0" x1="13" y1="359.8" x2="13" y2="431.8"/>
	</g>
	<g>
		<line class="st0" x1="571.9" y1="395.8" x2="547.9" y2="395.8"/>
		<line class="st0" x1="553.9" y1="431.8" x2="553.9" y2="359.8"/>
	</g>
</g>
<g>
	<g>
		<line class="st0" x1="-5" y1="217.2" x2="19" y2="217.2"/>
		<line class="st0" x1="13" y1="181.2" x2="13" y2="253.2"/>
	</g>
	<g>
		<line class="st0" x1="571.9" y1="217.2" x2="547.9" y2="217.2"/>
		<line class="st0" x1="553.9" y1="253.2" x2="553.9" y2="181.2"/>
	</g>
</g>
<g>
	<g>
		<line class="st0" x1="-5" y1="574.4" x2="19" y2="574.4"/>
		<line class="st0" x1="13" y1="538.4" x2="13" y2="610.4"/>
	</g>
	<g>
		<line class="st0" x1="571.9" y1="574.4" x2="547.9" y2="574.4"/>
		<line class="st0" x1="553.9" y1="610.4" x2="553.9" y2="538.4"/>
	</g>
</g>
<g>
	<line class="st0" x1="247.5" y1="20.5" x2="319.5" y2="20.5"/>
	<line class="st0" x1="283.5" y1="2.5" x2="283.5" y2="26.5"/>
	<line class="st0" x1="282" y1="2.5" x2="282" y2="19.5"/>
</g>
<g>
	<line class="st0" x1="319.5" y1="771.1" x2="247.5" y2="771.1"/>
	<line class="st0" x1="283.5" y1="789.1" x2="283.5" y2="765.1"/>
	<line class="st0" x1="282" y1="789.1" x2="282" y2="772.1"/>
</g>
</svg>
