<?xml version="1.0" encoding="utf-8"?>
<!-- Generator: Adobe Illustrator 25.3.1, SVG Export Plug-In . SVG Version: 6.00 Build 0)  -->
<svg version="1.1" id="トリムマーク" xmlns="http://www.w3.org/2000/svg" xmlns:xlink="http://www.w3.org/1999/xlink" x="0px"
	 y="0px" viewBox="0 0 595.3 822" style="enable-background:new 0 0 595.3 822;" xml:space="preserve">
<style type="text/css">
	.st0{fill:none;stroke:#000000;stroke-width:0.3;}
</style>
<g>
	<polyline class="st0" points="11.2,767.3 36.7,767.3 36.7,801.3 	"/>
	<polyline class="st0" points="45.2,801.3 45.2,775.8 11.2,775.8 	"/>
</g>
<g>
	<polyline class="st0" points="11.2,52.6 36.7,52.6 36.7,18.6 	"/>
	<polyline class="st0" points="45.2,18.6 45.2,44.1 11.2,44.1 	"/>
</g>
<g>
	<polyline class="st0" points="584.1,52.6 558.6,52.6 558.6,18.6 	"/>
	<polyline class="st0" points="550.1,18.6 550.1,44.1 584.1,44.1 	"/>
</g>
<g>
	<polyline class="st0" points="584.1,767.3 558.6,767.3 558.6,801.3 	"/>
	<polyline class="st0" points="550.1,801.3 550.1,775.8 584.1,775.8 	"/>
</g>
<g>
	<g>
		<line class="st0" x1="9.2" y1="409.9" x2="33.2" y2="409.9"/>
		<line class="st0" x1="27.2" y1="373.9" x2="27.2" y2="445.9"/>
	</g>
	<g>
		<line class="st0" x1="586.1" y1="409.9" x2="562.1" y2="409.9"/>
		<line class="st0" x1="568.1" y1="445.9" x2="568.1" y2="373.9"/>
	</g>
</g>
<g>
	<g>
		<line class="st0" x1="9.2" y1="231.4" x2="33.2" y2="231.4"/>
		<line class="st0" x1="27.2" y1="195.4" x2="27.2" y2="267.4"/>
	</g>
	<g>
		<line class="st0" x1="586.1" y1="231.4" x2="562.1" y2="231.4"/>
		<line class="st0" x1="568.1" y1="267.4" x2="568.1" y2="195.4"/>
	</g>
</g>
<g>
	<g>
		<line class="st0" x1="9.2" y1="588.5" x2="33.2" y2="588.5"/>
		<line class="st0" x1="27.2" y1="552.5" x2="27.2" y2="624.5"/>
	</g>
	<g>
		<line class="st0" x1="586.1" y1="588.5" x2="562.1" y2="588.5"/>
		<line class="st0" x1="568.1" y1="624.5" x2="568.1" y2="552.5"/>
	</g>
</g>
<g>
	<line class="st0" x1="261.6" y1="34.6" x2="333.6" y2="34.6"/>
	<line class="st0" x1="297.6" y1="16.6" x2="297.6" y2="40.6"/>
	<line class="st0" x1="296.2" y1="16.6" x2="296.2" y2="33.6"/>
</g>
<g>
	<line class="st0" x1="333.6" y1="785.3" x2="261.6" y2="785.3"/>
	<line class="st0" x1="297.6" y1="803.3" x2="297.6" y2="779.3"/>
	<line class="st0" x1="296.2" y1="803.3" x2="296.2" y2="786.3"/>
</g>
</svg>
