<?xml version="1.0" encoding="utf-8"?>
<!-- Generator: Adobe Illustrator 25.3.1, SVG Export Plug-In . SVG Version: 6.00 Build 0)  -->
<svg version="1.1" id="トリムマーク" xmlns="http://www.w3.org/2000/svg" xmlns:xlink="http://www.w3.org/1999/xlink" x="0px"
	 y="0px" viewBox="0 0 595.3 841.9" style="enable-background:new 0 0 595.3 841.9;" xml:space="preserve">
<style type="text/css">
	.st0{fill:none;stroke:#000000;stroke-width:0.3;}
</style>
<g>
	<polyline class="st0" points="34,53.9 36.9,53.9 36.9,42.5 	"/>
	<polyline class="st0" points="45.4,42.5 45.4,45.4 34,45.4 	"/>
</g>
<g>
	<polyline class="st0" points="561.3,53.9 558.4,53.9 558.4,42.5 	"/>
	<polyline class="st0" points="549.9,42.5 549.9,45.4 561.3,45.4 	"/>
</g>
<g>
	<line class="st0" x1="31.2" y1="232.4" x2="39.7" y2="232.4"/>
	<line class="st0" x1="34" y1="197" x2="34" y2="267.9"/>
</g>
<g>
	<line class="st0" x1="561.3" y1="232.4" x2="552.8" y2="232.4"/>
	<line class="st0" x1="558.4" y1="267.9" x2="558.4" y2="197"/>
</g>
<g>
	<line class="st0" x1="31.2" y1="411" x2="39.7" y2="411"/>
	<line class="st0" x1="34" y1="375.6" x2="34" y2="446.5"/>
</g>
<g>
	<line class="st0" x1="561.3" y1="411" x2="552.8" y2="411"/>
	<line class="st0" x1="558.4" y1="446.5" x2="558.4" y2="375.6"/>
</g>
<g>
	<line class="st0" x1="31.2" y1="589.6" x2="39.7" y2="589.6"/>
	<line class="st0" x1="34" y1="554.2" x2="34" y2="625"/>
</g>
<g>
	<line class="st0" x1="561.3" y1="589.6" x2="552.8" y2="589.6"/>
	<line class="st0" x1="558.4" y1="625" x2="558.4" y2="554.2"/>
</g>
<g>
	<line class="st0" x1="262.2" y1="45.4" x2="333.1" y2="45.4"/>
	<line class="st0" x1="297.6" y1="42.5" x2="297.6" y2="51"/>
	<line class="st0" x1="296.2" y1="42.5" x2="296.2" y2="48.2"/>
</g>
<g>
	<polyline class="st0" points="34,768.2 36.9,768.2 36.9,779.5 	"/>
	<polyline class="st0" points="45.4,779.5 45.4,776.7 34,776.7 	"/>
</g>
<g>
	<polyline class="st0" points="561.3,768.2 558.4,768.2 558.4,779.5 	"/>
	<polyline class="st0" points="549.9,779.5 549.9,776.7 561.3,776.7 	"/>
</g>
<g>
	<line class="st0" x1="262.2" y1="776.7" x2="333.1" y2="776.7"/>
	<line class="st0" x1="297.6" y1="779.5" x2="297.6" y2="771"/>
	<line class="st0" x1="296.2" y1="779.5" x2="296.2" y2="773.9"/>
</g>
</svg>
