<?xml version="1.0" encoding="utf-8"?>
<!-- Generator: Adobe Illustrator 25.3.1, SVG Export Plug-In . SVG Version: 6.00 Build 0)  -->
<svg version="1.1" id="トリムマーク" xmlns="http://www.w3.org/2000/svg" xmlns:xlink="http://www.w3.org/1999/xlink" x="0px"
	 y="0px" viewBox="0 0 527.2 737" style="enable-background:new 0 0 527.2 737;" xml:space="preserve">
<style type="text/css">
	.st0{fill:none;stroke:#000000;stroke-width:0.3;}
</style>
<g>
	<polyline class="st0" points="0,11.3 2.8,11.3 2.8,0 	"/>
	<polyline class="st0" points="11.3,0 11.3,2.8 0,2.8 	"/>
</g>
<g>
	<polyline class="st0" points="527.2,11.3 524.4,11.3 524.4,0 	"/>
	<polyline class="st0" points="515.9,0 515.9,2.8 527.2,2.8 	"/>
</g>
<g>
	<line class="st0" x1="0" y1="189.9" x2="8.5" y2="189.9"/>
	<line class="st0" x1="2.8" y1="154.5" x2="2.8" y2="225.4"/>
</g>
<g>
	<line class="st0" x1="527.2" y1="189.9" x2="518.7" y2="189.9"/>
	<line class="st0" x1="524.4" y1="225.4" x2="524.4" y2="154.5"/>
</g>
<g>
	<line class="st0" x1="0" y1="368.5" x2="8.5" y2="368.5"/>
	<line class="st0" x1="2.8" y1="333.1" x2="2.8" y2="403.9"/>
</g>
<g>
	<line class="st0" x1="527.2" y1="368.5" x2="518.7" y2="368.5"/>
	<line class="st0" x1="524.4" y1="403.9" x2="524.4" y2="333.1"/>
</g>
<g>
	<line class="st0" x1="0" y1="547.1" x2="8.5" y2="547.1"/>
	<line class="st0" x1="2.8" y1="511.7" x2="2.8" y2="582.5"/>
</g>
<g>
	<line class="st0" x1="527.2" y1="547.1" x2="518.7" y2="547.1"/>
	<line class="st0" x1="524.4" y1="582.5" x2="524.4" y2="511.7"/>
</g>
<g>
	<line class="st0" x1="228.2" y1="2.8" x2="299.1" y2="2.8"/>
	<line class="st0" x1="263.6" y1="0" x2="263.6" y2="8.5"/>
	<line class="st0" x1="262.2" y1="0" x2="262.2" y2="5.7"/>
</g>
<g>
	<polyline class="st0" points="0,725.7 2.8,725.7 2.8,737 	"/>
	<polyline class="st0" points="11.3,737 11.3,734.2 0,734.2 	"/>
</g>
<g>
	<polyline class="st0" points="527.2,725.7 524.4,725.7 524.4,737 	"/>
	<polyline class="st0" points="515.9,737 515.9,734.2 527.2,734.2 	"/>
</g>
<g>
	<line class="st0" x1="228.2" y1="734.2" x2="299.1" y2="734.2"/>
	<line class="st0" x1="263.6" y1="737" x2="263.6" y2="728.5"/>
	<line class="st0" x1="262.2" y1="737" x2="262.2" y2="731.3"/>
</g>
</svg>
