<?xml version="1.0" encoding="utf-8"?>
<!-- Generator: Adobe Illustrator 25.3.1, SVG Export Plug-In . SVG Version: 6.00 Build 0)  -->
<svg version="1.1" id="レイヤー_1" xmlns="http://www.w3.org/2000/svg" xmlns:xlink="http://www.w3.org/1999/xlink" x="0px"
	 y="0px" viewBox="0 0 45.35 45.35" style="enable-background:new 0 0 45.35 45.35;" xml:space="preserve">
<style type="text/css">
	.st0{fill:#FFFFFF;}
</style>
<g id="背景">
	<g>
		<rect y="0" class="st0" width="45.35" height="45.35"/>
	</g>
</g>
<g id="uo">
	<g>
		<path d="M33.62,23.49H29.3c0.18,4.49,1,8.22,2.47,11.18h-2.09c-1.41-2.8-2.23-6.53-2.47-11.18h-9.07
			c-0.24,4.65-1.06,8.38-2.47,11.18h-2.09c1.46-2.96,2.29-6.69,2.49-11.18h-4.32V21.5h4.29c-0.15-4.43-0.96-8.16-2.45-11.2h2.09
			c1.42,2.88,2.23,6.62,2.43,11.2h9.11c0.24-4.62,1.06-8.35,2.47-11.2h2.09c-1.46,3.01-2.29,6.74-2.47,11.2h4.32v1.99H33.62z"/>
		<g>
			<path d="M15.26,2.49c1.6,0,2.41,0.68,2.41,2.03c0,1.18-0.64,2.07-1.91,2.66c-0.78,0.36-1.45,0.55-2.01,0.55
				c-0.27,0-0.4-0.13-0.4-0.38c0-0.19,0.17-0.31,0.52-0.36c0.87-0.11,1.59-0.39,2.15-0.84c0.56-0.44,0.85-0.99,0.85-1.65
				c0-0.89-0.54-1.33-1.62-1.33c-0.76,0-1.57,0.17-2.43,0.5c-0.15,0.06-0.26,0.09-0.35,0.09c-0.23,0-0.34-0.12-0.34-0.37
				c0-0.21,0.23-0.39,0.7-0.52C13.73,2.62,14.54,2.49,15.26,2.49z M13.63,0.7c0.65,0,1.47,0.08,2.48,0.23
				c0.6,0.09,0.91,0.24,0.91,0.44c0,0.26-0.12,0.38-0.35,0.38c-0.07,0-0.17-0.02-0.28-0.05c-0.75-0.21-1.66-0.32-2.72-0.33
				c-0.36,0-0.54-0.11-0.54-0.31C13.12,0.82,13.29,0.7,13.63,0.7z"/>
			<path d="M21.2,2.28h-1.66c-0.27,0-0.41-0.11-0.41-0.33s0.14-0.34,0.41-0.34h1.66V1.08c0-0.28,0.11-0.42,0.34-0.42
				s0.34,0.14,0.34,0.42v0.53h1.67c0.27,0,0.4,0.11,0.4,0.34c0,0.22-0.13,0.33-0.4,0.33h-1.67v1.27c0.33-0.06,0.65-0.09,0.95-0.09
				c0.81,0,1.46,0.18,1.96,0.53s0.75,0.87,0.75,1.54c0,0.56-0.17,1.01-0.52,1.35c-0.35,0.34-0.78,0.51-1.28,0.51
				c-0.88,0-1.31-0.17-1.31-0.5c0-0.23,0.1-0.34,0.3-0.34c0.09,0,0.23,0.02,0.4,0.07s0.35,0.07,0.52,0.07
				c0.35,0,0.63-0.11,0.85-0.34c0.22-0.22,0.32-0.51,0.32-0.87c0-0.95-0.68-1.43-2.05-1.43c-0.27,0-0.56,0.03-0.88,0.1v2.26
				c-0.01,0.73-0.37,1.09-1.1,1.09c-0.46,0-0.86-0.17-1.18-0.52s-0.48-0.76-0.48-1.23c0-0.45,0.19-0.86,0.57-1.23
				s0.88-0.65,1.51-0.83V2.28H21.2z M21.2,4.34c-0.96,0.38-1.44,0.87-1.44,1.48c0,0.28,0.1,0.52,0.29,0.72
				c0.2,0.21,0.42,0.31,0.67,0.31c0.32,0,0.48-0.21,0.48-0.62V4.34z M24.45,1.05c0.13,0,0.28,0.09,0.46,0.28l0.49,0.48
				c0.28,0.28,0.42,0.5,0.42,0.65c0,0.21-0.12,0.32-0.37,0.32c-0.13,0-0.26-0.09-0.39-0.26s-0.27-0.33-0.4-0.48
				c-0.14-0.15-0.26-0.28-0.39-0.4c-0.12-0.12-0.18-0.22-0.18-0.3C24.09,1.15,24.21,1.05,24.45,1.05z"/>
			<path d="M29.94,1.25V0.79c0-0.2,0.12-0.3,0.37-0.3c0.24,0,0.37,0.1,0.37,0.3v0.45h2.62c0.24,0,0.36,0.1,0.36,0.3
				s-0.12,0.3-0.36,0.3h-5.25c-0.23,0-0.34,0.11-0.34,0.34l0.02,1.3c0,1.33-0.1,2.36-0.3,3.09s-0.43,1.1-0.68,1.1
				c-0.23,0-0.35-0.12-0.35-0.35c0-0.08,0.04-0.19,0.12-0.34c0.37-0.7,0.55-1.94,0.55-3.7L27.05,2c0-0.49,0.26-0.74,0.78-0.74
				L29.94,1.25L29.94,1.25z M30.94,5.9v0.98h2.41c0.25,0,0.38,0.1,0.38,0.31c0,0.2-0.12,0.3-0.38,0.3h-5.38
				c-0.25,0-0.38-0.1-0.38-0.3c0-0.21,0.12-0.31,0.38-0.31h2.34V5.9h-1.8c-0.25,0-0.37-0.1-0.37-0.3c0-0.2,0.12-0.3,0.37-0.3h1.8
				V2.43c0-0.25,0.11-0.38,0.32-0.38s0.31,0.13,0.31,0.38V5.3h1.86c0.24,0,0.37,0.1,0.37,0.3c0,0.2-0.12,0.3-0.37,0.3
				C32.8,5.9,30.94,5.9,30.94,5.9z M29.11,3.33c0.68,0.65,1.02,1.08,1.02,1.29s-0.1,0.31-0.31,0.31c-0.11,0-0.21-0.08-0.31-0.25
				c-0.12-0.21-0.32-0.49-0.59-0.84C28.59,4.62,28.32,5,28.12,5c-0.19,0-0.29-0.1-0.29-0.3c0-0.08,0.05-0.19,0.14-0.31
				c0.31-0.45,0.58-1.08,0.81-1.89c0.05-0.19,0.15-0.28,0.3-0.28c0.2,0,0.3,0.1,0.3,0.3C29.37,2.58,29.28,2.85,29.11,3.33z
				 M32.45,3.31c0.82,0.74,1.23,1.2,1.23,1.37c0,0.21-0.11,0.31-0.32,0.31c-0.1,0-0.21-0.09-0.34-0.27
				c-0.27-0.35-0.53-0.65-0.77-0.91c-0.35,0.76-0.63,1.14-0.84,1.14c-0.19,0-0.29-0.1-0.29-0.3c0-0.07,0.04-0.16,0.12-0.27
				c0.34-0.48,0.62-1.1,0.82-1.84c0.06-0.21,0.17-0.32,0.34-0.32c0.2,0,0.3,0.1,0.3,0.29C32.7,2.59,32.62,2.86,32.45,3.31z"/>
			<path d="M4.75,43.51h2.03c0.25,0,0.38,0.1,0.38,0.31c0,0.21-0.13,0.31-0.38,0.31H4.43c-0.35,0-0.53-0.15-0.53-0.45
				c0-0.14,0.15-0.38,0.45-0.72c0.81-0.92,1.39-1.68,1.74-2.3c0.18-0.32,0.27-0.66,0.27-1c0-0.27-0.07-0.49-0.22-0.66
				C6,38.82,5.81,38.74,5.59,38.74c-0.45,0-0.72,0.28-0.81,0.84c-0.05,0.3-0.19,0.45-0.42,0.45c-0.26,0-0.38-0.13-0.38-0.38
				c0-0.17,0.05-0.37,0.16-0.61c0.29-0.62,0.78-0.93,1.48-0.93c0.46,0,0.83,0.14,1.11,0.42s0.43,0.62,0.43,1.03
				c0,0.69-0.48,1.63-1.44,2.8L4.75,43.51z"/>
			<path d="M10.86,37.5c0.19,0,0.28,0.09,0.28,0.27c0,0.05-0.02,0.11-0.05,0.18l-2.7,6.68c-0.06,0.16-0.16,0.23-0.29,0.23
				c-0.19,0-0.28-0.09-0.28-0.27c0-0.05,0.01-0.11,0.04-0.18l2.7-6.68C10.63,37.58,10.73,37.5,10.86,37.5z"/>
			<path d="M12.98,39.22c-0.26,0.31-0.48,0.46-0.65,0.46c-0.26,0-0.38-0.12-0.38-0.38c0-0.14,0.09-0.26,0.27-0.37
				c0.21-0.14,0.46-0.37,0.77-0.7c0.08-0.09,0.18-0.13,0.3-0.13c0.3,0,0.45,0.15,0.45,0.45v5.21c0,0.31-0.13,0.46-0.38,0.46
				s-0.38-0.15-0.38-0.46V39.22z"/>
			<path d="M17.58,41.54c-0.34,0.44-0.74,0.66-1.21,0.66c-0.42,0-0.74-0.18-0.98-0.54c-0.23-0.36-0.35-0.83-0.35-1.43
				c0-0.65,0.14-1.17,0.43-1.55s0.68-0.57,1.18-0.57c1.13,0,1.7,0.96,1.7,2.88c0,2.17-0.63,3.25-1.88,3.25
				c-0.57,0-0.98-0.25-1.23-0.74c-0.1-0.2-0.16-0.37-0.16-0.5c0-0.24,0.12-0.36,0.37-0.36c0.2,0,0.33,0.13,0.39,0.38
				c0.09,0.42,0.31,0.62,0.66,0.62C17.13,43.65,17.49,42.95,17.58,41.54z M17.59,40.77c0-1.38-0.31-2.06-0.93-2.06
				c-0.58,0-0.87,0.5-0.87,1.49c0,0.94,0.24,1.41,0.73,1.41c0.36,0,0.7-0.26,1.03-0.77L17.59,40.77z"/>
			<path d="M25.79,40.35c0.21,0,0.31,0.11,0.31,0.33c0,0.12-0.14,0.34-0.41,0.63c-0.48,0.53-1.05,0.8-1.71,0.8
				c-0.28,0-0.55-0.06-0.82-0.19L22.1,41.2c-0.29-0.2-0.57-0.3-0.83-0.3c-0.34,0-0.66,0.12-0.97,0.38
				c-0.09,0.07-0.27,0.27-0.54,0.59c-0.08,0.1-0.17,0.15-0.26,0.15c-0.21,0-0.31-0.11-0.31-0.32c0-0.09,0.08-0.24,0.25-0.45
				c0.53-0.67,1.16-1,1.88-1c0.31,0,0.64,0.11,0.99,0.34l0.9,0.59c0.27,0.18,0.53,0.27,0.78,0.27c0.44,0,0.83-0.19,1.19-0.56
				l0.34-0.38C25.61,40.4,25.7,40.35,25.79,40.35z"/>
			<path d="M28.85,41.04c0.7,0.23,1.05,0.73,1.05,1.48c0,0.51-0.15,0.92-0.46,1.24s-0.73,0.48-1.29,0.48
				c-0.49,0-0.88-0.15-1.18-0.45c-0.29-0.3-0.44-0.61-0.44-0.93c0-0.25,0.13-0.38,0.4-0.38c0.18,0,0.33,0.19,0.45,0.58
				c0.12,0.39,0.38,0.58,0.79,0.58c0.29,0,0.53-0.11,0.71-0.33c0.18-0.22,0.27-0.5,0.27-0.84c0-0.53-0.2-0.88-0.59-1.03
				c-0.16-0.07-0.43-0.1-0.81-0.1c-0.2,0-0.3-0.11-0.3-0.33c0-0.21,0.1-0.32,0.3-0.32l0.41,0.02c0.6,0,0.91-0.35,0.91-1.04
				c0-0.64-0.27-0.96-0.8-0.96c-0.22,0-0.38,0.05-0.48,0.16c-0.1,0.1-0.21,0.34-0.34,0.7c-0.06,0.17-0.17,0.25-0.35,0.25
				c-0.23,0-0.34-0.11-0.34-0.34c0-0.33,0.14-0.64,0.41-0.93s0.64-0.43,1.12-0.43c0.48,0,0.86,0.14,1.13,0.43
				c0.27,0.29,0.4,0.64,0.4,1.06c0,0.69-0.29,1.16-0.88,1.4L28.85,41.04z"/>
			<path d="M33.38,37.5c0.19,0,0.28,0.09,0.28,0.27c0,0.05-0.02,0.11-0.05,0.18l-2.7,6.68c-0.06,0.16-0.16,0.23-0.29,0.23
				c-0.19,0-0.28-0.09-0.28-0.27c0-0.05,0.01-0.11,0.04-0.18l2.7-6.68C33.16,37.58,33.25,37.5,33.38,37.5z"/>
			<path d="M34.97,43.51H37c0.25,0,0.38,0.1,0.38,0.31c0,0.21-0.13,0.31-0.38,0.31h-2.35c-0.35,0-0.53-0.15-0.53-0.45
				c0-0.14,0.15-0.38,0.45-0.72c0.81-0.92,1.39-1.68,1.74-2.3c0.18-0.32,0.27-0.66,0.27-1c0-0.27-0.07-0.49-0.22-0.66
				s-0.33-0.25-0.55-0.25c-0.45,0-0.72,0.28-0.81,0.84c-0.05,0.3-0.19,0.45-0.42,0.45c-0.26,0-0.38-0.13-0.38-0.38
				c0-0.17,0.05-0.37,0.16-0.61c0.29-0.62,0.78-0.93,1.48-0.93c0.46,0,0.83,0.14,1.11,0.42s0.43,0.62,0.43,1.03
				c0,0.69-0.48,1.63-1.44,2.8L34.97,43.51z"/>
			<path d="M39.78,38.11c0.61,0,1.04,0.27,1.27,0.81s0.35,1.3,0.35,2.27c0,1.08-0.13,1.86-0.4,2.34c-0.27,0.47-0.69,0.71-1.26,0.71
				s-0.99-0.24-1.26-0.72c-0.27-0.48-0.4-1.25-0.4-2.3c0-1.04,0.12-1.81,0.37-2.33C38.71,38.37,39.15,38.11,39.78,38.11z
				 M39.73,38.75c-0.59,0-0.88,0.81-0.88,2.43s0.3,2.43,0.9,2.43c0.6,0,0.9-0.81,0.9-2.45C40.65,39.55,40.34,38.75,39.73,38.75z"/>
		</g>
	</g>
</g>
</svg>
