<?xml version="1.0" encoding="utf-8"?>
<!-- Generator: Adobe Illustrator 25.3.1, SVG Export Plug-In . SVG Version: 6.00 Build 0)  -->
<svg version="1.1" id="レイヤー_1" xmlns="http://www.w3.org/2000/svg" xmlns:xlink="http://www.w3.org/1999/xlink" x="0px"
	 y="0px" viewBox="0 0 45.35 45.35" style="enable-background:new 0 0 45.35 45.35;" xml:space="preserve">
<style type="text/css">
	.st0{fill:#FFFFFF;}
</style>
<g id="背景">
	<g>
		<rect y="0" class="st0" width="45.35" height="45.35"/>
	</g>
</g>
<g id="yagi">
	<g>
		<path d="M30.58,18.43c0.33,0.43,0.9,1.13,1.72,2.09c1.74,2.01,2.83,3.54,3.29,4.6c0.45,1.06,0.68,2.04,0.68,2.96
			c0,2.52-0.76,3.51-2.28,4.96c-1.52,1.45-3.44,2.18-5.77,2.2v-1.97c1.8-0.05,3.25-0.64,4.33-1.77c1.08-1.13,1.63-1.6,1.63-3.41
			c0-0.81-0.21-1.69-0.63-2.64c-0.42-0.95-1.44-2.38-3.06-4.27c-1.34-1.58-2.24-2.75-2.69-3.51c-1.48-0.6-2.98-1.4-4.53-2.38
			l-5.99,19.15L9.09,10.43l1.96-0.7l6.21,17.95l4.87-15.59c1.75,1.24,3.26,2.2,4.54,2.89c-0.1-0.4-0.15-0.85-0.15-1.36
			c0-1.36,0.47-2.52,1.4-3.46c0.93-0.95,2.07-1.42,3.42-1.42s2.49,0.47,3.42,1.42s1.4,2.1,1.4,3.46c0,1.54-0.45,2.74-1.34,3.58
			c-0.9,0.85-2.05,1.27-3.47,1.27C31,18.47,30.75,18.46,30.58,18.43z M29.18,16.07c0.87,0.27,1.59,0.41,2.16,0.41
			c0.79,0,1.45-0.26,1.96-0.78s0.77-1.21,0.77-2.08c0-0.78-0.27-1.46-0.8-2.03s-1.17-0.86-1.92-0.86s-1.39,0.29-1.92,0.86
			s-0.8,1.25-0.8,2.03C28.62,14.43,28.8,15.25,29.18,16.07z"/>
		<g>
			<path d="M13.87,3.22l0.77,3.91l0.02,0.17c0,0.23-0.12,0.35-0.37,0.35c-0.2,0-0.33-0.13-0.38-0.38L13.15,3.4l-1.34,0.39L11.69,3.8
				c-0.23,0-0.34-0.12-0.34-0.35c0-0.17,0.09-0.29,0.28-0.34l1.4-0.38L12.79,1.5l-0.02-0.17c0-0.22,0.12-0.34,0.36-0.34
				c0.19,0,0.31,0.11,0.37,0.34l0.25,1.23l0.09-0.02c1.08-0.25,2.01-0.38,2.8-0.38c0.57,0,1.01,0.15,1.32,0.46
				c0.31,0.3,0.46,0.71,0.46,1.22c0,0.54-0.17,1-0.5,1.36c-0.33,0.37-0.77,0.55-1.33,0.55c-0.38,0-0.73-0.08-1.07-0.23
				s-0.51-0.32-0.51-0.5c0-0.22,0.11-0.34,0.32-0.34c0.06,0,0.15,0.04,0.28,0.11c0.29,0.17,0.61,0.25,0.97,0.25
				c0.33,0,0.6-0.11,0.8-0.34c0.2-0.22,0.3-0.51,0.3-0.87c0-0.68-0.4-1.02-1.21-1.02c-0.56,0-1.42,0.13-2.57,0.39h-0.03V3.22z
				 M15.36,0.69c0.14,0,0.33,0.14,0.56,0.43c0.23,0.28,0.35,0.49,0.35,0.61c0,0.2-0.12,0.3-0.36,0.3c-0.11,0-0.26-0.12-0.45-0.36
				s-0.29-0.38-0.32-0.4C15.05,1.16,15,1.07,15,1C15.01,0.79,15.12,0.69,15.36,0.69z"/>
			<path d="M23.39,2.33l0.02,0.02l0.18,0.36l0.18,0.33l0.02,0.02h1.38c0.26,0,0.39,0.1,0.39,0.31s-0.13,0.32-0.39,0.32h-1.01
				c0.42,0.67,0.68,1.07,0.8,1.19c0.13,0.15,0.2,0.27,0.2,0.35c0,0.21-0.11,0.32-0.34,0.32c-0.1,0-0.23-0.03-0.4-0.1
				c-0.58-0.23-1.27-0.35-2.05-0.35c-0.59,0-1.07,0.08-1.44,0.23C20.56,5.49,20.38,5.71,20.38,6c0,0.64,0.82,0.96,2.45,0.96
				l0.89-0.02l0.77-0.09c0.21,0,0.32,0.11,0.32,0.34c0,0.17-0.12,0.29-0.37,0.35s-0.71,0.09-1.39,0.09c-1.14,0-1.99-0.13-2.55-0.4
				c-0.57-0.27-0.85-0.67-0.85-1.21c0-0.49,0.24-0.87,0.71-1.14s1.14-0.41,2-0.41c0.55,0,1.11,0.08,1.68,0.24l-0.62-1.02h-3.48
				c-0.26,0-0.39-0.11-0.39-0.32s0.13-0.31,0.39-0.31h3.12L22.7,2.33h-2.66c-0.27,0-0.4-0.11-0.4-0.32s0.13-0.31,0.4-0.31h2.37
				c-0.19-0.4-0.28-0.65-0.28-0.74c0-0.19,0.1-0.28,0.31-0.28c0.17,0,0.31,0.13,0.4,0.38c0.1,0.26,0.18,0.47,0.26,0.64h1.43
				c0.09,0.16,0.23,0.23,0.41,0.23c0.16,0,0.29-0.06,0.38-0.19c0.1,0.07,0.16,0.16,0.16,0.27c0,0.21-0.13,0.32-0.39,0.32
				C25.09,2.33,23.39,2.33,23.39,2.33z M24.66,0.89c0-0.19,0.09-0.29,0.27-0.29s0.27,0.1,0.27,0.29v0.55c0,0.19-0.09,0.29-0.27,0.29
				s-0.27-0.1-0.27-0.29V0.89z M25.55,0.89c0-0.19,0.09-0.29,0.27-0.29s0.27,0.1,0.27,0.29v0.55c0,0.19-0.09,0.29-0.27,0.29
				s-0.27-0.1-0.27-0.29V0.89z"/>
			<path d="M30.13,1.25V0.79c0-0.2,0.12-0.3,0.37-0.3c0.24,0,0.37,0.1,0.37,0.3v0.45h2.62c0.24,0,0.36,0.1,0.36,0.3
				s-0.12,0.3-0.36,0.3h-5.25c-0.23,0-0.34,0.11-0.34,0.34l0.02,1.3c0,1.33-0.1,2.36-0.3,3.09s-0.43,1.1-0.68,1.1
				c-0.23,0-0.35-0.12-0.35-0.35c0-0.08,0.04-0.19,0.12-0.34c0.37-0.7,0.55-1.94,0.55-3.7L27.24,2c0-0.49,0.26-0.74,0.78-0.74
				L30.13,1.25L30.13,1.25z M31.14,5.9v0.98h2.41c0.25,0,0.38,0.1,0.38,0.31c0,0.2-0.12,0.3-0.38,0.3h-5.38
				c-0.25,0-0.38-0.1-0.38-0.3c0-0.21,0.12-0.31,0.38-0.31h2.34V5.9h-1.8c-0.25,0-0.37-0.1-0.37-0.3c0-0.2,0.12-0.3,0.37-0.3h1.8
				V2.43c0-0.25,0.11-0.38,0.32-0.38s0.31,0.13,0.31,0.38V5.3H33c0.24,0,0.37,0.1,0.37,0.3c0,0.2-0.12,0.3-0.37,0.3
				C33,5.9,31.14,5.9,31.14,5.9z M29.31,3.33c0.68,0.65,1.02,1.08,1.02,1.29s-0.1,0.31-0.31,0.31c-0.11,0-0.21-0.08-0.31-0.25
				c-0.12-0.21-0.32-0.49-0.59-0.84C28.79,4.62,28.52,5,28.32,5c-0.19,0-0.29-0.1-0.29-0.3c0-0.08,0.05-0.19,0.14-0.31
				c0.31-0.45,0.58-1.08,0.81-1.89c0.05-0.19,0.15-0.28,0.3-0.28c0.2,0,0.3,0.1,0.3,0.3C29.57,2.58,29.48,2.85,29.31,3.33z
				 M32.65,3.31c0.82,0.74,1.23,1.2,1.23,1.37c0,0.21-0.11,0.31-0.32,0.31c-0.1,0-0.21-0.09-0.34-0.27
				c-0.27-0.35-0.53-0.65-0.77-0.91c-0.35,0.76-0.63,1.14-0.84,1.14c-0.19,0-0.29-0.1-0.29-0.3c0-0.07,0.04-0.16,0.12-0.27
				c0.34-0.48,0.62-1.1,0.82-1.84c0.06-0.21,0.17-0.32,0.34-0.32c0.2,0,0.3,0.1,0.3,0.29C32.9,2.59,32.82,2.86,32.65,3.31z"/>
			<path d="M4.11,39.22c-0.26,0.31-0.48,0.46-0.65,0.46c-0.26,0-0.38-0.12-0.38-0.38c0-0.14,0.09-0.26,0.27-0.37
				c0.21-0.14,0.46-0.37,0.77-0.7c0.08-0.09,0.18-0.13,0.3-0.13c0.3,0,0.45,0.15,0.45,0.45v5.21c0,0.31-0.13,0.46-0.38,0.46
				s-0.38-0.15-0.38-0.46C4.11,43.76,4.11,39.22,4.11,39.22z"/>
			<path d="M6.98,43.51h2.03c0.25,0,0.38,0.1,0.38,0.31c0,0.21-0.13,0.31-0.38,0.31H6.66c-0.35,0-0.53-0.15-0.53-0.45
				c0-0.14,0.15-0.38,0.45-0.72c0.81-0.92,1.39-1.68,1.74-2.3c0.18-0.32,0.27-0.66,0.27-1c0-0.27-0.07-0.49-0.22-0.66
				c-0.15-0.17-0.33-0.25-0.55-0.25c-0.45,0-0.72,0.28-0.81,0.84c-0.05,0.3-0.19,0.45-0.42,0.45c-0.26,0-0.38-0.13-0.38-0.38
				c0-0.17,0.05-0.37,0.16-0.61c0.29-0.62,0.78-0.93,1.48-0.93c0.46,0,0.83,0.14,1.11,0.42s0.43,0.62,0.43,1.03
				c0,0.69-0.48,1.63-1.44,2.8L6.98,43.51z"/>
			<path d="M13.1,37.5c0.19,0,0.28,0.09,0.28,0.27c0,0.05-0.02,0.11-0.05,0.18l-2.7,6.68c-0.06,0.16-0.16,0.23-0.29,0.23
				c-0.19,0-0.28-0.09-0.28-0.27c0-0.05,0.01-0.11,0.04-0.18l2.7-6.68C12.87,37.58,12.97,37.5,13.1,37.5z"/>
			<path d="M14.68,43.51h2.03c0.25,0,0.38,0.1,0.38,0.31c0,0.21-0.13,0.31-0.38,0.31h-2.35c-0.35,0-0.53-0.15-0.53-0.45
				c0-0.14,0.15-0.38,0.45-0.72c0.81-0.92,1.39-1.68,1.74-2.3c0.18-0.32,0.27-0.66,0.27-1c0-0.27-0.07-0.49-0.22-0.66
				s-0.33-0.25-0.55-0.25c-0.45,0-0.72,0.28-0.81,0.84c-0.05,0.3-0.19,0.45-0.42,0.45c-0.26,0-0.38-0.13-0.38-0.38
				c0-0.17,0.05-0.37,0.16-0.61c0.29-0.62,0.78-0.93,1.48-0.93c0.46,0,0.83,0.14,1.11,0.42s0.43,0.62,0.43,1.03
				c0,0.69-0.48,1.63-1.44,2.8L14.68,43.51z"/>
			<path d="M18.72,43.51h2.03c0.25,0,0.38,0.1,0.38,0.31c0,0.21-0.13,0.31-0.38,0.31H18.4c-0.35,0-0.53-0.15-0.53-0.45
				c0-0.14,0.15-0.38,0.45-0.72c0.81-0.92,1.39-1.68,1.74-2.3c0.18-0.32,0.27-0.66,0.27-1c0-0.27-0.07-0.49-0.22-0.66
				s-0.33-0.25-0.55-0.25c-0.45,0-0.72,0.28-0.81,0.84c-0.05,0.3-0.19,0.45-0.42,0.45c-0.26,0-0.38-0.13-0.38-0.38
				c0-0.17,0.05-0.37,0.16-0.61c0.29-0.62,0.78-0.93,1.48-0.93c0.46,0,0.83,0.14,1.11,0.42s0.43,0.62,0.43,1.03
				c0,0.69-0.48,1.63-1.44,2.8L18.72,43.51z"/>
			<path d="M28.24,40.35c0.21,0,0.31,0.11,0.31,0.33c0,0.12-0.14,0.34-0.41,0.63c-0.48,0.53-1.05,0.8-1.71,0.8
				c-0.28,0-0.55-0.06-0.82-0.19l-1.07-0.72c-0.29-0.2-0.57-0.3-0.83-0.3c-0.34,0-0.66,0.12-0.97,0.38
				c-0.09,0.07-0.27,0.27-0.54,0.59c-0.08,0.1-0.17,0.15-0.26,0.15c-0.21,0-0.31-0.11-0.31-0.32c0-0.09,0.08-0.24,0.25-0.45
				c0.53-0.67,1.16-1,1.88-1c0.31,0,0.64,0.11,0.99,0.34l0.9,0.59c0.27,0.18,0.53,0.27,0.78,0.27c0.44,0,0.83-0.19,1.19-0.56
				l0.34-0.38C28.06,40.4,28.16,40.35,28.24,40.35z"/>
			<path d="M30.37,39.22c-0.26,0.31-0.48,0.46-0.65,0.46c-0.26,0-0.38-0.12-0.38-0.38c0-0.14,0.09-0.26,0.27-0.37
				c0.21-0.14,0.46-0.37,0.77-0.7c0.08-0.09,0.18-0.13,0.3-0.13c0.3,0,0.45,0.15,0.45,0.45v5.21c0,0.31-0.13,0.46-0.38,0.46
				s-0.38-0.15-0.38-0.46C30.37,43.76,30.37,39.22,30.37,39.22z"/>
			<path d="M35.33,37.5c0.19,0,0.28,0.09,0.28,0.27c0,0.05-0.02,0.11-0.05,0.18l-2.7,6.68c-0.06,0.16-0.16,0.23-0.29,0.23
				c-0.19,0-0.28-0.09-0.28-0.27c0-0.05,0.01-0.11,0.04-0.18l2.7-6.68C35.11,37.58,35.2,37.5,35.33,37.5z"/>
			<path d="M37.45,39.22c-0.26,0.31-0.48,0.46-0.65,0.46c-0.26,0-0.38-0.12-0.38-0.38c0-0.14,0.09-0.26,0.27-0.37
				c0.21-0.14,0.46-0.37,0.77-0.7c0.08-0.09,0.18-0.13,0.3-0.13c0.3,0,0.45,0.15,0.45,0.45v5.21c0,0.31-0.13,0.46-0.38,0.46
				s-0.38-0.15-0.38-0.46C37.45,43.76,37.45,39.22,37.45,39.22z"/>
			<path d="M42.05,41.54c-0.34,0.44-0.74,0.66-1.21,0.66c-0.42,0-0.74-0.18-0.98-0.54c-0.23-0.36-0.35-0.83-0.35-1.43
				c0-0.65,0.14-1.17,0.43-1.55s0.68-0.57,1.18-0.57c1.13,0,1.7,0.96,1.7,2.88c0,2.17-0.63,3.25-1.88,3.25
				c-0.57,0-0.98-0.25-1.23-0.74c-0.1-0.2-0.16-0.37-0.16-0.5c0-0.24,0.12-0.36,0.37-0.36c0.2,0,0.33,0.13,0.39,0.38
				c0.09,0.42,0.31,0.62,0.66,0.62C41.6,43.65,41.97,42.95,42.05,41.54z M42.06,40.77c0-1.38-0.31-2.06-0.93-2.06
				c-0.58,0-0.87,0.5-0.87,1.49c0,0.94,0.24,1.41,0.73,1.41c0.36,0,0.7-0.26,1.03-0.77L42.06,40.77z"/>
		</g>
	</g>
</g>
</svg>
